# Blender v3.0.0 OBJ File: 'geist.blend'
# www.blender.org
mtllib geist.mtl
o Head
v 0.208369 2.262294 -0.050748
v 0.208369 2.262294 0.246922
v 0.208369 1.726487 -0.050748
v 0.208369 1.726487 0.246922
v -0.208369 2.262294 0.246922
v -0.208369 2.262294 -0.050748
v -0.208369 1.726487 0.246922
v -0.208369 1.726487 -0.050748
v 0.045232 2.083691 0.211950
v 0.090838 2.083691 0.250218
v 0.045232 1.845555 0.211950
v 0.090838 1.845555 0.250218
v 0.014302 2.083691 0.341429
v -0.031304 2.083691 0.303161
v 0.014302 1.845555 0.341429
v -0.031304 1.845555 0.303161
v 0.031304 2.083691 0.303161
v -0.014302 2.083691 0.341429
v 0.031304 1.845555 0.303161
v -0.014302 1.845555 0.341429
v -0.090838 2.083691 0.250218
v -0.045232 2.083691 0.211950
v -0.090838 1.845555 0.250218
v -0.045232 1.845555 0.211950
vt 0.906250 0.859375
vt 0.906250 0.796875
vt 0.921875 0.796875
vt 0.921875 0.859375
vt 0.921875 0.781250
vt 0.921875 0.718750
vt 0.906250 0.718750
vt 0.906250 0.781250
vt 0.812500 0.500000
vt 0.812500 0.359375
vt 0.703125 0.359375
vt 0.703125 0.500000
vt 0.625000 0.359375
vt 0.625000 0.500000
vt 0.515625 0.359375
vt 0.515625 0.500000
vt 0.625000 0.578125
vt 0.625000 0.500000
vt 0.734375 0.500000
vt 0.734375 0.578125
vt 0.953125 0.796875
vt 0.953125 0.859375
vt 0.968750 0.796875
vt 0.968750 0.859375
vt 0.984375 0.875000
vt 0.984375 0.859375
vt 0.953125 0.859375
vt 0.953125 0.875000
vt 0.921875 0.796875
vt 0.953125 0.796875
vt 0.953125 0.781250
vt 0.953125 0.718750
vt 1.000000 0.796875
vt 1.000000 0.859375
vt 0.953125 0.796875
vt 0.953125 0.781250
vt 0.984375 0.781250
vt 0.984375 0.796875
vt 0.515625 0.578125
vt 0.625000 0.578125
vt 0.953125 0.875000
vt 0.921875 0.875000
vt 0.968750 0.781250
vt 0.968750 0.718750
vt 1.000000 0.781250
vt 1.000000 0.718750
vt 0.437500 0.359375
vt 0.437500 0.500000
vn -0.6428 0.0000 -0.7660
vn 0.6428 0.0000 -0.7660
vn 0.0000 0.0000 -1.0000
vn -1.0000 0.0000 0.0000
vn 0.0000 -0.0000 1.0000
vn 0.0000 -1.0000 0.0000
vn -0.7660 -0.0000 0.6428
vn 0.6428 -0.0000 0.7660
vn 0.0000 1.0000 -0.0000
vn 0.7660 -0.0000 0.6428
vn 0.7660 0.0000 -0.6428
vn -0.6428 -0.0000 0.7660
vn -0.7660 0.0000 -0.6428
vn 1.0000 0.0000 0.0000
usemtl Default_OBJ
s 1
f 22/1/1 24/2/1 23/3/1 21/4/1
f 10/5/2 12/6/2 11/7/2 9/8/2
f 1/9/3 3/10/3 8/11/3 6/12/3
f 6/12/4 8/11/4 7/13/4 5/14/4
f 5/14/5 7/13/5 4/15/5 2/16/5
f 3/17/6 4/18/6 7/19/6 8/20/6
f 21/4/7 23/3/7 20/21/7 18/22/7
f 18/22/8 20/21/8 19/23/8 17/24/8
f 19/25/6 20/26/6 23/27/6 24/28/6
f 10/5/9 9/29/9 14/30/9 13/31/9
f 13/31/10 15/32/10 12/6/10 10/5/10
f 17/24/11 19/23/11 24/33/11 22/34/11
f 11/35/6 12/36/6 15/37/6 16/38/6
f 2/16/9 1/39/9 6/40/9 5/14/9
f 18/22/9 17/41/9 22/42/9 21/4/9
f 14/43/12 16/44/12 15/32/12 13/31/12
f 9/45/13 11/46/13 16/44/13 14/43/13
f 2/16/14 4/15/14 3/47/14 1/48/14
o Body
v 0.048117 1.812935 -0.017836
v 0.007393 1.783977 0.090239
v 0.048117 1.525408 -0.094879
v 0.007393 1.496449 0.013196
v -0.104494 1.794517 0.050903
v -0.063770 1.823475 -0.057172
v -0.104494 1.506990 -0.026140
v -0.063770 1.535948 -0.134215
v 0.267903 1.603505 -0.359221
v 0.267903 1.644857 -0.124703
v 0.267903 0.782691 -0.214490
v 0.267903 0.824043 0.020029
v -0.267903 1.644857 -0.124703
v -0.267903 1.603505 -0.359221
v -0.267903 0.824043 0.020029
v -0.267903 0.782691 -0.214490
v 0.297670 2.206143 -0.238576
v 0.297670 2.113691 0.106457
v 0.297670 1.573583 -0.408070
v 0.297670 1.481131 -0.063037
v -0.297670 2.113691 0.106457
v -0.297670 2.206143 -0.238576
v -0.297670 1.481131 -0.063037
v -0.297670 1.573583 -0.408070
v 0.063770 1.740393 -0.047530
v 0.104494 1.711434 0.060545
v 0.063770 1.452865 -0.124572
v 0.104494 1.423907 -0.016498
v -0.007393 1.700894 0.099881
v -0.048117 1.729853 -0.008194
v -0.007393 1.413367 0.022839
v -0.048117 1.442325 -0.085236
vt 0.906250 0.968750
vt 0.906250 0.890625
vt 0.875000 0.890625
vt 0.875000 0.968750
vt 0.968750 1.000000
vt 0.968750 0.968750
vt 0.937500 0.968750
vt 0.937500 1.000000
vt 0.968750 0.968750
vt 0.968750 0.890625
vt 0.937500 0.890625
vt 0.937500 0.968750
vt 0.265625 0.671875
vt 0.265625 0.453125
vt 0.203125 0.453125
vt 0.203125 0.671875
vt 0.937500 0.968750
vt 0.937500 0.890625
vt 0.968750 0.890625
vt 0.968750 0.968750
vt 0.906250 1.000000
vt 0.937500 1.000000
vt 0.062500 0.671875
vt 0.062500 0.453125
vt 0.000000 0.453125
vt 0.000000 0.671875
vt 0.203125 0.734375
vt 0.203125 0.671875
vt 0.343750 0.671875
vt 0.343750 0.734375
vt 0.093750 0.906250
vt 0.093750 1.000000
vt 0.250000 1.000000
vt 0.250000 0.906250
vt 1.000000 0.968750
vt 1.000000 0.890625
vt 0.937500 1.000000
vt 0.906250 1.000000
vt 0.906250 0.968750
vt 0.093750 0.734375
vt 0.000000 0.734375
vt 0.000000 0.906250
vt 0.062500 0.734375
vt 0.203125 0.734375
vt 0.250000 0.734375
vt 0.406250 0.671875
vt 0.406250 0.453125
vt 0.500000 0.906250
vt 0.500000 0.734375
vt 0.343750 0.734375
vt 0.343750 0.906250
vt 0.937500 1.000000
vt 0.937500 0.968750
vt 0.968750 0.968750
vt 0.968750 1.000000
vt 0.906250 0.890625
vt 1.000000 0.890625
vt 1.000000 0.968750
vt 0.875000 0.968750
vt 0.875000 0.890625
vt 0.250000 1.000000
vt 0.250000 0.906250
vt 0.406250 0.906250
vt 0.406250 1.000000
vn 0.9397 0.0885 -0.3304
vn -0.0000 -0.9659 -0.2588
vn -0.9397 -0.0885 0.3304
vn -1.0000 0.0000 0.0000
vn 0.9397 -0.0885 0.3304
vn 0.0000 0.9659 0.2588
vn 1.0000 -0.0000 0.0000
vn 0.0000 -0.9848 0.1736
vn 0.0000 0.1736 0.9848
vn -0.3420 0.2432 -0.9077
vn 0.0000 0.9848 -0.1736
vn 0.0000 -0.2588 0.9659
vn 0.0000 -0.1736 -0.9848
vn 0.0000 0.2588 -0.9659
vn -0.3420 -0.2432 0.9077
vn 0.3420 -0.2432 0.9077
vn 0.3420 0.2432 -0.9077
vn -0.9397 0.0885 -0.3304
usemtl Default_OBJ
s 1
f 50/49/15 52/50/15 51/51/15 49/52/15
f 27/53/16 28/54/16 31/55/16 32/56/16
f 54/57/17 56/58/17 55/59/17 53/60/17
f 38/61/18 40/62/18 39/63/18 37/64/18
f 26/65/19 28/66/19 27/67/19 25/68/19
f 50/49/20 49/69/20 54/70/20 53/60/20
f 34/71/21 36/72/21 35/73/21 33/74/21
f 35/75/22 36/76/22 39/77/22 40/78/22
f 37/64/23 39/63/23 36/72/23 34/71/23
f 42/79/20 41/80/20 46/81/20 45/82/20
f 49/83/24 51/84/24 56/58/24 54/57/24
f 26/65/20 25/85/20 30/86/20 29/87/20
f 42/79/21 44/88/21 43/89/21 41/90/21
f 34/71/25 33/91/25 38/92/25 37/64/25
f 45/82/26 47/93/26 44/88/26 42/79/26
f 33/94/27 35/95/27 40/62/27 38/61/27
f 41/96/28 43/97/28 48/98/28 46/99/28
f 51/100/16 52/101/16 55/102/16 56/103/16
f 29/87/29 31/104/29 28/66/29 26/65/29
f 46/99/18 48/98/18 47/93/18 45/82/18
f 53/60/30 55/59/30 52/50/30 50/49/30
f 25/68/31 27/67/31 32/105/31 30/106/31
f 30/107/32 32/108/32 31/104/32 29/87/32
f 43/109/16 44/110/16 47/111/16 48/112/16
o LegLeft
v 0.267903 0.535806 -0.050748
v 0.267903 0.535806 0.068320
v 0.267903 0.000000 -0.050748
v 0.267903 -0.000000 0.068320
v 0.148835 0.535806 0.068320
v 0.148835 0.535806 -0.050748
v 0.148835 -0.000000 0.068320
v 0.148835 0.000000 -0.050748
v 0.297670 0.926096 -0.171761
v 0.297670 0.972322 0.000755
v 0.297670 0.466053 -0.048493
v 0.297670 0.512278 0.124024
v 0.119068 0.972322 0.000755
v 0.119068 0.926096 -0.171761
v 0.119068 0.512278 0.124024
v 0.119068 0.466053 -0.048493
vt 0.593750 0.890625
vt 0.593750 0.765625
vt 0.546875 0.765625
vt 0.546875 0.890625
vt 0.500000 0.765625
vt 0.500000 0.890625
vt 0.375000 0.421875
vt 0.375000 0.281250
vt 0.343750 0.281250
vt 0.343750 0.421875
vt 0.546875 0.937500
vt 0.593750 0.937500
vt 0.312500 0.421875
vt 0.312500 0.281250
vt 0.281250 0.281250
vt 0.281250 0.421875
vt 0.312500 0.453125
vt 0.312500 0.421875
vt 0.343750 0.421875
vt 0.343750 0.453125
vt 0.640625 0.890625
vt 0.640625 0.765625
vt 0.687500 0.890625
vt 0.687500 0.765625
vt 0.281250 0.453125
vt 0.312500 0.453125
vt 0.593750 0.937500
vt 0.593750 0.890625
vt 0.640625 0.890625
vt 0.640625 0.937500
vt 0.250000 0.281250
vt 0.250000 0.421875
vn 0.0000 0.2588 0.9659
vn 1.0000 0.0000 0.0000
vn 0.0000 0.0000 -1.0000
vn 0.0000 0.9659 -0.2588
vn 0.0000 -0.0000 1.0000
vn 0.0000 -1.0000 -0.0000
vn -1.0000 0.0000 0.0000
vn 0.0000 -0.2588 -0.9659
vn 0.0000 1.0000 0.0000
vn 0.0000 -0.9659 0.2588
usemtl Default_OBJ
s 1
f 69/113/33 71/114/33 68/115/33 66/116/33
f 66/116/34 68/115/34 67/117/34 65/118/34
f 57/119/35 59/120/35 64/121/35 62/122/35
f 66/116/36 65/123/36 70/124/36 69/113/36
f 61/125/37 63/126/37 60/127/37 58/128/37
f 59/129/38 60/130/38 63/131/38 64/132/38
f 70/133/39 72/134/39 71/114/39 69/113/39
f 65/135/40 67/136/40 72/134/40 70/133/40
f 58/128/41 57/137/41 62/138/41 61/125/41
f 62/122/39 64/121/39 63/126/39 61/125/39
f 67/139/42 68/140/42 71/141/42 72/142/42
f 58/128/34 60/127/34 59/143/34 57/144/34
o LegRight
v -0.148835 0.535806 -0.050748
v -0.148835 0.535806 0.068320
v -0.148835 0.000000 -0.050748
v -0.148835 -0.000000 0.068320
v -0.267903 0.535806 0.068320
v -0.267903 0.535806 -0.050748
v -0.267903 -0.000000 0.068320
v -0.267903 0.000000 -0.050748
v -0.119068 0.926096 -0.171761
v -0.119068 0.972322 0.000755
v -0.119068 0.466053 -0.048493
v -0.119068 0.512278 0.124024
v -0.297670 0.972322 0.000755
v -0.297670 0.926096 -0.171761
v -0.297670 0.512278 0.124024
v -0.297670 0.466053 -0.048493
vt 0.546875 0.890625
vt 0.546875 0.765625
vt 0.593750 0.765625
vt 0.593750 0.890625
vt 0.640625 0.765625
vt 0.640625 0.890625
vt 0.343750 0.421875
vt 0.343750 0.281250
vt 0.375000 0.281250
vt 0.375000 0.421875
vt 0.593750 0.937500
vt 0.546875 0.937500
vt 0.281250 0.421875
vt 0.281250 0.281250
vt 0.312500 0.281250
vt 0.312500 0.421875
vt 0.343750 0.453125
vt 0.343750 0.421875
vt 0.312500 0.421875
vt 0.312500 0.453125
vt 0.500000 0.890625
vt 0.500000 0.765625
vt 0.687500 0.765625
vt 0.687500 0.890625
vt 0.312500 0.453125
vt 0.281250 0.453125
vt 0.250000 0.421875
vt 0.250000 0.281250
vt 0.640625 0.937500
vt 0.640625 0.890625
vt 0.593750 0.890625
vt 0.593750 0.937500
vn 0.0000 0.2588 0.9659
vn 1.0000 0.0000 0.0000
vn 0.0000 0.0000 -1.0000
vn 0.0000 0.9659 -0.2588
vn 0.0000 -0.0000 1.0000
vn 0.0000 -1.0000 -0.0000
vn -1.0000 0.0000 0.0000
vn 0.0000 -0.2588 -0.9659
vn 0.0000 1.0000 0.0000
vn 0.0000 -0.9659 0.2588
usemtl Default_OBJ
s 1
f 85/145/43 87/146/43 84/147/43 82/148/43
f 82/148/44 84/147/44 83/149/44 81/150/44
f 73/151/45 75/152/45 80/153/45 78/154/45
f 82/148/46 81/155/46 86/156/46 85/145/46
f 77/157/47 79/158/47 76/159/47 74/160/47
f 75/161/48 76/162/48 79/163/48 80/164/48
f 86/165/49 88/166/49 87/146/49 85/145/49
f 81/150/50 83/149/50 88/167/50 86/168/50
f 74/160/51 73/169/51 78/170/51 77/157/51
f 78/171/49 80/172/49 79/158/49 77/157/49
f 83/173/52 84/174/52 87/175/52 88/176/52
f 74/160/44 76/159/44 75/152/44 73/151/44
o ArmLeft
v 0.598351 0.831759 -0.136053
v 0.600180 0.862573 -0.021056
v 0.479743 0.842176 -0.136958
v 0.481572 0.872989 -0.021960
v 0.651652 1.435269 -0.175327
v 0.649823 1.404456 -0.290324
v 0.533044 1.445686 -0.176231
v 0.531214 1.414872 -0.291229
v 0.553683 1.980432 -0.278053
v 0.550980 1.965102 -0.100131
v 0.522788 1.805213 -0.293620
v 0.520084 1.789883 -0.115697
v 0.257832 2.016792 -0.100131
v 0.260535 2.032122 -0.278053
v 0.226937 1.841573 -0.115697
v 0.229640 1.856903 -0.293620
v 0.660346 1.398371 -0.297607
v 0.658544 1.388151 -0.178992
v 0.543113 1.377847 -0.301156
v 0.541311 1.367627 -0.182541
v 0.554794 1.972350 -0.130234
v 0.556596 1.982570 -0.248849
v 0.437562 1.951827 -0.133783
v 0.439364 1.962047 -0.252398
vt 0.375000 0.703125
vt 0.375000 0.671875
vt 0.343750 0.671875
vt 0.343750 0.703125
vt 0.250000 0.406250
vt 0.250000 0.359375
vt 0.171875 0.359375
vt 0.171875 0.406250
vt 0.562500 0.703125
vt 0.562500 0.671875
vt 0.531250 0.671875
vt 0.531250 0.703125
vt 0.046875 0.406250
vt 0.046875 0.359375
vt 0.000000 0.359375
vt 0.000000 0.406250
vt 0.531250 0.734375
vt 0.531250 0.703125
vt 0.687500 0.703125
vt 0.687500 0.734375
vt 0.625000 0.968750
vt 0.625000 0.937500
vt 0.593750 0.937500
vt 0.593750 0.968750
vt 0.593750 1.000000
vt 0.593750 0.968750
vt 0.750000 0.968750
vt 0.750000 1.000000
vt 0.781250 0.968750
vt 0.781250 0.937500
vt 0.718750 0.703125
vt 0.718750 0.671875
vt 0.125000 0.359375
vt 0.125000 0.406250
vt 0.125000 0.453125
vt 0.125000 0.406250
vt 0.203125 0.406250
vt 0.203125 0.453125
vt 0.437500 0.968750
vt 0.437500 0.937500
vt 0.406250 0.937500
vt 0.406250 0.968750
vt 0.437500 1.000000
vt 0.593750 1.000000
vt 0.375000 0.734375
vt 0.531250 0.734375
vt 0.046875 0.453125
vt 0.125000 0.453125
vn -0.0865 -0.9620 0.2591
vn 0.0151 0.0858 -0.9962
vn 0.0865 0.9620 -0.2591
vn 0.0154 0.2588 0.9658
vn 0.9848 -0.1736 0.0000
vn -0.9961 0.0875 -0.0076
vn -0.1743 0.9813 0.0819
vn -0.9846 -0.1724 -0.0298
vn -0.0154 -0.2588 -0.9658
vn -0.9848 0.1736 -0.0000
vn -0.0151 -0.0858 0.9962
vn -0.1730 -0.9811 -0.0872
vn 0.1743 -0.9813 -0.0819
vn 0.9846 0.1724 0.0298
vn 0.9961 -0.0875 0.0076
vn 0.1730 0.9811 0.0872
usemtl Default_OBJ
s 1
f 90/177/53 92/178/53 91/179/53 89/180/53
f 97/181/54 99/182/54 104/183/54 102/184/54
f 94/185/55 96/186/55 95/187/55 93/188/55
f 93/188/56 95/187/56 92/178/56 90/177/56
f 98/189/57 100/190/57 99/191/57 97/192/57
f 91/193/58 92/194/58 95/195/58 96/196/58
f 110/197/59 112/198/59 111/199/59 109/200/59
f 107/201/60 108/202/60 111/203/60 112/204/60
f 105/205/54 107/206/54 112/198/54 110/197/54
f 89/207/61 91/208/61 96/186/61 94/185/61
f 102/184/62 104/183/62 103/209/62 101/210/62
f 101/210/63 103/209/63 100/190/63 98/189/63
f 99/211/64 100/212/64 103/213/64 104/214/64
f 106/215/65 108/216/65 107/217/65 105/218/65
f 106/215/66 105/219/66 110/220/66 109/200/66
f 109/200/63 111/199/63 108/216/63 106/215/63
f 90/177/67 89/221/67 94/222/67 93/188/67
f 98/189/68 97/223/68 102/224/68 101/210/68
o ArmRight
v -0.260535 2.032122 -0.278053
v -0.257832 2.016792 -0.100131
v -0.229640 1.856903 -0.293620
v -0.226937 1.841573 -0.115697
v -0.550980 1.965102 -0.100131
v -0.553683 1.980432 -0.278053
v -0.520084 1.789883 -0.115697
v -0.522788 1.805213 -0.293620
v -0.556596 1.982570 -0.248849
v -0.554794 1.972350 -0.130234
v -0.439364 1.962047 -0.252398
v -0.437562 1.951827 -0.133783
v -0.658544 1.388151 -0.178992
v -0.660346 1.398371 -0.297607
v -0.541311 1.367627 -0.182541
v -0.543113 1.377847 -0.301156
v -0.649823 1.404456 -0.290324
v -0.651652 1.435269 -0.175327
v -0.531214 1.414872 -0.291229
v -0.533044 1.445686 -0.176231
v -0.600180 0.862573 -0.021056
v -0.598351 0.831759 -0.136053
v -0.481572 0.872989 -0.021960
v -0.479743 0.842176 -0.136958
vt 0.593750 0.968750
vt 0.593750 0.937500
vt 0.625000 0.937500
vt 0.625000 0.968750
vt 0.687500 0.734375
vt 0.687500 0.703125
vt 0.531250 0.703125
vt 0.531250 0.734375
vt 0.750000 1.000000
vt 0.750000 0.968750
vt 0.593750 0.968750
vt 0.593750 1.000000
vt 0.781250 0.937500
vt 0.781250 0.968750
vt 0.562500 0.703125
vt 0.562500 0.671875
vt 0.718750 0.671875
vt 0.718750 0.703125
vt 0.125000 0.406250
vt 0.125000 0.359375
vt 0.171875 0.359375
vt 0.171875 0.406250
vt 0.203125 0.453125
vt 0.203125 0.406250
vt 0.125000 0.406250
vt 0.125000 0.453125
vt 0.046875 0.406250
vt 0.046875 0.359375
vt 0.406250 0.968750
vt 0.406250 0.937500
vt 0.437500 0.937500
vt 0.437500 0.968750
vt 0.593750 1.000000
vt 0.437500 1.000000
vt 0.531250 0.703125
vt 0.531250 0.734375
vt 0.375000 0.734375
vt 0.375000 0.703125
vt 0.343750 0.703125
vt 0.343750 0.671875
vt 0.375000 0.671875
vt 0.250000 0.359375
vt 0.250000 0.406250
vt 0.531250 0.671875
vt 0.000000 0.406250
vt 0.000000 0.359375
vt 0.125000 0.453125
vt 0.046875 0.453125
vn 0.1743 0.9813 0.0819
vn 0.9961 0.0875 -0.0076
vn 0.9846 -0.1724 -0.0298
vn -0.0151 0.0858 -0.9962
vn 0.0154 -0.2588 -0.9658
vn 0.9848 0.1736 0.0000
vn 0.1730 -0.9811 -0.0872
vn 0.0151 -0.0858 0.9962
vn -0.1743 -0.9813 -0.0819
vn -0.9846 0.1724 0.0298
vn -0.9961 -0.0875 0.0076
vn 0.0865 -0.9620 0.2591
vn -0.0865 0.9620 -0.2591
vn -0.0154 0.2588 0.9658
vn -0.9848 -0.1736 0.0000
vn -0.1730 0.9811 0.0872
usemtl Default_OBJ
s 1
f 122/225/69 124/226/69 123/227/69 121/228/69
f 131/229/70 132/230/70 135/231/70 136/232/70
f 123/233/71 124/234/71 127/235/71 128/236/71
f 121/228/72 123/227/72 128/237/72 126/238/72
f 129/239/73 131/240/73 136/241/73 134/242/73
f 114/243/74 116/244/74 115/245/74 113/246/74
f 115/247/75 116/248/75 119/249/75 120/250/75
f 117/251/76 119/252/76 116/244/76 114/243/76
f 126/253/77 128/254/77 127/255/77 125/256/77
f 122/225/78 121/257/78 126/258/78 125/256/78
f 125/256/76 127/255/76 124/226/76 122/225/76
f 130/259/79 129/260/79 134/261/79 133/262/79
f 134/263/80 136/264/80 135/265/80 133/262/80
f 113/246/72 115/245/72 120/266/72 118/267/72
f 130/259/81 132/268/81 131/240/81 129/239/81
f 133/262/82 135/265/82 132/268/82 130/259/82
f 118/269/83 120/270/83 119/252/83 117/251/83
f 114/243/84 113/271/84 118/272/84 117/251/84
