# Blender 3.6.9
# www.blender.org
mtllib abtu.mtl
o Body
v -0.250000 0.875000 -0.187500
v -0.250000 0.875000 0.687500
v -0.250000 -0.000000 -0.187500
v -0.250000 0.000000 0.687500
v 0.250000 0.875000 0.687500
v 0.250000 0.875000 -0.187500
v 0.250000 0.000000 0.687500
v 0.250000 -0.000000 -0.187500
v -0.187500 0.812500 -0.937500
v -0.187500 0.812500 -0.062500
v -0.187500 0.062500 -0.937500
v -0.187500 0.062500 -0.062500
v 0.187500 0.812500 -0.062500
v 0.187500 0.812500 -0.937500
v 0.187500 0.062500 -0.062500
v 0.187500 0.062500 -0.937500
v -0.125000 0.750000 -1.500000
v -0.125000 0.750000 -0.625000
v -0.125000 0.125000 -1.500000
v -0.125000 0.125000 -0.625000
v 0.125000 0.750000 -0.625000
v 0.125000 0.750000 -1.500000
v 0.125000 0.125000 -0.625000
v 0.125000 0.125000 -1.500000
v -0.000000 0.961939 -0.310061
v 0.000000 1.284576 0.150712
v 0.000000 0.501166 0.012575
v 0.000000 0.823803 0.473348
v 0.000000 1.284576 0.150712
v -0.000000 0.961939 -0.310061
v 0.000000 0.823803 0.473348
v 0.000000 0.501166 0.012575
v -0.000000 0.848242 -0.899213
v -0.000000 1.170879 -0.438440
v -0.000000 0.387469 -0.576576
v -0.000000 0.710106 -0.115803
v -0.000000 1.170879 -0.438440
v -0.000000 0.848242 -0.899213
v -0.000000 0.710106 -0.115803
v -0.000000 0.387469 -0.576576
v -0.000000 1.113551 -2.232512
v -0.000000 0.734782 -0.523994
v -0.000000 0.503366 -2.367786
v -0.000000 0.124597 -0.659268
v -0.000000 0.734782 -0.523994
v -0.000000 1.113551 -2.232512
v -0.000000 0.124597 -0.659268
v -0.000000 0.503366 -2.367786
v -0.515647 0.408659 -0.217526
v -0.256527 0.560601 0.604299
v -0.486275 -0.145296 -0.124369
v -0.227155 0.006647 0.697455
v -0.256527 0.560601 0.604299
v -0.515647 0.408659 -0.217526
v -0.227155 0.006647 0.697455
v -0.486275 -0.145296 -0.124369
v 0.515647 0.408659 -0.217526
v 0.256527 0.560601 0.604299
v 0.486275 -0.145296 -0.124369
v 0.227155 0.006647 0.697455
v 0.256527 0.560601 0.604299
v 0.515647 0.408659 -0.217526
v 0.227155 0.006647 0.697455
v 0.486275 -0.145296 -0.124369
v -0.000000 0.137277 -2.009798
v -0.000000 0.533482 -1.160135
v -0.000000 -0.315877 -1.798489
v -0.000000 0.080328 -0.948825
v -0.000000 0.533482 -1.160135
v -0.000000 0.137277 -2.009798
v -0.000000 0.080328 -0.948825
v -0.000000 -0.315877 -1.798489
vn -0.0000 -0.0000 1.0000
vn -1.0000 -0.0000 -0.0000
vn -0.0000 -0.0000 -1.0000
vn 1.0000 -0.0000 -0.0000
vn -0.0000 1.0000 -0.0000
vn -0.0000 -1.0000 -0.0000
vn -0.0000 0.5736 0.8192
vn -0.0000 0.5736 0.8191
vn -0.0000 -0.5736 -0.8191
vn -0.0000 -0.5736 -0.8192
vn -0.0000 0.8191 -0.5736
vn -0.0003 0.8192 -0.5735
vn -0.0000 -0.8192 0.5736
vn 0.0003 -0.8192 0.5736
vn -0.0002 -0.5736 -0.8191
vn -0.0000 -0.2165 0.9763
vn -0.0000 -0.2164 0.9763
vn -0.0000 0.2164 -0.9763
vn -0.0001 0.2164 -0.9763
vn 0.0003 0.9763 0.2164
vn -0.0000 0.9763 0.2164
vn -0.0003 -0.9763 -0.2164
vn -0.0000 -0.9763 -0.2164
vn 0.2961 0.1736 0.9392
vn 0.2962 0.1736 0.9392
vn -0.9537 -0.0000 0.3007
vn -0.2962 -0.1737 -0.9392
vn -0.2961 -0.1736 -0.9392
vn 0.9537 -0.0000 -0.3007
vn -0.0522 0.9848 -0.1657
vn -0.0522 0.9848 -0.1656
vn 0.0522 -0.9848 0.1656
vn -0.2961 0.1736 0.9392
vn -0.2961 0.1737 0.9392
vn -0.9537 -0.0000 -0.3007
vn 0.2962 -0.1737 -0.9392
vn 0.2961 -0.1736 -0.9392
vn 0.9537 -0.0000 0.3007
vn 0.0522 0.9848 -0.1657
vn 0.0523 0.9848 -0.1656
vn -0.0522 -0.9848 0.1656
vn -0.0523 -0.9848 0.1656
vn -0.0000 0.4226 0.9063
vn -0.0001 -0.4226 -0.9063
vn -0.0000 -0.4226 -0.9063
vn -0.0000 0.9063 -0.4226
vn -0.0000 -0.9063 0.4226
vn -0.0000 -0.9063 0.4227
vt 0.054688 0.781250
vt 0.085938 0.781250
vt 0.085938 0.890625
vt 0.054688 0.890625
vt 0.000000 0.781250
vt 0.000000 0.890625
vt 0.140625 0.781250
vt 0.171875 0.781250
vt 0.171875 0.890625
vt 0.140625 0.890625
vt 0.085938 1.000000
vt 0.054688 1.000000
vt 0.117188 0.890625
vt 0.117188 1.000000
vt 0.226562 0.796875
vt 0.250000 0.796875
vt 0.250000 0.890625
vt 0.226562 0.890625
vt 0.171875 0.796875
vt 0.304688 0.796875
vt 0.328125 0.796875
vt 0.328125 0.890625
vt 0.304688 0.890625
vt 0.250000 1.000000
vt 0.226562 1.000000
vt 0.273438 0.890625
vt 0.273438 1.000000
vt 0.382812 0.812500
vt 0.398438 0.812500
vt 0.398438 0.890625
vt 0.382812 0.890625
vt 0.328125 0.812500
vt 0.453125 0.812500
vt 0.468750 0.812500
vt 0.468750 0.890625
vt 0.453125 0.890625
vt 0.398438 1.000000
vt 0.382812 1.000000
vt 0.414062 0.890625
vt 0.414062 1.000000
vt 0.113281 0.000000
vt 0.113281 0.070312
vt 0.078125 0.000000
vt 0.078125 0.070312
vt 0.148438 0.000000
vt 0.148438 0.070312
vt 0.113281 0.140625
vt 0.625000 0.515625
vt 0.625000 0.593750
vt 0.515625 0.515625
vt 0.515625 0.593750
vt 0.734375 0.515625
vt 0.734375 0.593750
vt 0.625000 0.812500
vt 0.187500 0.242188
vt 0.187500 0.312500
vt 0.132812 0.242188
vt 0.132812 0.312500
vt 0.242188 0.242188
vt 0.242188 0.312500
vt 0.187500 0.421875
vt 0.574219 0.453125
vt 0.574219 0.515625
vt 0.515625 0.453125
vt 0.632812 0.453125
vt 0.632812 0.515625
vt 0.574219 0.632812
s 0
usemtl none
f 4/1/1 7/2/1 5/3/1 2/4/1
f 3/5/2 4/1/2 2/4/2 1/6/2
f 8/7/3 3/8/3 1/9/3 6/10/3
f 7/2/4 8/7/4 6/10/4 5/3/4
f 6/11/5 1/12/5 2/4/5 5/3/5
f 7/13/6 4/3/6 3/11/6 8/14/6
f 12/15/1 15/16/1 13/17/1 10/18/1
f 11/19/2 12/15/2 10/18/2 9/9/2
f 16/20/3 11/21/3 9/22/3 14/23/3
f 15/16/4 16/20/4 14/23/4 13/17/4
f 14/24/5 9/25/5 10/18/5 13/17/5
f 15/26/6 12/17/6 11/24/6 16/27/6
f 20/28/1 23/29/1 21/30/1 18/31/1
f 19/32/2 20/28/2 18/31/2 17/22/2
f 24/33/3 19/34/3 17/35/3 22/36/3
f 23/29/4 24/33/4 22/36/4 21/30/4
f 22/37/5 17/38/5 18/31/5 21/30/5
f 23/39/6 20/30/6 19/37/6 24/40/6
f 28/41/1 31/41/7 29/42/1 26/42/8
f 27/43/2 28/41/2 26/42/2 25/44/2
f 32/45/3 27/45/9 25/46/3 30/46/10
f 31/41/4 32/45/4 30/46/4 29/42/4
f 30/47/3 25/47/11 26/42/3 29/42/12
f 31/42/1 28/42/13 27/47/1 32/47/14
f 36/41/1 39/41/7 37/42/1 34/42/8
f 35/43/2 36/41/2 34/42/2 33/44/2
f 40/45/3 35/45/15 33/46/3 38/46/10
f 39/41/4 40/45/4 38/46/4 37/42/4
f 38/47/3 33/47/11 34/42/3 37/42/12
f 39/42/1 36/42/13 35/47/1 40/47/14
f 44/48/1 47/48/16 45/49/1 42/49/17
f 43/50/2 44/48/2 42/49/2 41/51/2
f 48/52/3 43/52/18 41/53/3 46/53/19
f 47/48/4 48/52/4 46/53/4 45/49/4
f 46/54/1 41/54/20 42/49/1 45/49/21
f 47/49/3 44/49/22 43/54/3 48/54/23
f 52/55/1 55/55/24 53/56/1 50/56/25
f 51/57/26 52/55/26 50/56/26 49/58/26
f 56/59/3 51/59/27 49/60/3 54/60/28
f 55/55/29 56/59/29 54/60/29 53/56/29
f 54/61/3 49/61/30 50/56/3 53/56/31
f 55/56/1 52/56/32 51/61/1 56/61/32
f 60/55/1 63/55/33 61/56/1 58/56/34
f 59/57/35 60/55/35 58/56/35 57/58/35
f 64/59/3 59/59/36 57/60/3 62/60/37
f 63/55/38 64/59/38 62/60/38 61/56/38
f 62/61/3 57/61/39 58/56/3 61/56/40
f 63/56/1 60/56/41 59/61/1 64/61/42
f 68/62/1 71/62/43 69/63/1 66/63/43
f 67/64/2 68/62/2 66/63/2 65/50/2
f 72/65/3 67/65/44 65/66/3 70/66/45
f 71/62/4 72/65/4 70/66/4 69/63/4
f 70/67/3 65/67/46 66/63/3 69/63/46
f 71/63/1 68/63/47 67/67/1 72/67/48
o Head
v -0.250000 0.904971 1.277263
v -0.250000 0.210787 1.809930
v -0.250000 0.524495 0.781417
v -0.250000 -0.169689 1.314084
v 0.250000 0.210787 1.809930
v 0.250000 0.904971 1.277263
v 0.250000 -0.169689 1.314084
v 0.250000 0.524495 0.781417
v 0.250625 0.598259 1.236884
v 0.250625 0.548674 1.274931
v 0.250625 0.560211 1.187299
v 0.250625 0.510626 1.225347
v 0.250625 0.548674 1.274931
v 0.250625 0.598259 1.236884
v 0.250625 0.510626 1.225347
v 0.250625 0.560211 1.187299
v -0.250625 0.598259 1.236884
v -0.250625 0.548674 1.274931
v -0.250625 0.560211 1.187299
v -0.250625 0.510626 1.225347
v -0.250625 0.548674 1.274931
v -0.250625 0.598259 1.236884
v -0.250625 0.510626 1.225347
v -0.250625 0.560211 1.187299
v -0.249437 0.904182 1.277159
v -0.249437 0.210891 1.809141
v -0.249437 0.524391 0.782206
v -0.249437 -0.168900 1.314188
v 0.249437 0.210891 1.809141
v 0.249437 0.904182 1.277159
v 0.249437 -0.168900 1.314188
v 0.249437 0.524391 0.782206
v -0.187500 0.936965 0.695658
v -0.187500 0.855387 1.315311
v -0.187500 -0.054480 0.565132
v -0.187500 -0.136058 1.184785
v 0.187500 0.855387 1.315311
v 0.187500 0.936965 0.695658
v 0.187500 -0.136058 1.184785
v 0.187500 -0.054480 0.565132
v 0.000000 1.069926 0.362894
v 0.000000 1.450402 0.858740
v 0.000000 0.375741 0.895560
v 0.000000 0.756217 1.391406
v 0.000000 1.450402 0.858740
v 0.000000 1.069926 0.362894
v 0.000000 0.756217 1.391406
v 0.000000 0.375741 0.895560
vn -0.0000 -0.7934 0.6088
vn -1.0000 -0.0000 -0.0000
vn -0.0000 0.7934 -0.6088
vn 1.0000 -0.0000 -0.0000
vn -0.0000 0.6088 0.7934
vn -0.0000 -0.6088 -0.7934
vn -0.0000 -0.0000 1.0000
vn -0.0000 -0.0000 -1.0000
vn -0.0000 0.7934 -0.6087
vn 0.0002 0.6088 0.7933
vn -0.0002 -0.6087 -0.7934
vn -0.0000 -0.6088 -0.7933
vn -0.0000 -0.1305 0.9914
vn -0.0000 0.1305 -0.9914
vn -0.0000 0.9914 0.1305
vn -0.0000 -0.9914 -0.1305
vn 0.0003 0.6088 0.7933
vn -0.0003 -0.6087 -0.7934
vn -0.0003 0.7934 -0.6087
vt 0.054688 0.390625
vt 0.085938 0.390625
vt 0.085938 0.468750
vt 0.054688 0.468750
vt 0.000000 0.390625
vt 0.000000 0.468750
vt 0.140625 0.390625
vt 0.171875 0.390625
vt 0.171875 0.468750
vt 0.140625 0.468750
vt 0.085938 0.578125
vt 0.054688 0.578125
vt 0.117188 0.468750
vt 0.117188 0.578125
vt 0.007812 0.476562
vt 0.007812 0.484375
vt 0.003906 0.476562
vt 0.003906 0.484375
vt 0.011719 0.476562
vt 0.011719 0.484375
vt 0.007812 0.492188
vt 0.226562 0.000000
vt 0.257812 0.000000
vt 0.257812 0.078125
vt 0.226562 0.078125
vt 0.171875 0.000000
vt 0.171875 0.078125
vt 0.312500 0.000000
vt 0.343750 0.000000
vt 0.343750 0.078125
vt 0.312500 0.078125
vt 0.257812 0.187500
vt 0.226562 0.187500
vt 0.289062 0.078125
vt 0.289062 0.187500
vt 0.039062 0.578125
vt 0.062500 0.578125
vt 0.062500 0.703125
vt 0.039062 0.703125
vt 0.000000 0.578125
vt 0.000000 0.703125
vt 0.101562 0.578125
vt 0.125000 0.578125
vt 0.125000 0.703125
vt 0.101562 0.703125
vt 0.062500 0.781250
vt 0.039062 0.781250
vt 0.085938 0.703125
vt 0.085938 0.781250
vt 0.039062 0.000000
vt 0.039062 0.109375
vt 0.000000 0.000000
vt 0.000000 0.109375
vt 0.078125 0.000000
vt 0.078125 0.109375
vt 0.039062 0.187500
s 0
usemtl none
f 76/68/49 79/69/49 77/70/49 74/71/49
f 75/72/50 76/68/50 74/71/50 73/73/50
f 80/74/51 75/75/51 73/76/51 78/77/51
f 79/69/52 80/74/52 78/77/52 77/70/52
f 78/78/53 73/79/53 74/71/53 77/70/53
f 79/80/54 76/70/54 75/78/54 80/81/54
f 84/82/55 87/82/49 85/83/55 82/83/49
f 83/84/50 84/82/50 82/83/50 81/85/50
f 88/86/56 83/86/57 81/87/56 86/87/57
f 87/82/52 88/86/52 86/87/52 85/83/52
f 86/88/55 81/88/58 82/83/55 85/83/53
f 87/83/56 84/83/59 83/88/56 88/88/60
f 92/82/55 95/82/49 93/83/55 90/83/49
f 91/84/50 92/82/50 90/83/50 89/85/50
f 96/86/56 91/86/57 89/87/56 94/87/57
f 95/82/52 96/86/52 94/87/52 93/83/52
f 94/88/55 89/88/58 90/83/55 93/83/53
f 95/83/56 92/83/59 91/88/56 96/88/60
f 100/89/49 103/90/49 101/91/49 98/92/49
f 99/93/50 100/89/50 98/92/50 97/94/50
f 104/95/51 99/96/51 97/97/51 102/98/51
f 103/90/52 104/95/52 102/98/52 101/91/52
f 102/99/53 97/100/53 98/92/53 101/91/53
f 103/101/54 100/91/54 99/99/54 104/102/54
f 108/103/61 111/104/61 109/105/61 106/106/61
f 107/107/50 108/103/50 106/106/50 105/108/50
f 112/109/62 107/110/62 105/111/62 110/112/62
f 111/104/52 112/109/52 110/112/52 109/105/52
f 110/113/63 105/114/63 106/106/63 109/105/63
f 111/115/64 108/105/64 107/113/64 112/116/64
f 116/117/55 119/117/53 117/118/55 114/118/65
f 115/119/50 116/117/50 114/118/50 113/120/50
f 120/121/56 115/121/66 113/122/56 118/122/60
f 119/117/52 120/121/52 118/122/52 117/118/52
f 118/123/56 113/123/57 114/118/56 117/118/67
f 119/118/55 116/118/49 115/123/55 120/123/49
o Mouth
v -0.349928 0.176822 1.804555
v -0.356881 0.163734 1.865272
v -0.311697 0.059658 1.783677
v -0.318650 0.046570 1.844395
v -0.297784 0.181143 1.875792
v -0.290830 0.194231 1.815075
v -0.259552 0.063979 1.854915
v -0.252599 0.077067 1.794198
v -0.362068 0.122927 1.776282
v -0.346492 0.024473 1.851709
v -0.305695 0.019880 1.630133
v -0.290119 -0.078575 1.705560
v -0.228297 0.059291 1.872749
v -0.243873 0.157745 1.797322
v -0.171924 -0.043756 1.726600
v -0.187500 0.054698 1.651173
v -0.311848 0.054172 1.651672
v -0.311848 0.038003 1.774487
v -0.279485 -0.127801 1.627714
v -0.279485 -0.143970 1.750530
v -0.189855 0.059330 1.777295
v -0.189855 0.075499 1.654479
v -0.157492 -0.122644 1.753337
v -0.157492 -0.106475 1.630522
v 0.290830 0.194231 1.815075
v 0.297784 0.181143 1.875792
v 0.252599 0.077067 1.794198
v 0.259552 0.063979 1.854915
v 0.356881 0.163734 1.865272
v 0.349928 0.176822 1.804555
v 0.318650 0.046570 1.844395
v 0.311697 0.059658 1.783677
v 0.243873 0.157745 1.797322
v 0.228297 0.059291 1.872749
v 0.187500 0.054698 1.651173
v 0.171924 -0.043756 1.726600
v 0.346492 0.024473 1.851709
v 0.362068 0.122927 1.776282
v 0.290119 -0.078575 1.705560
v 0.305695 0.019880 1.630133
v 0.189855 0.075499 1.654479
v 0.189855 0.059330 1.777295
v 0.157492 -0.106475 1.630522
v 0.157492 -0.122644 1.753337
v 0.311848 0.038003 1.774487
v 0.311848 0.054172 1.651672
v 0.279485 -0.143970 1.750530
v 0.279485 -0.127801 1.627714
v -0.312500 0.354804 0.808133
v -0.312500 0.224278 1.799578
v -0.312500 -0.140918 0.742870
v -0.312500 -0.271445 1.734315
v 0.312500 0.224278 1.799578
v 0.312500 0.354804 0.808133
v 0.312500 -0.271445 1.734315
v 0.312500 -0.140918 0.742870
v -0.311938 0.354173 0.808617
v -0.311938 0.223794 1.798947
v -0.311938 -0.140434 0.743501
v -0.311938 -0.270813 1.733830
v 0.311938 0.223794 1.798947
v 0.311938 0.354173 0.808617
v 0.311938 -0.270813 1.733830
v 0.311938 -0.140434 0.743501
v -0.218187 0.329699 0.994513
v -0.218187 0.231951 1.736981
v -0.218187 -0.164908 0.929397
v -0.218187 -0.262656 1.671865
v 0.218187 0.231951 1.736981
v 0.218187 0.329699 0.994513
v 0.218187 -0.262656 1.671865
v 0.218187 -0.164908 0.929397
v -0.218750 0.330330 0.994029
v -0.218750 0.232436 1.737612
v -0.218750 -0.165392 0.928766
v -0.218750 -0.263287 1.672349
v 0.218750 0.232436 1.737612
v 0.218750 0.330330 0.994029
v 0.218750 -0.263287 1.672349
v 0.218750 -0.165392 0.928766
vn -0.1113 -0.2094 0.9715
vn -0.9456 -0.2785 -0.1683
vn 0.1113 0.2094 -0.9715
vn 0.9456 0.2785 0.1683
vn -0.3058 0.9373 0.1670
vn 0.3058 -0.9373 -0.1670
vn 0.1246 -0.7876 0.6034
vn -0.1246 0.7876 -0.6034
vn -0.3007 0.5496 0.7795
vn 0.3007 -0.5496 -0.7795
vn -0.0000 -0.1305 0.9914
vn -0.9848 -0.1722 -0.0227
vn -0.0000 0.1305 -0.9914
vn 0.9848 0.1722 0.0227
vn -0.1736 0.9764 0.1285
vn 0.1736 -0.9764 -0.1285
vn 0.1113 -0.2094 0.9715
vn -0.9456 0.2785 0.1683
vn -0.1113 0.2094 -0.9715
vn 0.9456 -0.2785 -0.1683
vn 0.3058 0.9373 0.1670
vn -0.3058 -0.9373 -0.1670
vn -0.1246 -0.7876 0.6034
vn 0.1246 0.7876 -0.6034
vn 0.3007 0.5496 0.7795
vn -0.3007 -0.5496 -0.7795
vn -0.9848 0.1722 0.0227
vn 0.9848 -0.1722 -0.0227
vn 0.1736 0.9764 0.1285
vn -0.1736 -0.9764 -0.1285
vn -1.0000 -0.0000 -0.0000
vn 1.0000 -0.0000 -0.0000
vn -0.0000 0.9914 0.1305
vn -0.0000 -0.9914 -0.1305
vt 0.003906 0.335938
vt 0.007812 0.335938
vt 0.007812 0.351562
vt 0.003906 0.351562
vt 0.000000 0.335938
vt 0.000000 0.351562
vt 0.011719 0.335938
vt 0.015625 0.335938
vt 0.015625 0.351562
vt 0.011719 0.351562
vt 0.007812 0.359375
vt 0.003906 0.359375
vt 0.011719 0.359375
vt 0.007812 0.296875
vt 0.015625 0.296875
vt 0.015625 0.320312
vt 0.007812 0.320312
vt 0.000000 0.296875
vt 0.000000 0.320312
vt 0.023438 0.296875
vt 0.031250 0.296875
vt 0.031250 0.320312
vt 0.023438 0.320312
vt 0.023438 0.335938
vt 0.046875 0.296875
vt 0.054688 0.296875
vt 0.054688 0.320312
vt 0.046875 0.320312
vt 0.039062 0.296875
vt 0.039062 0.320312
vt 0.062500 0.296875
vt 0.070312 0.296875
vt 0.070312 0.320312
vt 0.062500 0.320312
vt 0.054688 0.335938
vt 0.046875 0.335938
vt 0.062500 0.335938
vt 0.242188 0.328125
vt 0.281250 0.328125
vt 0.281250 0.390625
vt 0.242188 0.390625
vt 0.179688 0.328125
vt 0.179688 0.390625
vt 0.343750 0.328125
vt 0.382812 0.328125
vt 0.382812 0.390625
vt 0.343750 0.390625
vt 0.281250 0.515625
vt 0.242188 0.515625
vt 0.320312 0.390625
vt 0.320312 0.515625
vt 0.406250 0.000000
vt 0.445312 0.000000
vt 0.445312 0.062500
vt 0.406250 0.062500
vt 0.343750 0.000000
vt 0.343750 0.062500
vt 0.507812 0.000000
vt 0.546875 0.000000
vt 0.546875 0.062500
vt 0.507812 0.062500
vt 0.445312 0.187500
vt 0.406250 0.187500
vt 0.484375 0.062500
vt 0.484375 0.187500
vt 0.609375 0.187500
vt 0.636719 0.187500
vt 0.636719 0.250000
vt 0.609375 0.250000
vt 0.562500 0.187500
vt 0.562500 0.250000
vt 0.683594 0.187500
vt 0.710938 0.187500
vt 0.710938 0.250000
vt 0.683594 0.250000
vt 0.636719 0.343750
vt 0.609375 0.343750
vt 0.664062 0.250000
vt 0.664062 0.343750
vt 0.609375 0.000000
vt 0.636719 0.000000
vt 0.636719 0.062500
vt 0.609375 0.062500
vt 0.562500 0.000000
vt 0.562500 0.062500
vt 0.683594 0.000000
vt 0.710938 0.000000
vt 0.710938 0.062500
vt 0.683594 0.062500
vt 0.636719 0.156250
vt 0.609375 0.156250
vt 0.664062 0.062500
vt 0.664062 0.156250
s 0
usemtl none
f 124/124/68 127/125/68 125/126/68 122/127/68
f 123/128/69 124/124/69 122/127/69 121/129/69
f 128/130/70 123/131/70 121/132/70 126/133/70
f 127/125/71 128/130/71 126/133/71 125/126/71
f 126/134/72 121/135/72 122/127/72 125/126/72
f 127/133/73 124/126/73 123/134/73 128/136/73
f 132/137/74 135/138/74 133/139/74 130/140/74
f 131/141/69 132/137/69 130/140/69 129/142/69
f 136/143/75 131/144/75 129/145/75 134/146/75
f 135/138/71 136/143/71 134/146/71 133/139/71
f 134/131/76 129/125/76 130/140/76 133/139/76
f 135/146/77 132/139/77 131/131/77 136/147/77
f 140/148/78 143/149/78 141/150/78 138/151/78
f 139/152/79 140/148/79 138/151/79 137/153/79
f 144/154/80 139/155/80 137/156/80 142/157/80
f 143/149/81 144/154/81 142/157/81 141/150/81
f 142/158/82 137/159/82 138/151/82 141/150/82
f 143/157/83 140/150/83 139/158/83 144/160/83
f 148/125/84 151/124/84 149/127/84 146/126/84
f 147/130/85 148/125/85 146/126/85 145/133/85
f 152/131/86 147/130/86 145/133/86 150/132/86
f 151/124/87 152/128/87 150/129/87 149/127/87
f 150/135/88 145/134/88 146/126/88 149/127/88
f 151/126/89 148/133/89 147/136/89 152/134/89
f 156/138/90 159/137/90 157/140/90 154/139/90
f 155/143/85 156/138/85 154/139/85 153/146/85
f 160/144/91 155/143/91 153/146/91 158/145/91
f 159/137/87 160/141/87 158/142/87 157/140/87
f 158/125/92 153/131/92 154/139/92 157/140/92
f 159/139/93 156/146/93 155/147/93 160/131/93
f 164/149/78 167/148/78 165/151/78 162/150/78
f 163/154/94 164/149/94 162/150/94 161/157/94
f 168/155/80 163/154/80 161/157/80 166/156/80
f 167/148/95 168/152/95 166/153/95 165/151/95
f 166/159/96 161/158/96 162/150/96 165/151/96
f 167/150/97 164/157/97 163/160/97 168/158/97
f 172/161/78 175/162/78 173/163/78 170/164/78
f 171/165/98 172/161/98 170/164/98 169/166/98
f 176/167/80 171/168/80 169/169/80 174/170/80
f 175/162/99 176/167/99 174/170/99 173/163/99
f 174/171/100 169/172/100 170/164/100 173/163/100
f 175/173/101 172/163/101 171/171/101 176/174/101
f 180/175/78 183/176/78 181/177/78 178/178/78
f 179/179/98 180/175/98 178/178/98 177/180/98
f 184/181/80 179/182/80 177/183/80 182/184/80
f 183/176/99 184/181/99 182/184/99 181/177/99
f 182/185/100 177/186/100 178/178/100 181/177/100
f 183/187/101 180/177/101 179/185/101 184/188/101
f 188/189/78 191/190/78 189/191/78 186/192/78
f 187/193/98 188/189/98 186/192/98 185/194/98
f 192/195/80 187/196/80 185/197/80 190/198/80
f 191/190/99 192/195/99 190/198/99 189/191/99
f 190/199/100 185/200/100 186/192/100 189/191/100
f 191/201/101 188/191/101 187/199/101 192/202/101
f 196/203/78 199/204/78 197/205/78 194/206/78
f 195/207/98 196/203/98 194/206/98 193/208/98
f 200/209/80 195/210/80 193/211/80 198/212/80
f 199/204/99 200/209/99 198/212/99 197/205/99
f 198/213/100 193/214/100 194/206/100 197/205/100
f 199/215/101 196/205/101 195/213/101 200/216/101
