# Blender v3.0.0 OBJ File: 'ghoul.blend'
# www.blender.org
mtllib ghoul.mtl
o Body
v 0.121742 0.951888 0.019460
v 0.121742 0.897179 0.006386
v 0.121742 0.899592 0.238298
v 0.121742 0.844883 0.225224
v 0.346742 0.899592 0.238298
v 0.346742 0.844883 0.225224
v 0.346742 0.951888 0.019460
v 0.346742 0.897179 0.006386
v 0.121742 0.855543 -0.061398
v 0.121742 0.800834 -0.074472
v 0.121742 0.790173 0.212150
v 0.121742 0.735464 0.199076
v 0.402992 0.790173 0.212150
v 0.402992 0.735464 0.199076
v 0.402992 0.855543 -0.061398
v 0.402992 0.800834 -0.074472
v -0.227008 1.326387 -0.047197
v -0.227008 0.647989 -0.209315
v -0.227008 1.255787 0.248234
v -0.227008 0.577389 0.086117
v 0.245492 1.255787 0.248234
v 0.245492 0.577389 0.086117
v 0.245492 1.326387 -0.047197
v 0.245492 0.647989 -0.209315
v -0.215758 1.312830 -0.038870
v -0.215758 0.656316 -0.195758
v -0.215758 1.247460 0.234678
v -0.215758 0.590946 0.077789
v 0.234242 1.247460 0.234678
v 0.234242 0.590946 0.077789
v 0.234242 1.312830 -0.038870
v 0.234242 0.656316 -0.195758
vt 0.304688 0.867188
vt 0.242188 0.867188
vt 0.242188 0.960938
vt 0.304688 0.960938
vt 0.742188 0.640625
vt 0.703125 0.640625
vt 0.703125 0.648438
vt 0.742188 0.648438
vt 0.039062 0.867188
vt 0.000000 0.867188
vt 0.000000 0.960938
vt 0.039062 0.960938
vt 0.101562 0.960938
vt 0.164062 0.960938
vt 0.164062 1.000000
vt 0.101562 1.000000
vt 0.406250 0.867188
vt 0.343750 0.867188
vt 0.343750 0.960938
vt 0.406250 0.960938
vt 0.664062 0.640625
vt 0.664062 0.648438
vt 0.625000 0.640625
vt 0.625000 0.648438
vt 0.101562 0.867188
vt 0.101562 0.960938
vt 0.664062 0.687500
vt 0.703125 0.687500
vt 0.140625 0.867188
vt 0.140625 0.960938
vt 0.703125 0.648438
vt 0.742188 0.648438
vt 0.742188 0.687500
vt 0.703125 0.687500
vt 0.203125 0.867188
vt 0.203125 0.960938
vt 0.781250 0.640625
vt 0.781250 0.648438
vt 0.750000 0.687500
vt 0.718750 0.687500
vt 0.718750 0.695312
vt 0.750000 0.695312
vt 0.242188 1.000000
vt 0.304688 1.000000
vt 0.687500 0.687500
vt 0.656250 0.687500
vt 0.656250 0.695312
vt 0.687500 0.695312
vt 0.687500 0.726562
vt 0.718750 0.726562
vt 0.781250 0.687500
vt 0.781250 0.695312
vt 0.304688 0.960938
vt 0.367188 0.960938
vt 0.367188 1.000000
vt 0.304688 1.000000
vt 0.039062 1.000000
vt 0.101562 1.000000
vt 0.718750 0.695312
vt 0.750000 0.695312
vt 0.750000 0.726562
vt 0.718750 0.726562
vt 0.203125 0.867188
vt 0.203125 0.960938
vn 0.0000 -0.2324 0.9726
vn -1.0000 -0.0000 0.0000
vn 1.0000 0.0000 -0.0000
vn -0.0000 -0.9726 -0.2324
vn -0.0000 0.2324 -0.9726
vn 0.0000 0.9726 0.2324
usemtl m_2
s 1
f 20/1/1 22/2/1 21/3/1 19/4/1
f 10/5/2 12/6/2 11/7/2 9/8/2
f 30/9/3 32/10/3 31/11/3 29/12/3
f 30/13/4 28/14/4 26/15/4 32/16/4
f 24/17/5 18/18/5 17/19/5 23/20/5
f 12/6/1 14/21/1 13/22/1 11/7/1
f 14/21/3 16/23/3 15/24/3 13/22/3
f 28/25/1 30/9/1 29/12/1 27/26/1
f 15/27/6 9/28/6 11/7/6 13/22/6
f 26/29/2 28/25/2 27/26/2 25/30/2
f 14/31/4 12/32/4 10/33/4 16/34/4
f 22/2/3 24/35/3 23/36/3 21/3/3
f 16/37/5 10/5/5 9/8/5 15/38/5
f 2/39/2 4/40/2 3/41/2 1/42/2
f 23/43/6 17/44/6 19/4/6 21/3/6
f 6/45/3 8/46/3 7/47/3 5/48/3
f 7/49/6 1/50/6 3/41/6 5/48/6
f 8/51/5 2/39/5 1/42/5 7/52/5
f 18/18/2 20/1/2 19/4/2 17/19/2
f 22/53/4 20/54/4 18/55/4 24/56/4
f 31/57/6 25/58/6 27/26/6 29/12/6
f 4/40/1 6/45/1 5/48/1 3/41/1
f 6/59/4 4/60/4 2/61/4 8/62/4
f 32/63/5 26/29/5 25/30/5 31/64/5
o Head
v -0.328258 1.396032 0.512513
v -0.328258 1.339782 0.512513
v -0.328258 1.396032 0.737513
v -0.328258 1.339782 0.737513
v -0.103258 1.396032 0.737513
v -0.103258 1.339782 0.737513
v -0.103258 1.396032 0.512513
v -0.103258 1.339782 0.512513
v -0.384508 1.508532 0.512513
v -0.384508 1.452282 0.512513
v -0.384508 1.508532 0.793763
v -0.384508 1.452282 0.793763
v -0.103258 1.508532 0.793763
v -0.103258 1.452282 0.793763
v -0.103258 1.508532 0.512513
v -0.103258 1.452282 0.512513
v 0.065492 1.452282 0.062513
v 0.065492 1.396032 0.062513
v 0.065492 1.452282 0.343763
v 0.065492 1.396032 0.343763
v 0.346742 1.452282 0.343763
v 0.346742 1.396032 0.343763
v 0.346742 1.452282 0.062513
v 0.346742 1.396032 0.062513
v -0.227008 1.547907 0.163763
v -0.227008 1.075407 0.163763
v -0.227008 1.547907 0.636263
v -0.227008 1.075407 0.636263
v 0.245492 1.547907 0.636263
v 0.245492 1.075407 0.636263
v 0.245492 1.547907 0.163763
v 0.245492 1.075407 0.163763
v -0.215758 1.092282 0.175013
v -0.215758 0.867282 0.175013
v -0.215758 1.092282 0.625013
v -0.215758 0.867282 0.625013
v 0.234242 1.092282 0.625013
v 0.234242 0.867282 0.625013
v 0.234242 1.092282 0.175013
v 0.234242 0.867282 0.175013
v -0.215758 1.542282 0.175013
v -0.215758 1.092282 0.175013
v -0.215758 1.542282 0.625013
v -0.215758 1.092282 0.625013
v 0.234242 1.542282 0.625013
v 0.234242 1.092282 0.625013
v 0.234242 1.542282 0.175013
v 0.234242 1.092282 0.175013
vt 0.187500 0.398438
vt 0.125000 0.398438
vt 0.125000 0.429688
vt 0.187500 0.429688
vt 0.781250 0.640625
vt 0.742188 0.640625
vt 0.742188 0.648438
vt 0.781250 0.648438
vt 0.703125 0.648438
vt 0.742188 0.648438
vt 0.742188 0.687500
vt 0.703125 0.687500
vt 0.742188 0.640625
vt 0.703125 0.640625
vt 0.703125 0.648438
vt 0.742188 0.648438
vt 0.781250 0.640625
vt 0.781250 0.648438
vt 0.687500 0.687500
vt 0.656250 0.687500
vt 0.656250 0.695312
vt 0.687500 0.695312
vt 0.750000 0.687500
vt 0.718750 0.687500
vt 0.718750 0.695312
vt 0.750000 0.695312
vt 0.664062 0.687500
vt 0.703125 0.687500
vt 0.664062 0.648438
vt 0.062500 0.398438
vt 0.062500 0.429688
vt 0.781250 0.687500
vt 0.781250 0.695312
vt 0.664062 0.640625
vt 0.625000 0.640625
vt 0.625000 0.648438
vt 0.664062 0.640625
vt 0.625000 0.640625
vt 0.625000 0.648438
vt 0.664062 0.648438
vt 0.125000 0.492188
vt 0.062500 0.492188
vt 0.062500 0.554688
vt 0.125000 0.554688
vt 0.000000 0.398438
vt 0.000000 0.429688
vt 0.062500 0.617188
vt 0.125000 0.617188
vt 0.375000 0.554688
vt 0.437500 0.554688
vt 0.437500 0.617188
vt 0.375000 0.617188
vt 0.664062 0.687500
vt 0.703125 0.687500
vt 0.703125 0.648438
vt 0.437500 0.492188
vt 0.375000 0.492188
vt 0.375000 0.554688
vt 0.437500 0.554688
vt 0.718750 0.695312
vt 0.750000 0.695312
vt 0.750000 0.726562
vt 0.718750 0.726562
vt 0.687500 0.726562
vt 0.718750 0.726562
vt 0.000000 0.492188
vt 0.000000 0.554688
vt 0.703125 0.640625
vt 0.312500 0.492188
vt 0.250000 0.492188
vt 0.250000 0.554688
vt 0.312500 0.554688
vt 0.125000 0.554688
vt 0.187500 0.554688
vt 0.187500 0.617188
vt 0.125000 0.617188
vt 0.703125 0.648438
vt 0.742188 0.648438
vt 0.742188 0.687500
vt 0.703125 0.687500
vt 0.250000 0.492188
vt 0.187500 0.492188
vt 0.187500 0.554688
vt 0.250000 0.554688
vt 0.312500 0.617188
vt 0.375000 0.617188
vt 0.500000 0.492188
vt 0.500000 0.554688
vt 0.125000 0.429688
vt 0.187500 0.429688
vt 0.187500 0.492188
vt 0.125000 0.492188
vt 0.062500 0.492188
vt 0.125000 0.492188
vt 0.250000 0.398438
vt 0.250000 0.429688
vn -1.0000 0.0000 0.0000
vn -0.0000 -0.0000 -1.0000
vn 0.0000 -1.0000 0.0000
vn 1.0000 0.0000 -0.0000
vn 0.0000 1.0000 0.0000
vn 0.0000 0.0000 1.0000
usemtl m_2
s 1
f 66/65/7 68/66/7 67/67/7 65/68/7
f 48/69/8 42/70/8 41/71/8 47/72/8
f 46/73/9 44/74/9 42/75/9 48/76/9
f 50/77/7 52/78/7 51/79/7 49/80/7
f 56/81/8 50/77/8 49/80/8 55/82/8
f 38/83/10 40/84/10 39/85/10 37/86/10
f 34/87/7 36/88/7 35/89/7 33/90/7
f 55/91/11 49/92/11 51/79/11 53/93/11
f 68/66/12 70/94/12 69/95/12 67/67/12
f 40/96/8 34/87/8 33/90/8 39/97/8
f 36/88/12 38/83/12 37/86/12 35/89/12
f 54/98/10 56/99/10 55/100/10 53/93/10
f 46/101/10 48/102/10 47/103/10 45/104/10
f 76/105/12 78/106/12 77/107/12 75/108/12
f 70/94/10 72/109/10 71/110/10 69/95/10
f 52/78/12 54/98/12 53/93/12 51/79/12
f 79/111/11 73/112/11 75/108/11 77/107/11
f 62/113/9 60/114/9 58/115/9 64/116/9
f 47/117/11 41/118/11 43/119/11 45/104/11
f 58/120/7 60/121/7 59/122/7 57/123/7
f 38/124/9 36/125/9 34/126/9 40/127/9
f 39/128/11 33/129/11 35/89/11 37/86/11
f 78/106/10 80/130/10 79/131/10 77/107/10
f 42/70/7 44/132/7 43/119/7 41/71/7
f 62/133/10 64/134/10 63/135/10 61/136/10
f 78/137/9 76/138/9 74/139/9 80/140/9
f 54/141/9 52/142/9 50/143/9 56/144/9
f 80/145/8 74/146/8 73/147/8 79/148/8
f 63/149/11 57/150/11 59/122/11 61/136/11
f 60/121/12 62/133/12 61/136/12 59/122/12
f 64/151/8 58/120/8 57/123/8 63/152/8
f 70/153/9 68/154/9 66/155/9 72/156/9
f 44/132/12 46/101/12 45/104/12 43/119/12
f 71/157/11 65/158/11 67/67/11 69/95/11
f 74/146/7 76/105/7 75/108/7 73/147/7
f 72/159/8 66/65/8 65/68/8 71/160/8
o LeftArm
v 0.198197 0.996591 -0.010525
v 0.372945 0.878789 0.713163
v 0.194104 1.240683 0.030197
v 0.368852 1.122881 0.753885
v 0.380116 1.251015 -0.013038
v 0.554864 1.133213 0.710651
v 0.384209 1.006922 -0.053759
v 0.558957 0.889120 0.669929
v 0.215282 0.784633 -0.037436
v 0.384813 0.670347 0.664650
v 0.211561 1.006535 -0.000416
v 0.381092 0.892250 0.701670
v 0.375689 1.015651 -0.038564
v 0.545221 0.901366 0.663522
v 0.379410 0.793749 -0.075584
v 0.548942 0.679464 0.626502
v 0.211561 1.006535 -0.000416
v 0.381092 0.892250 0.701670
v 0.207840 1.228438 0.036604
v 0.377372 1.114152 0.738690
v 0.371969 1.237554 -0.001544
v 0.541500 1.123268 0.700542
v 0.375689 1.015651 -0.038564
v 0.545221 0.901366 0.663522
vt 0.734375 0.726562
vt 0.710938 0.726562
vt 0.710938 0.828125
vt 0.734375 0.828125
vt 0.570312 0.828125
vt 0.593750 0.828125
vt 0.593750 0.859375
vt 0.570312 0.859375
vt 0.601562 0.726562
vt 0.570312 0.726562
vt 0.570312 0.828125
vt 0.601562 0.828125
vt 0.656250 0.726562
vt 0.625000 0.726562
vt 0.625000 0.828125
vt 0.656250 0.828125
vt 0.437500 0.859375
vt 0.460938 0.859375
vt 0.460938 0.828125
vt 0.437500 0.828125
vt 0.546875 0.859375
vt 0.570312 0.859375
vt 0.546875 0.828125
vt 0.437500 0.726562
vt 0.406250 0.726562
vt 0.406250 0.828125
vt 0.656250 0.859375
vt 0.679688 0.859375
vt 0.679688 0.828125
vt 0.625000 0.726562
vt 0.625000 0.828125
vt 0.515625 0.726562
vt 0.492188 0.726562
vt 0.492188 0.828125
vt 0.515625 0.828125
vt 0.546875 0.726562
vt 0.515625 0.726562
vt 0.515625 0.828125
vt 0.460938 0.828125
vt 0.484375 0.828125
vt 0.484375 0.859375
vt 0.460938 0.859375
vt 0.679688 0.828125
vt 0.703125 0.828125
vt 0.703125 0.859375
vt 0.679688 0.859375
vt 0.679688 0.726562
vt 0.460938 0.726562
vn 0.0165 -0.9862 -0.1645
vn 0.2318 -0.1563 0.9601
vn -0.9726 -0.0540 0.2261
vn 0.9726 0.0540 -0.2261
vn -0.2318 0.1563 -0.9601
vn -0.0165 0.9862 0.1645
usemtl m_2
s 1
f 96/161/13 90/162/13 89/163/13 95/164/13
f 86/165/14 84/166/14 82/167/14 88/168/14
f 82/169/15 84/170/15 83/171/15 81/172/15
f 94/173/16 96/174/16 95/175/16 93/176/16
f 103/177/17 97/178/17 99/179/17 101/180/17
f 87/181/17 81/182/17 83/171/17 85/183/17
f 102/184/16 104/185/16 103/186/16 101/180/16
f 95/187/17 89/188/17 91/189/17 93/176/17
f 88/190/13 82/169/13 81/172/13 87/191/13
f 104/192/13 98/193/13 97/194/13 103/195/13
f 86/196/16 88/197/16 87/198/16 85/183/16
f 102/199/14 100/200/14 98/201/14 104/202/14
f 84/170/18 86/196/18 85/183/18 83/171/18
f 94/203/14 92/204/14 90/205/14 96/206/14
f 90/162/15 92/207/15 91/189/15 89/163/15
f 92/207/18 94/173/18 93/176/18 91/189/18
f 98/193/15 100/208/15 99/179/15 97/194/15
f 100/208/18 102/184/18 101/180/18 99/179/18
o RightArm
v -0.368208 0.996192 -0.045644
v -0.554377 0.932385 0.740085
v -0.359646 1.242561 -0.023608
v -0.545814 1.178753 0.762121
v -0.173633 1.232229 0.019626
v -0.359802 1.168422 0.805355
v -0.182196 0.985861 -0.002409
v -0.368364 0.922053 0.783320
v -0.367247 0.781926 -0.051218
v -0.548244 0.719891 0.712685
v -0.359463 1.005897 -0.031186
v -0.540460 0.943862 0.732717
v -0.195334 0.996781 0.006962
v -0.376331 0.934746 0.770865
v -0.203118 0.772810 -0.013071
v -0.384115 0.710774 0.750832
v -0.359463 1.005897 -0.031186
v -0.540460 0.943862 0.732717
v -0.351678 1.229868 -0.011153
v -0.532676 1.167833 0.752750
v -0.187550 1.220752 0.026994
v -0.368547 1.158717 0.790898
v -0.195334 0.996781 0.006962
v -0.376331 0.934746 0.770865
vt 0.734375 0.859375
vt 0.710938 0.859375
vt 0.710938 0.968750
vt 0.734375 0.968750
vt 0.656250 0.859375
vt 0.625000 0.859375
vt 0.625000 0.968750
vt 0.656250 0.968750
vt 0.601562 0.859375
vt 0.570312 0.859375
vt 0.570312 0.968750
vt 0.601562 0.968750
vt 0.656250 1.000000
vt 0.679688 1.000000
vt 0.679688 0.968750
vt 0.546875 0.859375
vt 0.546875 0.968750
vt 0.570312 0.968750
vt 0.593750 0.968750
vt 0.593750 1.000000
vt 0.570312 1.000000
vt 0.679688 0.968750
vt 0.703125 0.968750
vt 0.703125 1.000000
vt 0.679688 1.000000
vt 0.679688 0.859375
vt 0.437500 0.859375
vt 0.406250 0.859375
vt 0.406250 0.968750
vt 0.437500 0.968750
vt 0.492188 0.859375
vt 0.460938 0.859375
vt 0.460938 0.968750
vt 0.492188 0.968750
vt 0.515625 0.859375
vt 0.515625 0.968750
vt 0.515625 0.859375
vt 0.515625 0.968750
vt 0.460938 0.968750
vt 0.484375 0.968750
vt 0.484375 1.000000
vt 0.460938 1.000000
vt 0.625000 0.859375
vt 0.625000 0.968750
vt 0.437500 1.000000
vt 0.460938 1.000000
vt 0.546875 1.000000
vt 0.570312 1.000000
vn -0.0346 -0.9954 -0.0890
vn 0.9726 -0.0540 0.2261
vn -0.9726 0.0540 -0.2261
vn 0.2298 0.0788 -0.9700
vn 0.0346 0.9954 0.0890
vn -0.2298 -0.0788 0.9700
usemtl m_2
s 1
f 120/209/19 114/210/19 113/211/19 119/212/19
f 118/213/20 120/214/20 119/215/20 117/216/20
f 106/217/21 108/218/21 107/219/21 105/220/21
f 119/221/22 113/222/22 115/223/22 117/216/22
f 108/218/23 110/224/23 109/225/23 107/219/23
f 110/226/24 108/227/24 106/228/24 112/229/24
f 118/230/24 116/231/24 114/232/24 120/233/24
f 114/210/21 116/234/21 115/223/21 113/211/21
f 116/234/23 118/213/23 117/216/23 115/223/23
f 126/235/20 128/236/20 127/237/20 125/238/20
f 122/239/21 124/240/21 123/241/21 121/242/21
f 128/243/19 122/239/19 121/242/19 127/244/19
f 110/224/20 112/245/20 111/246/20 109/225/20
f 126/247/24 124/248/24 122/249/24 128/250/24
f 124/240/23 126/235/23 125/238/23 123/241/23
f 112/251/19 106/217/19 105/220/19 111/252/19
f 127/253/22 121/254/22 123/241/22 125/238/22
f 111/255/22 105/256/22 107/219/22 109/225/22
o LeftLeg
v 0.059867 0.448304 -0.075445
v 0.059867 0.392441 -0.068863
v 0.059867 0.474633 0.148009
v 0.059867 0.418770 0.154592
v 0.284867 0.474633 0.148009
v 0.284867 0.418770 0.154591
v 0.284867 0.448304 -0.075445
v 0.284867 0.392441 -0.068863
v -0.007633 0.675032 -0.170127
v -0.007633 -0.017676 -0.088507
v -0.007633 0.703994 0.075673
v -0.007633 0.011286 0.157293
v 0.239867 0.703994 0.075673
v 0.239867 0.011286 0.157293
v 0.239867 0.675032 -0.170127
v 0.239867 -0.017676 -0.088507
v 0.003617 0.665176 -0.157637
v 0.003617 -0.005187 -0.078651
v 0.003617 0.691505 0.065817
v 0.003617 0.021143 0.144804
v 0.228617 0.691505 0.065817
v 0.228617 0.021143 0.144804
v 0.228617 0.665176 -0.157638
v 0.228617 -0.005187 -0.078651
vt 0.093750 0.617188
vt 0.062500 0.617188
vt 0.062500 0.710938
vt 0.093750 0.710938
vt 0.156250 0.742188
vt 0.187500 0.742188
vt 0.187500 0.710938
vt 0.156250 0.710938
vt 0.031250 0.617188
vt 0.000000 0.617188
vt 0.000000 0.710938
vt 0.031250 0.710938
vt 0.687500 0.687500
vt 0.656250 0.687500
vt 0.656250 0.695312
vt 0.687500 0.695312
vt 0.718750 0.695312
vt 0.750000 0.695312
vt 0.750000 0.726562
vt 0.718750 0.726562
vt 0.718750 0.687500
vt 0.718750 0.695312
vt 0.750000 0.687500
vt 0.750000 0.695312
vt 0.218750 0.617188
vt 0.187500 0.617188
vt 0.218750 0.710938
vt 0.687500 0.726562
vt 0.718750 0.726562
vt 0.156250 0.617188
vt 0.125000 0.617188
vt 0.125000 0.710938
vt 0.781250 0.687500
vt 0.781250 0.695312
vt 0.250000 0.617188
vt 0.250000 0.710938
vt 0.031250 0.742188
vt 0.062500 0.742188
vt 0.062500 0.710938
vt 0.093750 0.710938
vt 0.093750 0.742188
vt 0.062500 0.742188
vt 0.187500 0.710938
vt 0.218750 0.710938
vt 0.218750 0.742188
vt 0.187500 0.742188
vt 0.125000 0.617188
vt 0.125000 0.710938
vn -1.0000 0.0000 0.0000
vn -0.0000 0.9931 -0.1170
vn 1.0000 0.0000 -0.0000
vn 0.0000 -0.9931 0.1170
vn 0.0000 0.1170 0.9931
vn -0.0000 -0.1170 -0.9931
usemtl m_2
s 1
f 146/257/25 148/258/25 147/259/25 145/260/25
f 143/261/26 137/262/26 139/263/26 141/264/26
f 150/265/27 152/266/27 151/267/27 149/268/27
f 134/269/27 136/270/27 135/271/27 133/272/27
f 134/273/28 132/274/28 130/275/28 136/276/28
f 132/277/29 134/269/29 133/272/29 131/278/29
f 130/279/25 132/277/25 131/278/25 129/280/25
f 138/281/25 140/282/25 139/263/25 137/283/25
f 135/284/26 129/285/26 131/278/26 133/272/26
f 142/286/27 144/287/27 143/288/27 141/264/27
f 148/258/29 150/265/29 149/268/29 147/259/29
f 136/289/30 130/279/30 129/280/30 135/290/30
f 144/291/30 138/281/30 137/283/30 143/292/30
f 140/282/29 142/286/29 141/264/29 139/263/29
f 151/293/26 145/294/26 147/259/26 149/268/26
f 150/295/28 148/296/28 146/297/28 152/298/28
f 142/299/28 140/300/28 138/301/28 144/302/28
f 152/303/30 146/257/30 145/260/30 151/304/30
o RightLeg
v -0.378883 0.267619 -0.133634
v -0.378883 0.211541 -0.138028
v -0.378883 0.245651 0.146757
v -0.378883 0.189572 0.142363
v -0.097633 0.245651 0.146757
v -0.097633 0.189572 0.142363
v -0.097633 0.267619 -0.133634
v -0.097633 0.211541 -0.138028
v -0.294508 0.418799 -0.262845
v -0.294508 0.362721 -0.267239
v -0.294508 0.401224 -0.038533
v -0.294508 0.345146 -0.042926
v -0.069508 0.401224 -0.038533
v -0.069508 0.345146 -0.042926
v -0.069508 0.418799 -0.262845
v -0.069508 0.362721 -0.267239
v -0.221383 0.704693 -0.167096
v -0.221383 0.009325 -0.221578
v -0.221383 0.685361 0.079648
v -0.221383 -0.010008 0.025165
v 0.026117 0.685361 0.079648
v 0.026117 -0.010008 0.025165
v 0.026117 0.704693 -0.167096
v 0.026117 0.009325 -0.221579
v -0.210133 0.692599 -0.156759
v -0.210133 0.019661 -0.209484
v -0.210133 0.675024 0.067553
v -0.210133 0.002086 0.014828
v 0.014867 0.675024 0.067553
v 0.014867 0.002086 0.014828
v 0.014867 0.692599 -0.156759
v 0.014867 0.019661 -0.209484
vt 0.781250 0.640625
vt 0.742188 0.640625
vt 0.742188 0.648438
vt 0.781250 0.648438
vt 0.703125 0.640625
vt 0.703125 0.648438
vt 0.703125 0.648438
vt 0.742188 0.648438
vt 0.742188 0.687500
vt 0.703125 0.687500
vt 0.125000 0.742188
vt 0.093750 0.742188
vt 0.093750 0.835938
vt 0.125000 0.835938
vt 0.750000 0.687500
vt 0.718750 0.687500
vt 0.718750 0.695312
vt 0.750000 0.695312
vt 0.687500 0.687500
vt 0.687500 0.695312
vt 0.656250 0.687500
vt 0.656250 0.695312
vt 0.664062 0.687500
vt 0.703125 0.687500
vt 0.664062 0.648438
vt 0.156250 0.867188
vt 0.187500 0.867188
vt 0.187500 0.835938
vt 0.156250 0.835938
vt 0.031250 0.742188
vt 0.000000 0.742188
vt 0.000000 0.835938
vt 0.031250 0.835938
vt 0.781250 0.687500
vt 0.781250 0.695312
vt 0.187500 0.742188
vt 0.156250 0.742188
vt 0.062500 0.742188
vt 0.062500 0.835938
vt 0.062500 0.835938
vt 0.093750 0.835938
vt 0.093750 0.867188
vt 0.062500 0.867188
vt 0.125000 0.742188
vt 0.125000 0.835938
vt 0.250000 0.742188
vt 0.218750 0.742188
vt 0.218750 0.835938
vt 0.250000 0.835938
vt 0.687500 0.726562
vt 0.718750 0.726562
vt 0.187500 0.835938
vt 0.218750 0.835938
vt 0.218750 0.867188
vt 0.187500 0.867188
vt 0.664062 0.640625
vt 0.625000 0.640625
vt 0.625000 0.648438
vt 0.718750 0.695312
vt 0.750000 0.695312
vt 0.750000 0.726562
vt 0.718750 0.726562
vt 0.031250 0.867188
vt 0.062500 0.867188
vn -0.0000 0.0781 -0.9969
vn -1.0000 0.0000 0.0000
vn -0.0000 -0.9969 -0.0781
vn 0.0000 -0.0781 0.9969
vn 1.0000 0.0000 -0.0000
vn 0.0000 0.9969 0.0781
usemtl m_2
s 1
f 160/305/31 154/306/31 153/307/31 159/308/31
f 154/306/32 156/309/32 155/310/32 153/307/32
f 158/311/33 156/312/33 154/313/33 160/314/33
f 184/315/31 178/316/31 177/317/31 183/318/31
f 162/319/32 164/320/32 163/321/32 161/322/32
f 164/320/34 166/323/34 165/324/34 163/321/34
f 166/323/35 168/325/35 167/326/35 165/324/35
f 159/327/36 153/328/36 155/310/36 157/329/36
f 175/330/36 169/331/36 171/332/36 173/333/36
f 182/334/35 184/335/35 183/336/35 181/337/35
f 168/338/31 162/319/31 161/322/31 167/339/31
f 172/340/34 174/341/34 173/333/34 171/332/34
f 180/342/34 182/334/34 181/337/34 179/343/34
f 178/316/32 180/342/32 179/343/32 177/317/32
f 182/344/33 180/345/33 178/346/33 184/347/33
f 174/341/35 176/348/35 175/349/35 173/333/35
f 176/350/31 170/351/31 169/352/31 175/353/31
f 167/354/36 161/355/36 163/321/36 165/324/36
f 174/356/33 172/357/33 170/358/33 176/359/33
f 158/360/35 160/361/35 159/362/35 157/329/35
f 166/363/33 164/364/33 162/365/33 168/366/33
f 183/367/36 177/368/36 179/343/36 181/337/36
f 156/309/34 158/360/34 157/329/34 155/310/34
f 170/351/32 172/340/32 171/332/32 169/352/32
