# Blender v3.0.0 OBJ File: 'gorgomite.blend'
# www.blender.org
mtllib gorgomite.mtl
o Body
v -0.369731 0.240909 0.441093
v -0.369731 0.677192 0.441093
v -0.369731 0.240909 -0.441093
v -0.369731 0.677192 -0.441093
v 0.369731 0.240909 0.441093
v 0.369731 0.677192 0.441093
v 0.369731 0.240909 -0.441093
v 0.369731 0.677192 -0.441093
v -0.259107 0.272537 -0.440761
v -0.259107 0.578284 -0.440761
v -0.259107 0.272537 -0.608627
v -0.259107 0.578284 -0.608627
v 0.259107 0.272537 -0.440761
v 0.259107 0.578284 -0.440761
v 0.259107 0.272537 -0.608627
v 0.259107 0.578284 -0.608627
vt 0.078125 0.718750
vt 0.000000 0.718750
vt 0.000000 0.437500
vt 0.078125 0.437500
vt 0.078125 0.281250
vt 0.203125 0.281250
vt 0.203125 0.437500
vt 0.265625 0.437500
vt 0.265625 0.718750
vt 0.203125 0.718750
vt 0.203125 0.875000
vt 0.078125 0.875000
vt 0.078125 0.000000
vt 0.203125 0.000000
vt 0.203125 0.156250
vt 0.203125 0.062500
vt 0.234375 0.062500
vt 0.234375 0.156250
vt 0.281250 0.156250
vt 0.281250 0.343750
vt 0.234375 0.343750
vt 0.234375 0.437500
vt 0.203125 0.437500
vt 0.203125 0.343750
vt 0.312500 0.156250
vt 0.312500 0.343750
vn -1.0000 0.0000 0.0000
vn 0.0000 0.0000 -1.0000
vn 1.0000 0.0000 0.0000
vn 0.0000 0.0000 1.0000
vn 0.0000 -1.0000 0.0000
vn 0.0000 1.0000 0.0000
usemtl Material
s off
f 1/1/1 2/2/1 4/3/1 3/4/1
f 3/4/2 4/5/2 8/6/2 7/7/2
f 7/7/3 8/8/3 6/9/3 5/10/3
f 5/10/4 6/11/4 2/12/4 1/1/4
f 3/4/5 7/7/5 5/10/5 1/1/5
f 8/6/6 4/5/6 2/13/6 6/14/6
f 9/15/1 10/16/1 12/17/1 11/18/1
f 11/18/2 12/19/2 16/20/2 15/21/2
f 15/21/3 16/22/3 14/23/3 13/24/3
f 11/18/5 15/21/5 13/24/5 9/15/5
f 16/20/6 12/19/6 10/25/6 14/26/6
o Head
v -0.259107 0.272537 0.689257
v -0.259107 0.578284 0.689257
v -0.259107 0.272537 0.436773
v -0.259107 0.578284 0.436773
v 0.259107 0.272537 0.689257
v 0.259107 0.578284 0.689257
v 0.259107 0.272537 0.436773
v 0.259107 0.578284 0.436773
vt 0.312500 0.093750
vt 0.250000 0.093750
vt 0.250000 0.000000
vt 0.312500 0.000000
vt 0.406250 0.000000
vt 0.468750 0.000000
vt 0.468750 0.093750
vt 0.406250 0.093750
vt 0.406250 0.218750
vt 0.312500 0.218750
vt 0.406250 0.312500
vt 0.312500 0.312500
vn -1.0000 0.0000 0.0000
vn 1.0000 0.0000 0.0000
vn 0.0000 0.0000 1.0000
vn 0.0000 -1.0000 0.0000
vn 0.0000 1.0000 0.0000
usemtl Material
s off
f 17/27/7 18/28/7 20/29/7 19/30/7
f 23/31/8 24/32/8 22/33/8 21/34/8
f 21/34/9 22/35/9 18/36/9 17/27/9
f 19/30/10 23/31/10 21/34/10 17/27/10
f 24/37/11 20/38/11 18/36/11 22/35/11
o LeftMouth
v 0.270109 0.322467 0.815083
v 0.270109 0.656971 0.815083
v 0.270109 0.322467 0.670493
v 0.270109 0.656971 0.670493
v 0.125519 0.322467 0.815083
v 0.125519 0.656971 0.815083
v 0.125519 0.322467 0.670493
v 0.125519 0.656971 0.670493
v 0.249488 0.113462 0.738437
v 0.249488 0.349523 0.798536
v 0.249488 0.138960 0.638283
v 0.249488 0.375021 0.698381
v 0.146139 0.113462 0.738437
v 0.146139 0.349523 0.798536
v 0.146139 0.138960 0.638283
v 0.146139 0.375021 0.698381
vt 0.375000 0.593750
vt 0.406250 0.593750
vt 0.406250 0.718750
vt 0.375000 0.718750
vt 0.406250 0.531250
vt 0.468750 0.531250
vt 0.468750 0.593750
vt 0.375000 0.531250
vt 0.375000 0.406250
vt 0.406250 0.406250
vt 0.312500 0.593750
vt 0.312500 0.531250
vt 0.281250 0.531250
vt 0.281250 0.593750
vt 0.421875 0.406250
vt 0.437500 0.406250
vt 0.437500 0.500000
vt 0.421875 0.500000
vt 0.437500 0.375000
vt 0.484375 0.375000
vt 0.484375 0.406250
vt 0.421875 0.375000
vt 0.421875 0.281250
vt 0.437500 0.281250
vt 0.375000 0.406250
vt 0.375000 0.375000
vn 1.0000 0.0000 0.0000
vn 0.0000 0.0000 -1.0000
vn -1.0000 0.0000 0.0000
vn 0.0000 0.0000 1.0000
vn 0.0000 -1.0000 0.0000
vn 0.0000 1.0000 0.0000
vn 0.0000 0.2467 -0.9691
vn 0.0000 -0.2467 0.9691
vn 0.0000 -0.9691 -0.2467
usemtl Material
s off
f 25/39/12 27/40/12 28/41/12 26/42/12
f 27/40/13 31/43/13 32/44/13 28/45/13
f 31/43/14 29/46/14 30/47/14 32/48/14
f 29/46/15 25/39/15 26/49/15 30/50/15
f 27/40/16 25/39/16 29/46/16 31/43/16
f 32/51/17 30/50/17 26/49/17 28/52/17
f 33/53/12 35/54/12 36/55/12 34/56/12
f 35/54/18 39/57/18 40/58/18 36/59/18
f 39/57/14 37/60/14 38/61/14 40/62/14
f 37/60/19 33/53/19 34/63/19 38/64/19
f 35/54/20 33/53/20 37/60/20 39/57/20
o FrontLeftLeg
v 0.348007 0.433740 0.266826
v 0.322923 0.529196 0.266826
v 0.348007 0.433740 0.168129
v 0.322923 0.529196 0.168129
v 0.494003 0.472105 0.266826
v 0.468919 0.567561 0.266826
v 0.494003 0.472105 0.168129
v 0.468919 0.567561 0.168129
v 0.389639 0.729104 0.347115
v 0.641797 0.796555 0.347115
v 0.389639 0.729104 0.086091
v 0.641797 0.796556 0.086091
v 0.492802 0.343441 0.347115
v 0.744960 0.410892 0.347115
v 0.492802 0.343441 0.086091
v 0.744960 0.410892 0.086090
v 0.341485 0.833756 0.301075
v 0.477355 0.931193 0.301075
v 0.341485 0.833756 0.133879
v 0.477355 0.931193 0.133879
v 0.490509 0.625950 0.301075
v 0.626379 0.723387 0.301075
v 0.490509 0.625950 0.133879
v 0.626379 0.723387 0.133879
v 0.515646 0.420668 0.321983
v 0.726246 0.412400 0.321983
v 0.515646 0.420669 0.111222
v 0.726246 0.412400 0.111222
v 0.508914 0.140363 0.321983
v 0.719514 0.132094 0.321983
v 0.508914 0.140363 0.111222
v 0.719514 0.132094 0.111222
v 0.552459 0.172122 0.284886
v 0.687606 0.152476 0.284886
v 0.552459 0.172122 0.148319
v 0.687606 0.152476 0.148319
v 0.529065 -0.008048 0.284886
v 0.664212 -0.027694 0.284886
v 0.529065 -0.008048 0.148319
v 0.664212 -0.027694 0.148319
vt 0.625000 0.593750
vt 0.625000 0.625000
vt 0.609375 0.625000
vt 0.609375 0.593750
vt 0.593750 0.593750
vt 0.593750 0.531250
vt 0.609375 0.531250
vt 0.625000 0.531250
vt 0.640625 0.531250
vt 0.640625 0.593750
vt 0.609375 0.531250
vt 0.609375 0.468750
vt 0.625000 0.468750
vt 0.625000 0.531250
vt 0.546875 0.531250
vt 0.546875 0.406250
vt 0.593750 0.406250
vt 0.593750 0.531250
vt 0.671875 0.156250
vt 0.671875 0.250000
vt 0.593750 0.250000
vt 0.593750 0.156250
vt 0.546875 0.250000
vt 0.546875 0.156250
vt 0.468750 0.250000
vt 0.468750 0.156250
vt 0.593750 0.000000
vt 0.546875 0.000000
vt 0.656250 0.812500
vt 0.656250 0.750000
vt 0.687500 0.750000
vt 0.687500 0.812500
vt 0.718750 0.625000
vt 0.718750 0.687500
vt 0.687500 0.687500
vt 0.687500 0.625000
vt 0.656250 0.625000
vt 0.656250 0.687500
vt 0.625000 0.687500
vt 0.625000 0.625000
vt 0.687500 0.531250
vt 0.656250 0.531250
vt 0.562500 0.812500
vt 0.562500 0.750000
vt 0.593750 0.750000
vt 0.593750 0.812500
vt 0.625000 0.625000
vt 0.625000 0.687500
vt 0.593750 0.687500
vt 0.593750 0.625000
vt 0.562500 0.687500
vt 0.562500 0.625000
vt 0.531250 0.687500
vt 0.531250 0.625000
vt 0.593750 0.531250
vt 0.562500 0.531250
vt 0.640625 0.843750
vt 0.640625 0.875000
vt 0.625000 0.875000
vt 0.625000 0.843750
vt 0.609375 0.875000
vt 0.609375 0.843750
vt 0.593750 0.875000
vt 0.593750 0.843750
vt 0.625000 0.812500
vt 0.609375 0.812500
vt 0.625000 0.937500
vt 0.609375 0.937500
vt 0.625000 0.968750
vt 0.609375 0.968750
vn -0.9672 -0.2542 0.0000
vn 0.0000 0.0000 -1.0000
vn 0.0000 0.0000 1.0000
vn 0.2542 -0.9672 0.0000
vn -0.2542 0.9672 0.0000
vn -0.2584 0.9660 0.0000
vn 0.2584 -0.9660 -0.0000
vn -0.9660 -0.2584 0.0000
vn 0.9660 0.2584 -0.0000
vn -0.5828 0.8126 0.0000
vn -0.8126 -0.5828 0.0000
vn 0.8126 0.5828 0.0000
vn 0.0392 0.9992 0.0000
vn -0.0392 -0.9992 -0.0000
vn -0.9997 0.0240 0.0000
vn 0.9997 -0.0240 -0.0000
vn -0.1439 -0.9896 0.0000
vn -0.9917 0.1288 0.0000
vn 0.9917 -0.1288 -0.0000
vn 0.5828 -0.8126 0.0000
vn 0.9672 0.2542 0.0000
vn 0.1439 0.9896 0.0000
usemtl Material
s off
f 41/65/21 42/66/21 44/67/21 43/68/21
f 43/68/22 44/69/22 48/70/22 47/71/22
f 45/72/23 46/73/23 42/74/23 41/65/23
f 43/68/24 47/71/24 45/72/24 41/65/24
f 48/75/25 44/76/25 42/77/25 46/78/25
f 49/79/26 50/80/26 52/81/26 51/82/26
f 51/83/22 52/84/22 56/85/22 55/86/22
f 55/86/27 56/85/27 54/87/27 53/88/27
f 53/88/23 54/87/23 50/89/23 49/90/23
f 51/91/28 55/86/28 53/88/28 49/92/28
f 56/85/29 52/81/29 50/80/29 54/87/29
f 57/93/30 58/94/30 60/95/30 59/96/30
f 59/97/22 60/98/22 64/99/22 63/100/22
f 61/101/23 62/102/23 58/103/23 57/104/23
f 59/105/31 63/100/31 61/101/31 57/106/31
f 64/99/32 60/95/32 58/94/32 62/102/32
f 65/107/33 66/108/33 68/109/33 67/110/33
f 67/111/22 68/112/22 72/113/22 71/114/22
f 71/114/34 72/113/34 70/115/34 69/116/34
f 69/116/23 70/115/23 66/117/23 65/118/23
f 67/119/35 71/114/35 69/116/35 65/120/35
f 72/113/36 68/109/36 66/108/36 70/115/36
f 75/121/22 76/122/22 80/123/22 79/124/22
f 79/124/37 80/123/37 78/125/37 77/126/37
f 77/126/23 78/125/23 74/127/23 73/128/23
f 75/129/38 79/124/38 77/126/38 73/130/38
f 80/123/39 76/131/39 74/132/39 78/125/39
f 63/100/40 64/99/40 62/102/40 61/101/40
f 47/71/41 48/75/41 46/78/41 45/72/41
f 75/133/42 73/134/42 74/132/42 76/131/42
o RightMouth
v -0.270109 0.322467 0.815083
v -0.270109 0.656971 0.815083
v -0.270109 0.322467 0.670493
v -0.270109 0.656971 0.670493
v -0.125519 0.322467 0.815083
v -0.125519 0.656971 0.815083
v -0.125519 0.322467 0.670493
v -0.125519 0.656971 0.670493
v -0.249488 0.113462 0.738437
v -0.249488 0.349523 0.798536
v -0.249488 0.138960 0.638283
v -0.249488 0.375021 0.698381
v -0.146139 0.113462 0.738437
v -0.146139 0.349523 0.798536
v -0.146139 0.138960 0.638283
v -0.146139 0.375021 0.698381
vt 0.375000 0.593750
vt 0.375000 0.718750
vt 0.406250 0.718750
vt 0.406250 0.593750
vt 0.468750 0.593750
vt 0.468750 0.531250
vt 0.406250 0.531250
vt 0.406250 0.406250
vt 0.375000 0.406250
vt 0.375000 0.531250
vt 0.312500 0.531250
vt 0.312500 0.593750
vt 0.281250 0.531250
vt 0.281250 0.593750
vt 0.421875 0.406250
vt 0.421875 0.500000
vt 0.437500 0.500000
vt 0.437500 0.406250
vt 0.484375 0.406250
vt 0.484375 0.375000
vt 0.437500 0.375000
vt 0.437500 0.281250
vt 0.421875 0.281250
vt 0.421875 0.375000
vt 0.375000 0.375000
vt 0.375000 0.406250
vn -1.0000 0.0000 0.0000
vn 0.0000 0.0000 -1.0000
vn 1.0000 0.0000 0.0000
vn 0.0000 0.0000 1.0000
vn 0.0000 -1.0000 0.0000
vn 0.0000 1.0000 0.0000
vn 0.0000 0.2467 -0.9691
vn 0.0000 -0.2467 0.9691
vn 0.0000 -0.9691 -0.2467
usemtl Material
s off
f 81/135/43 82/136/43 84/137/43 83/138/43
f 83/138/44 84/139/44 88/140/44 87/141/44
f 87/141/45 88/142/45 86/143/45 85/144/45
f 85/144/46 86/145/46 82/146/46 81/135/46
f 83/138/47 87/141/47 85/144/47 81/135/47
f 88/147/48 84/148/48 82/146/48 86/145/48
f 89/149/43 90/150/43 92/151/43 91/152/43
f 91/152/49 92/153/49 96/154/49 95/155/49
f 95/155/45 96/156/45 94/157/45 93/158/45
f 93/158/50 94/159/50 90/160/50 89/149/50
f 91/152/51 95/155/51 93/158/51 89/149/51
o BackLeftLeg
v 0.388038 0.433740 -0.189740
v 0.366865 0.529196 -0.176289
v 0.335113 0.433740 -0.273048
v 0.313940 0.529196 -0.259596
v 0.511269 0.472105 -0.268029
v 0.490096 0.567561 -0.254578
v 0.458343 0.472105 -0.351336
v 0.437171 0.567561 -0.337885
v 0.466232 0.729104 -0.144296
v 0.679071 0.796556 -0.279512
v 0.326261 0.729104 -0.364618
v 0.539100 0.796556 -0.499834
v 0.553308 0.343441 -0.199616
v 0.766147 0.410892 -0.334832
v 0.413338 0.343441 -0.419938
v 0.626176 0.410892 -0.555154
v 0.400899 0.833756 -0.157334
v 0.515582 0.931193 -0.230193
v 0.311242 0.833756 -0.298459
v 0.425926 0.931193 -0.371317
v 0.526685 0.625950 -0.237246
v 0.641369 0.723387 -0.310105
v 0.437028 0.625950 -0.378371
v 0.551712 0.723387 -0.451229
v 0.559114 0.420668 -0.233079
v 0.736874 0.412400 -0.346010
v 0.446096 0.420669 -0.410974
v 0.623857 0.412400 -0.523906
v 0.553432 0.140363 -0.229469
v 0.731192 0.132094 -0.342400
v 0.440414 0.140363 -0.407365
v 0.618175 0.132094 -0.520296
v 0.570294 0.172122 -0.284132
v 0.684367 0.152476 -0.356603
v 0.497062 0.172122 -0.399403
v 0.611135 0.152476 -0.471874
v 0.550548 -0.008048 -0.271587
v 0.664621 -0.027694 -0.344058
v 0.477316 -0.008048 -0.386858
v 0.591389 -0.027694 -0.459329
vt 0.625000 0.593750
vt 0.625000 0.625000
vt 0.609375 0.625000
vt 0.609375 0.593750
vt 0.593750 0.593750
vt 0.593750 0.531250
vt 0.609375 0.531250
vt 0.625000 0.531250
vt 0.640625 0.531250
vt 0.640625 0.593750
vt 0.609375 0.531250
vt 0.609375 0.468750
vt 0.625000 0.468750
vt 0.625000 0.531250
vt 0.546875 0.531250
vt 0.546875 0.406250
vt 0.593750 0.406250
vt 0.593750 0.531250
vt 0.671875 0.156250
vt 0.671875 0.250000
vt 0.593750 0.250000
vt 0.593750 0.156250
vt 0.546875 0.250000
vt 0.546875 0.156250
vt 0.468750 0.250000
vt 0.468750 0.156250
vt 0.593750 0.000000
vt 0.546875 0.000000
vt 0.656250 0.812500
vt 0.656250 0.750000
vt 0.687500 0.750000
vt 0.687500 0.812500
vt 0.718750 0.625000
vt 0.718750 0.687500
vt 0.687500 0.687500
vt 0.687500 0.625000
vt 0.656250 0.625000
vt 0.656250 0.687500
vt 0.625000 0.687500
vt 0.625000 0.625000
vt 0.687500 0.531250
vt 0.656250 0.531250
vt 0.562500 0.812500
vt 0.562500 0.750000
vt 0.593750 0.750000
vt 0.593750 0.812500
vt 0.625000 0.625000
vt 0.625000 0.687500
vt 0.593750 0.687500
vt 0.593750 0.625000
vt 0.562500 0.687500
vt 0.562500 0.625000
vt 0.531250 0.687500
vt 0.531250 0.625000
vt 0.593750 0.531250
vt 0.562500 0.531250
vt 0.640625 0.843750
vt 0.640625 0.875000
vt 0.625000 0.875000
vt 0.625000 0.843750
vt 0.609375 0.875000
vt 0.609375 0.843750
vt 0.593750 0.875000
vt 0.593750 0.843750
vt 0.625000 0.812500
vt 0.609375 0.812500
vt 0.625000 0.937500
vt 0.609375 0.937500
vt 0.625000 0.968750
vt 0.609375 0.968750
vn -0.8164 -0.2542 0.5186
vn -0.5362 -0.0000 -0.8441
vn 0.5362 0.0000 0.8441
vn 0.2145 -0.9672 -0.1363
vn -0.2145 0.9672 0.1363
vn -0.2181 0.9660 0.1386
vn 0.2181 -0.9660 -0.1386
vn -0.8154 -0.2584 0.5180
vn 0.8154 0.2584 -0.5180
vn -0.4919 0.8126 0.3125
vn -0.6859 -0.5828 0.4358
vn 0.6859 0.5828 -0.4358
vn 0.0331 0.9992 -0.0210
vn -0.0331 -0.9992 0.0210
vn -0.8438 0.0240 0.5361
vn 0.8438 -0.0240 -0.5361
vn -0.1214 -0.9896 0.0771
vn -0.8370 0.1288 0.5318
vn 0.8370 -0.1288 -0.5318
vn 0.4919 -0.8126 -0.3125
vn 0.8164 0.2542 -0.5186
vn 0.1214 0.9896 -0.0771
usemtl Material
s off
f 97/161/52 98/162/52 100/163/52 99/164/52
f 99/164/53 100/165/53 104/166/53 103/167/53
f 101/168/54 102/169/54 98/170/54 97/161/54
f 99/164/55 103/167/55 101/168/55 97/161/55
f 104/171/56 100/172/56 98/173/56 102/174/56
f 105/175/57 106/176/57 108/177/57 107/178/57
f 107/179/53 108/180/53 112/181/53 111/182/53
f 111/182/58 112/181/58 110/183/58 109/184/58
f 109/184/54 110/183/54 106/185/54 105/186/54
f 107/187/59 111/182/59 109/184/59 105/188/59
f 112/181/60 108/177/60 106/176/60 110/183/60
f 113/189/61 114/190/61 116/191/61 115/192/61
f 115/193/53 116/194/53 120/195/53 119/196/53
f 117/197/54 118/198/54 114/199/54 113/200/54
f 115/201/62 119/196/62 117/197/62 113/202/62
f 120/195/63 116/191/63 114/190/63 118/198/63
f 121/203/64 122/204/64 124/205/64 123/206/64
f 123/207/53 124/208/53 128/209/53 127/210/53
f 127/210/65 128/209/65 126/211/65 125/212/65
f 125/212/54 126/211/54 122/213/54 121/214/54
f 123/215/66 127/210/66 125/212/66 121/216/66
f 128/209/67 124/205/67 122/204/67 126/211/67
f 131/217/53 132/218/53 136/219/53 135/220/53
f 135/220/68 136/219/68 134/221/68 133/222/68
f 133/222/54 134/221/54 130/223/54 129/224/54
f 131/225/69 135/220/69 133/222/69 129/226/69
f 136/219/70 132/227/70 130/228/70 134/221/70
f 119/196/71 120/195/71 118/198/71 117/197/71
f 103/167/72 104/171/72 102/174/72 101/168/72
f 131/229/73 129/230/73 130/228/73 132/227/73
o BackRightLeg
v -0.388038 0.433740 -0.189740
v -0.366865 0.529196 -0.176289
v -0.335113 0.433740 -0.273048
v -0.313940 0.529196 -0.259597
v -0.511269 0.472105 -0.268029
v -0.490096 0.567561 -0.254578
v -0.458343 0.472105 -0.351336
v -0.437171 0.567561 -0.337885
v -0.466232 0.729104 -0.144296
v -0.679071 0.796555 -0.279512
v -0.326261 0.729104 -0.364618
v -0.539100 0.796556 -0.499834
v -0.553308 0.343441 -0.199616
v -0.766147 0.410892 -0.334832
v -0.413338 0.343441 -0.419938
v -0.626176 0.410892 -0.555154
v -0.400899 0.833756 -0.157334
v -0.515582 0.931193 -0.230193
v -0.311242 0.833756 -0.298459
v -0.425926 0.931193 -0.371317
v -0.526685 0.625950 -0.237246
v -0.641369 0.723387 -0.310105
v -0.437029 0.625950 -0.378371
v -0.551712 0.723387 -0.451229
v -0.559114 0.420668 -0.233079
v -0.736874 0.412400 -0.346010
v -0.446096 0.420669 -0.410975
v -0.623857 0.412400 -0.523906
v -0.553432 0.140363 -0.229469
v -0.731192 0.132094 -0.342400
v -0.440414 0.140363 -0.407365
v -0.618175 0.132094 -0.520296
v -0.570294 0.172122 -0.284132
v -0.684367 0.152476 -0.356603
v -0.497062 0.172122 -0.399403
v -0.611135 0.152476 -0.471874
v -0.550547 -0.008048 -0.271587
v -0.664621 -0.027694 -0.344058
v -0.477316 -0.008048 -0.386858
v -0.591389 -0.027694 -0.459329
vt 0.625000 0.593750
vt 0.609375 0.593750
vt 0.609375 0.625000
vt 0.625000 0.625000
vt 0.609375 0.531250
vt 0.593750 0.531250
vt 0.593750 0.593750
vt 0.625000 0.531250
vt 0.640625 0.593750
vt 0.640625 0.531250
vt 0.609375 0.531250
vt 0.625000 0.531250
vt 0.625000 0.468750
vt 0.609375 0.468750
vt 0.546875 0.531250
vt 0.593750 0.531250
vt 0.593750 0.406250
vt 0.546875 0.406250
vt 0.671875 0.156250
vt 0.593750 0.156250
vt 0.593750 0.250000
vt 0.671875 0.250000
vt 0.546875 0.156250
vt 0.546875 0.250000
vt 0.468750 0.156250
vt 0.468750 0.250000
vt 0.593750 0.000000
vt 0.546875 0.000000
vt 0.656250 0.812500
vt 0.687500 0.812500
vt 0.687500 0.750000
vt 0.656250 0.750000
vt 0.718750 0.625000
vt 0.687500 0.625000
vt 0.687500 0.687500
vt 0.718750 0.687500
vt 0.656250 0.625000
vt 0.625000 0.625000
vt 0.625000 0.687500
vt 0.656250 0.687500
vt 0.687500 0.531250
vt 0.656250 0.531250
vt 0.562500 0.812500
vt 0.593750 0.812500
vt 0.593750 0.750000
vt 0.562500 0.750000
vt 0.625000 0.625000
vt 0.593750 0.625000
vt 0.593750 0.687500
vt 0.625000 0.687500
vt 0.562500 0.625000
vt 0.562500 0.687500
vt 0.531250 0.625000
vt 0.531250 0.687500
vt 0.593750 0.531250
vt 0.562500 0.531250
vt 0.640625 0.843750
vt 0.625000 0.843750
vt 0.625000 0.875000
vt 0.640625 0.875000
vt 0.609375 0.843750
vt 0.609375 0.875000
vt 0.593750 0.843750
vt 0.593750 0.875000
vt 0.625000 0.812500
vt 0.609375 0.812500
vt 0.609375 0.937500
vt 0.625000 0.937500
vt 0.625000 0.968750
vt 0.609375 0.968750
vn 0.8164 -0.2542 0.5186
vn 0.5362 -0.0000 -0.8441
vn -0.5362 -0.0000 0.8441
vn -0.2145 -0.9672 -0.1363
vn 0.2145 0.9672 0.1363
vn 0.2181 0.9660 0.1386
vn -0.2181 -0.9660 -0.1386
vn 0.8154 -0.2584 0.5180
vn -0.8154 0.2584 -0.5180
vn 0.4919 0.8126 0.3125
vn 0.6859 -0.5828 0.4358
vn -0.6859 0.5828 -0.4358
vn -0.0331 0.9992 -0.0210
vn 0.0331 -0.9992 0.0210
vn 0.8438 0.0240 0.5361
vn -0.8438 -0.0240 -0.5361
vn 0.1214 -0.9896 0.0771
vn 0.8370 0.1288 0.5318
vn -0.8370 -0.1288 -0.5318
vn -0.4919 -0.8126 -0.3125
vn -0.8164 0.2542 -0.5186
vn -0.1214 0.9896 -0.0771
usemtl Material
s off
f 137/231/74 139/232/74 140/233/74 138/234/74
f 139/232/75 143/235/75 144/236/75 140/237/75
f 141/238/76 137/231/76 138/239/76 142/240/76
f 139/232/77 137/231/77 141/238/77 143/235/77
f 144/241/78 142/242/78 138/243/78 140/244/78
f 145/245/79 147/246/79 148/247/79 146/248/79
f 147/249/75 151/250/75 152/251/75 148/252/75
f 151/250/80 149/253/80 150/254/80 152/251/80
f 149/253/76 145/255/76 146/256/76 150/254/76
f 147/257/81 145/258/81 149/253/81 151/250/81
f 152/251/82 150/254/82 146/248/82 148/247/82
f 153/259/83 155/260/83 156/261/83 154/262/83
f 155/263/75 159/264/75 160/265/75 156/266/75
f 157/267/76 153/268/76 154/269/76 158/270/76
f 155/271/84 153/272/84 157/267/84 159/264/84
f 160/265/85 158/270/85 154/262/85 156/261/85
f 161/273/86 163/274/86 164/275/86 162/276/86
f 163/277/75 167/278/75 168/279/75 164/280/75
f 167/278/87 165/281/87 166/282/87 168/279/87
f 165/281/76 161/283/76 162/284/76 166/282/76
f 163/285/88 161/286/88 165/281/88 167/278/88
f 168/279/89 166/282/89 162/276/89 164/275/89
f 171/287/75 175/288/75 176/289/75 172/290/75
f 175/288/90 173/291/90 174/292/90 176/289/90
f 173/291/76 169/293/76 170/294/76 174/292/76
f 171/295/91 169/296/91 173/291/91 175/288/91
f 176/289/92 174/292/92 170/297/92 172/298/92
f 159/264/93 157/267/93 158/270/93 160/265/93
f 143/235/94 141/238/94 142/242/94 144/241/94
f 171/299/95 172/298/95 170/297/95 169/300/95
o FrontRightLeg
v -0.348007 0.433740 0.266826
v -0.322923 0.529196 0.266826
v -0.348007 0.433740 0.168129
v -0.322923 0.529196 0.168129
v -0.494003 0.472105 0.266826
v -0.468919 0.567561 0.266826
v -0.494003 0.472105 0.168129
v -0.468919 0.567561 0.168129
v -0.389639 0.729104 0.347115
v -0.641797 0.796555 0.347115
v -0.389639 0.729104 0.086091
v -0.641797 0.796556 0.086091
v -0.492802 0.343441 0.347115
v -0.744960 0.410892 0.347115
v -0.492802 0.343441 0.086091
v -0.744960 0.410892 0.086090
v -0.341485 0.833756 0.301075
v -0.477355 0.931193 0.301075
v -0.341485 0.833756 0.133879
v -0.477355 0.931193 0.133879
v -0.490509 0.625950 0.301075
v -0.626379 0.723387 0.301075
v -0.490509 0.625950 0.133879
v -0.626379 0.723387 0.133879
v -0.515646 0.420668 0.321983
v -0.726246 0.412400 0.321983
v -0.515646 0.420669 0.111222
v -0.726246 0.412400 0.111222
v -0.508914 0.140363 0.321983
v -0.719514 0.132094 0.321983
v -0.508914 0.140363 0.111222
v -0.719514 0.132094 0.111222
v -0.552459 0.172122 0.284886
v -0.687606 0.152476 0.284886
v -0.552459 0.172122 0.148319
v -0.687606 0.152476 0.148319
v -0.529065 -0.008048 0.284886
v -0.664212 -0.027694 0.284886
v -0.529065 -0.008048 0.148319
v -0.664212 -0.027694 0.148319
vt 0.625000 0.593750
vt 0.609375 0.593750
vt 0.609375 0.625000
vt 0.625000 0.625000
vt 0.609375 0.531250
vt 0.593750 0.531250
vt 0.593750 0.593750
vt 0.625000 0.531250
vt 0.640625 0.593750
vt 0.640625 0.531250
vt 0.609375 0.531250
vt 0.625000 0.531250
vt 0.625000 0.468750
vt 0.609375 0.468750
vt 0.546875 0.531250
vt 0.593750 0.531250
vt 0.593750 0.406250
vt 0.546875 0.406250
vt 0.671875 0.156250
vt 0.593750 0.156250
vt 0.593750 0.250000
vt 0.671875 0.250000
vt 0.546875 0.156250
vt 0.546875 0.250000
vt 0.468750 0.156250
vt 0.468750 0.250000
vt 0.593750 0.000000
vt 0.546875 0.000000
vt 0.656250 0.812500
vt 0.687500 0.812500
vt 0.687500 0.750000
vt 0.656250 0.750000
vt 0.718750 0.625000
vt 0.687500 0.625000
vt 0.687500 0.687500
vt 0.718750 0.687500
vt 0.656250 0.625000
vt 0.625000 0.625000
vt 0.625000 0.687500
vt 0.656250 0.687500
vt 0.687500 0.531250
vt 0.656250 0.531250
vt 0.562500 0.812500
vt 0.593750 0.812500
vt 0.593750 0.750000
vt 0.562500 0.750000
vt 0.625000 0.625000
vt 0.593750 0.625000
vt 0.593750 0.687500
vt 0.625000 0.687500
vt 0.562500 0.625000
vt 0.562500 0.687500
vt 0.531250 0.625000
vt 0.531250 0.687500
vt 0.593750 0.531250
vt 0.562500 0.531250
vt 0.640625 0.843750
vt 0.625000 0.843750
vt 0.625000 0.875000
vt 0.640625 0.875000
vt 0.609375 0.843750
vt 0.609375 0.875000
vt 0.593750 0.843750
vt 0.593750 0.875000
vt 0.625000 0.812500
vt 0.609375 0.812500
vt 0.609375 0.937500
vt 0.625000 0.937500
vt 0.625000 0.968750
vt 0.609375 0.968750
vn 0.9672 -0.2542 0.0000
vn 0.0000 0.0000 -1.0000
vn 0.0000 0.0000 1.0000
vn -0.2542 -0.9672 0.0000
vn 0.2542 0.9672 0.0000
vn 0.2584 0.9660 0.0000
vn -0.2584 -0.9660 -0.0000
vn 0.9660 -0.2584 0.0000
vn -0.9660 0.2584 -0.0000
vn 0.5828 0.8126 0.0000
vn 0.8126 -0.5828 0.0000
vn -0.8126 0.5828 0.0000
vn -0.0392 0.9992 0.0000
vn 0.0392 -0.9992 -0.0000
vn 0.9997 0.0240 0.0000
vn -0.9997 -0.0240 -0.0000
vn 0.1439 -0.9896 0.0000
vn 0.9917 0.1288 0.0000
vn -0.9917 -0.1288 -0.0000
vn -0.5828 -0.8126 0.0000
vn -0.9672 0.2542 0.0000
vn -0.1439 0.9896 0.0000
usemtl Material
s off
f 177/301/96 179/302/96 180/303/96 178/304/96
f 179/302/97 183/305/97 184/306/97 180/307/97
f 181/308/98 177/301/98 178/309/98 182/310/98
f 179/302/99 177/301/99 181/308/99 183/305/99
f 184/311/100 182/312/100 178/313/100 180/314/100
f 185/315/101 187/316/101 188/317/101 186/318/101
f 187/319/97 191/320/97 192/321/97 188/322/97
f 191/320/102 189/323/102 190/324/102 192/321/102
f 189/323/98 185/325/98 186/326/98 190/324/98
f 187/327/103 185/328/103 189/323/103 191/320/103
f 192/321/104 190/324/104 186/318/104 188/317/104
f 193/329/105 195/330/105 196/331/105 194/332/105
f 195/333/97 199/334/97 200/335/97 196/336/97
f 197/337/98 193/338/98 194/339/98 198/340/98
f 195/341/106 193/342/106 197/337/106 199/334/106
f 200/335/107 198/340/107 194/332/107 196/331/107
f 201/343/108 203/344/108 204/345/108 202/346/108
f 203/347/97 207/348/97 208/349/97 204/350/97
f 207/348/109 205/351/109 206/352/109 208/349/109
f 205/351/98 201/353/98 202/354/98 206/352/98
f 203/355/110 201/356/110 205/351/110 207/348/110
f 208/349/111 206/352/111 202/346/111 204/345/111
f 211/357/97 215/358/97 216/359/97 212/360/97
f 215/358/112 213/361/112 214/362/112 216/359/112
f 213/361/98 209/363/98 210/364/98 214/362/98
f 211/365/113 209/366/113 213/361/113 215/358/113
f 216/359/114 214/362/114 210/367/114 212/368/114
f 199/334/115 197/337/115 198/340/115 200/335/115
f 183/305/116 181/308/116 182/312/116 184/311/116
f 211/369/117 212/368/117 210/367/117 209/370/117
