# Blender v3.0.0 OBJ File: 'abtu.blend'
# www.blender.org
mtllib abtu.mtl
o Body
v -0.360874 0.241874 0.823060
v 0.361001 0.241874 0.823060
v 0.361001 0.962761 0.785280
v -0.360874 0.962761 0.785280
v 0.361001 0.204094 0.102175
v -0.360874 0.204094 0.102175
v -0.360874 0.924980 0.064395
v 0.361001 0.924980 0.064395
v 0.001095 0.773396 -0.250295
v 0.001095 0.505519 0.190285
v 0.001095 0.946100 0.458162
v 0.001095 1.213978 0.017582
v -0.257749 0.232429 0.201645
v 0.257876 0.232429 0.201645
v 0.257876 0.850537 0.173468
v -0.257749 0.850537 0.173468
v 0.257876 0.199556 -0.519481
v -0.257749 0.199556 -0.519481
v -0.257749 0.817664 -0.547658
v 0.257876 0.817664 -0.547658
v 0.000064 0.598305 -0.617988
v 0.000064 0.414615 -0.136191
v 0.000064 0.896411 0.047499
v 0.000064 1.080102 -0.434297
v 0.000064 -0.132838 -0.693675
v 0.000064 0.271282 0.366274
v 0.000064 0.656718 0.219321
v 0.000064 0.252599 -0.840629
v -0.154624 0.246713 -0.445784
v 0.154751 0.246713 -0.445784
v 0.154751 0.761889 -0.424281
v -0.154624 0.761889 -0.424281
v 0.154751 0.276816 -1.167030
v -0.154624 0.276816 -1.167030
v -0.154624 0.791992 -1.145527
v 0.154751 0.791992 -1.145527
v 0.001095 0.825256 -1.086654
v 0.001095 0.369694 -0.526683
v 0.001095 0.769672 -0.201282
v 0.001095 1.225234 -0.761252
v 0.000063 0.524495 -2.029856
v 0.000064 0.198739 -0.623335
v 0.000064 0.701069 -0.506995
v 0.000063 1.026823 -1.913515
v 0.001095 -0.166406 -1.523190
v 0.001095 0.189027 -0.445937
v 0.001095 0.580756 -0.575186
v 0.001095 0.225322 -1.652440
vt 0.054688 0.781250
vt 0.109375 0.781250
vt 0.109375 0.890625
vt 0.054688 0.890625
vt 0.164062 0.781250
vt 0.218750 0.781250
vt 0.218750 0.890625
vt 0.164062 0.890625
vt 0.109375 1.000000
vt 0.054688 1.000000
vt 0.109375 1.000000
vt 0.164062 1.000000
vt 0.164062 0.890625
vt 0.109375 0.890625
vt 0.000000 0.781250
vt 0.000000 0.890625
vt 0.039062 0.234375
vt 0.078125 0.234375
vt 0.078125 0.312500
vt 0.039062 0.312500
vt 0.273438 0.796875
vt 0.312500 0.796875
vt 0.312500 0.890625
vt 0.273438 0.890625
vt 0.367188 0.796875
vt 0.406250 0.796875
vt 0.406250 0.890625
vt 0.367188 0.890625
vt 0.312500 1.000000
vt 0.273438 1.000000
vt 0.312500 1.000000
vt 0.351562 1.000000
vt 0.351562 0.890625
vt 0.312500 0.890625
vt 0.218750 0.796875
vt 0.218750 0.890625
vt 0.039062 0.234375
vt 0.078125 0.234375
vt 0.078125 0.312500
vt 0.039062 0.312500
vt 0.515625 0.453125
vt 0.601562 0.453125
vt 0.601562 0.515625
vt 0.515625 0.515625
vt 0.460938 0.812500
vt 0.484375 0.812500
vt 0.484375 0.890625
vt 0.460938 0.890625
vt 0.539062 0.812500
vt 0.562500 0.812500
vt 0.562500 0.890625
vt 0.539062 0.890625
vt 0.484375 1.000000
vt 0.460938 1.000000
vt 0.484375 1.000000
vt 0.507812 1.000000
vt 0.507812 0.890625
vt 0.484375 0.890625
vt 0.406250 0.812500
vt 0.406250 0.890625
vt 0.242188 0.250000
vt 0.296875 0.250000
vt 0.296875 0.328125
vt 0.242188 0.328125
vt 0.515625 0.515625
vt 0.625000 0.515625
vt 0.625000 0.593750
vt 0.515625 0.593750
vt 0.218750 0.703125
vt 0.304688 0.703125
vt 0.304688 0.765625
vt 0.218750 0.765625
vn 0.0000 0.0523 0.9986
vn -0.0000 -0.0523 -0.9986
vn -0.0000 0.9986 -0.0523
vn 0.0000 -0.9986 0.0523
vn -1.0000 0.0000 0.0000
vn 1.0000 0.0000 -0.0000
vn 0.0000 0.0455 0.9990
vn 0.0000 -0.0455 -0.9990
vn -0.0000 0.9990 -0.0455
vn 0.0000 -0.9990 0.0455
vn 0.0000 -0.0417 0.9991
vn 0.0000 0.0417 -0.9991
vn 0.0000 0.9991 0.0417
vn 0.0000 -0.9991 -0.0417
usemtl Default_OBJ
s off
f 1/1/1 2/2/1 3/3/1 4/4/1
f 5/5/2 6/6/2 7/7/2 8/8/2
f 4/4/3 3/3/3 8/9/3 7/10/3
f 6/11/4 5/12/4 2/13/4 1/14/4
f 6/15/5 1/1/5 4/4/5 7/16/5
f 2/2/6 5/5/6 8/8/6 3/3/6
f 10/17/6 9/18/6 12/19/6 11/20/6
f 13/21/7 14/22/7 15/23/7 16/24/7
f 17/25/8 18/26/8 19/27/8 20/28/8
f 16/24/9 15/23/9 20/29/9 19/30/9
f 18/31/10 17/32/10 14/33/10 13/34/10
f 18/35/5 13/21/5 16/24/5 19/36/5
f 14/22/6 17/25/6 20/28/6 15/23/6
f 22/37/6 21/38/6 24/39/6 23/40/6
f 26/41/6 25/42/6 28/43/6 27/44/6
f 29/45/11 30/46/11 31/47/11 32/48/11
f 33/49/12 34/50/12 35/51/12 36/52/12
f 32/48/13 31/47/13 36/53/13 35/54/13
f 34/55/14 33/56/14 30/57/14 29/58/14
f 34/59/5 29/45/5 32/48/5 35/60/5
f 30/46/6 33/49/6 36/52/6 31/47/6
f 38/61/6 37/62/6 40/63/6 39/64/6
f 42/65/6 41/66/6 44/67/6 43/68/6
f 46/69/6 45/70/6 48/71/6 47/72/6
o Head
v -0.309311 0.100564 1.051372
v 0.309439 0.100564 1.051372
v 0.309439 0.918711 1.157486
v -0.309311 0.918711 1.157487
v 0.309439 0.166885 0.540030
v -0.309311 0.166885 0.540030
v -0.309311 0.985032 0.646143
v 0.309439 0.985032 0.646143
v -0.360874 0.061867 1.275366
v 0.361001 0.061867 1.275366
v 0.361001 0.416668 1.649512
v -0.360874 0.416668 1.649512
v 0.361001 0.585669 0.778643
v -0.360874 0.585669 0.778643
v -0.360874 0.940472 1.152787
v 0.361001 0.940472 1.152787
v -0.361905 0.060409 1.275328
v 0.359970 0.060409 1.275328
v 0.359970 0.415211 1.649472
v -0.361905 0.415211 1.649472
v 0.359970 0.584211 0.778604
v -0.361905 0.584211 0.778604
v -0.361905 0.939014 1.152750
v 0.359970 0.939014 1.152749
v 0.000064 0.971408 0.811437
v 0.000064 0.293067 1.058331
v 0.000064 0.469420 1.542861
v 0.000064 1.147762 1.295966
v 0.000064 1.007779 0.274854
v 0.000064 0.531340 0.817172
v 0.000064 0.918711 1.157486
v 0.000064 1.395150 0.615168
v 0.500953 0.145279 0.030542
v 0.373639 -0.105205 0.695487
v 0.352576 0.378235 0.873564
v 0.479890 0.628720 0.208620
v -0.500825 0.145279 0.030542
v -0.373511 -0.105205 0.695487
v -0.352449 0.378235 0.873565
v -0.479763 0.628720 0.208620
vt 0.039062 0.578125
vt 0.085938 0.578125
vt 0.085938 0.703125
vt 0.039062 0.703125
vt 0.125000 0.578125
vt 0.171875 0.578125
vt 0.171875 0.703125
vt 0.125000 0.703125
vt 0.085938 0.781250
vt 0.039062 0.781250
vt 0.085938 0.781250
vt 0.132812 0.781250
vt 0.132812 0.703125
vt 0.085938 0.703125
vt 0.000000 0.578125
vt 0.000000 0.703125
vt 0.054688 0.390625
vt 0.109375 0.390625
vt 0.109375 0.468750
vt 0.054688 0.468750
vt 0.164062 0.390625
vt 0.218750 0.390625
vt 0.218750 0.468750
vt 0.164062 0.468750
vt 0.109375 0.578125
vt 0.054688 0.578125
vt 0.109375 0.578125
vt 0.164062 0.578125
vt 0.164062 0.468750
vt 0.109375 0.468750
vt 0.000000 0.390625
vt 0.000000 0.468750
vt 0.226562 0.515625
vt 0.281250 0.515625
vt 0.281250 0.593750
vt 0.226562 0.593750
vt 0.335938 0.515625
vt 0.390625 0.515625
vt 0.390625 0.593750
vt 0.335938 0.593750
vt 0.281250 0.703125
vt 0.226562 0.703125
vt 0.281250 0.703125
vt 0.335938 0.703125
vt 0.335938 0.593750
vt 0.281250 0.593750
vt 0.171875 0.515625
vt 0.171875 0.593750
vt 0.351562 0.250000
vt 0.406250 0.250000
vt 0.406250 0.328125
vt 0.351562 0.328125
vt 0.054688 0.312500
vt 0.109375 0.312500
vt 0.109375 0.390625
vt 0.054688 0.390625
vt 0.132812 0.234375
vt 0.187500 0.234375
vt 0.187500 0.312500
vt 0.132812 0.312500
vt 0.132812 0.234375
vt 0.187500 0.234375
vt 0.187500 0.312500
vt 0.132812 0.312500
vn 0.0000 -0.1286 0.9917
vn 0.0000 0.1286 -0.9917
vn 0.0000 0.9917 0.1286
vn 0.0000 -0.9917 -0.1286
vn -1.0000 0.0000 0.0000
vn 1.0000 0.0000 0.0000
vn 0.0000 -0.7256 0.6881
vn -0.0000 0.7256 -0.6881
vn 0.0000 0.6881 0.7256
vn 0.0000 -0.6881 -0.7256
vn 0.9835 -0.0233 0.1795
vn 0.9835 0.0233 -0.1795
usemtl Default_OBJ
s off
f 49/73/15 50/74/15 51/75/15 52/76/15
f 53/77/16 54/78/16 55/79/16 56/80/16
f 52/76/17 51/75/17 56/81/17 55/82/17
f 54/83/18 53/84/18 50/85/18 49/86/18
f 54/87/19 49/73/19 52/76/19 55/88/19
f 50/74/20 53/77/20 56/80/20 51/75/20
f 57/89/21 58/90/21 59/91/21 60/92/21
f 61/93/22 62/94/22 63/95/22 64/96/22
f 60/92/23 59/91/23 64/97/23 63/98/23
f 62/99/24 61/100/24 58/101/24 57/102/24
f 62/103/19 57/89/19 60/92/19 63/104/19
f 58/90/20 61/93/20 64/96/20 59/91/20
f 65/105/21 66/106/21 67/107/21 68/108/21
f 69/109/22 70/110/22 71/111/22 72/112/22
f 68/108/23 67/107/23 72/113/23 71/114/23
f 70/115/24 69/116/24 66/117/24 65/118/24
f 70/119/19 65/105/19 68/108/19 71/120/19
f 66/106/20 69/109/20 72/112/20 67/107/20
f 74/121/20 73/122/20 76/123/20 75/124/20
f 78/125/20 77/126/20 80/127/20 79/128/20
f 82/129/25 81/130/25 84/131/25 83/132/25
f 86/133/26 85/134/26 88/135/26 87/136/26
o Mouth
v -0.412436 0.085378 1.722032
v 0.412564 0.085377 1.722031
v 0.412564 0.496111 1.683884
v -0.412436 0.496111 1.683884
v 0.412564 0.009085 0.900567
v -0.412436 0.009085 0.900567
v -0.412436 0.419816 0.862419
v 0.412564 0.419816 0.862419
v -0.413467 0.086311 1.720910
v 0.411533 0.086311 1.720910
v 0.411533 0.497042 1.682762
v -0.413467 0.497042 1.682762
v 0.411532 0.010016 0.899445
v -0.413467 0.010016 0.899445
v -0.413467 0.420747 0.861297
v 0.411533 0.420747 0.861297
vt 0.218750 0.328125
vt 0.281250 0.328125
vt 0.281250 0.390625
vt 0.218750 0.390625
vt 0.343750 0.328125
vt 0.406250 0.328125
vt 0.406250 0.390625
vt 0.343750 0.390625
vt 0.281250 0.515625
vt 0.218750 0.515625
vt 0.281250 0.515625
vt 0.343750 0.515625
vt 0.343750 0.390625
vt 0.281250 0.390625
vt 0.156250 0.328125
vt 0.156250 0.390625
vt 0.406250 0.593750
vt 0.468750 0.593750
vt 0.468750 0.656250
vt 0.406250 0.656250
vt 0.531250 0.593750
vt 0.593750 0.593750
vt 0.593750 0.656250
vt 0.531250 0.656250
vt 0.468750 0.781250
vt 0.406250 0.781250
vt 0.468750 0.781250
vt 0.531250 0.781250
vt 0.531250 0.656250
vt 0.468750 0.656250
vt 0.343750 0.593750
vt 0.343750 0.656250
vn 0.0000 0.0925 0.9957
vn 0.0000 -0.0925 -0.9957
vn 0.0000 0.9957 -0.0925
vn -0.0000 -0.9957 0.0925
vn -1.0000 0.0000 0.0000
vn 1.0000 0.0000 0.0000
usemtl Default_OBJ
s off
f 89/137/27 90/138/27 91/139/27 92/140/27
f 93/141/28 94/142/28 95/143/28 96/144/28
f 92/140/29 91/139/29 96/145/29 95/146/29
f 94/147/30 93/148/30 90/149/30 89/150/30
f 94/151/31 89/137/31 92/140/31 95/152/31
f 90/138/32 93/141/32 96/144/32 91/139/32
f 97/153/27 98/154/27 99/155/27 100/156/27
f 101/157/28 102/158/28 103/159/28 104/160/28
f 100/156/29 99/155/29 104/161/29 103/162/29
f 102/163/30 101/164/30 98/165/30 97/166/30
f 102/167/31 97/153/31 100/156/31 103/168/31
f 98/154/32 101/157/32 104/160/32 99/155/32
