# Blender v3.0.0 OBJ File: 'cryptkeeper.blend'
# www.blender.org
mtllib cryptkeeper.mtl
o Body
v -0.258731 1.762500 -0.198624
v -0.258731 0.862500 -0.198624
v -0.258731 1.762500 0.076376
v -0.258731 0.862500 0.076376
v 0.266269 1.762500 0.076376
v 0.266269 0.862500 0.076376
v 0.266269 1.762500 -0.198624
v 0.266269 0.862500 -0.198624
v -0.246231 1.750000 -0.186124
v -0.246231 0.875000 -0.186124
v -0.246231 1.750000 0.063876
v -0.246231 0.875000 0.063876
v 0.253769 1.750000 0.063876
v 0.253769 0.875000 0.063876
v 0.253769 1.750000 -0.186124
v 0.253769 0.875000 -0.186124
vt 0.218750 0.859375
vt 0.187500 0.859375
vt 0.187500 0.968750
vt 0.218750 0.968750
vt 0.093750 0.859375
vt 0.031250 0.859375
vt 0.031250 0.968750
vt 0.093750 0.968750
vt 0.281250 0.968750
vt 0.343750 0.968750
vt 0.343750 1.000000
vt 0.281250 1.000000
vt 0.125000 0.859375
vt 0.125000 0.968750
vt 0.093750 0.968750
vt 0.156250 0.968750
vt 0.156250 1.000000
vt 0.093750 1.000000
vt 0.375000 0.859375
vt 0.312500 0.859375
vt 0.312500 0.968750
vt 0.375000 0.968750
vt 0.031250 1.000000
vt 0.093750 1.000000
vt 0.000000 0.859375
vt 0.000000 0.968750
vt 0.187500 0.859375
vt 0.187500 0.968750
vt 0.218750 1.000000
vt 0.281250 1.000000
vt 0.281250 0.968750
vt 0.281250 0.859375
vn 1.0000 0.0000 -0.0000
vn 0.0000 0.0000 1.0000
vn 0.0000 -1.0000 0.0000
vn -1.0000 -0.0000 0.0000
vn -0.0000 -0.0000 -1.0000
vn -0.0000 1.0000 0.0000
usemtl m_0
s 1
f 6/1/1 8/2/1 7/3/1 5/4/1
f 12/5/2 14/6/2 13/7/2 11/8/2
f 6/9/3 4/10/3 2/11/3 8/12/3
f 10/13/4 12/5/4 11/8/4 9/14/4
f 14/15/3 12/16/3 10/17/3 16/18/3
f 8/19/5 2/20/5 1/21/5 7/22/5
f 15/23/6 9/24/6 11/8/6 13/7/6
f 14/6/1 16/25/1 15/26/1 13/7/1
f 16/27/5 10/13/5 9/14/5 15/28/5
f 7/29/6 1/30/6 3/31/6 5/4/6
f 4/32/2 6/1/2 5/4/2 3/31/2
f 2/20/4 4/32/4 3/31/4 1/21/4
o LeftArm
v 0.231547 1.527688 -0.197170
v 0.365040 1.351745 0.649499
v 0.239376 1.772582 -0.147514
v 0.372870 1.596639 0.699155
v 0.424588 1.772582 -0.176717
v 0.558082 1.596639 0.669952
v 0.416759 1.527688 -0.226373
v 0.550252 1.351745 0.620296
v 0.216901 1.517957 -0.209802
v 0.354209 1.336987 0.661058
v 0.225513 1.787340 -0.155180
v 0.362821 1.606370 0.715680
v 0.435420 1.787340 -0.188276
v 0.572728 1.606370 0.682584
v 0.426808 1.517957 -0.242897
v 0.564115 1.336987 0.627962
v 0.223718 1.282794 -0.246826
v 0.357211 1.106851 0.599843
v 0.231547 1.527688 -0.197170
v 0.365040 1.351745 0.649499
v 0.416759 1.527688 -0.226373
v 0.550252 1.351745 0.620296
v 0.408930 1.282794 -0.276029
v 0.542423 1.106851 0.570641
v 0.235462 1.650135 -0.172342
v 0.368955 1.474192 0.674327
v 0.239376 1.772582 -0.147514
v 0.372870 1.596639 0.699155
v 0.362851 1.772582 -0.166982
v 0.496344 1.596639 0.679687
v 0.358936 1.650135 -0.191811
v 0.492430 1.474192 0.654859
vt 0.625000 0.718750
vt 0.593750 0.718750
vt 0.593750 0.828125
vt 0.625000 0.828125
vt 0.500000 0.593750
vt 0.484375 0.593750
vt 0.484375 0.703125
vt 0.500000 0.703125
vt 0.453125 0.593750
vt 0.437500 0.593750
vt 0.437500 0.703125
vt 0.453125 0.703125
vt 0.593750 0.718750
vt 0.570312 0.718750
vt 0.570312 0.828125
vt 0.593750 0.828125
vt 0.468750 0.593750
vt 0.468750 0.703125
vt 0.429688 0.859375
vt 0.406250 0.859375
vt 0.406250 0.828125
vt 0.429688 0.828125
vt 0.539062 0.718750
vt 0.515625 0.718750
vt 0.515625 0.828125
vt 0.539062 0.828125
vt 0.460938 0.718750
vt 0.484375 0.718750
vt 0.484375 0.828125
vt 0.460938 0.828125
vt 0.453125 0.828125
vt 0.429688 0.828125
vt 0.429688 0.859375
vt 0.453125 0.859375
vt 0.679688 0.718750
vt 0.648438 0.718750
vt 0.648438 0.828125
vt 0.679688 0.828125
vt 0.429688 0.718750
vt 0.484375 0.718750
vt 0.484375 0.828125
vt 0.515625 0.859375
vt 0.539062 0.859375
vt 0.648438 0.828125
vt 0.671875 0.828125
vt 0.671875 0.859375
vt 0.648438 0.859375
vt 0.703125 0.718750
vt 0.703125 0.828125
vt 0.375000 0.718750
vt 0.406250 0.718750
vt 0.375000 0.828125
vt 0.625000 0.859375
vt 0.648438 0.859375
vt 0.453125 0.718750
vt 0.468750 0.718750
vt 0.539062 0.828125
vt 0.562500 0.828125
vt 0.562500 0.859375
vt 0.539062 0.859375
vt 0.468750 0.703125
vt 0.484375 0.703125
vt 0.484375 0.718750
vt 0.468750 0.718750
vn 0.9878 0.0000 -0.1557
vn -0.0313 -0.9796 -0.1986
vn 0.0313 0.9796 0.1986
vn -0.1526 0.2011 -0.9676
vn 0.1526 -0.2011 0.9676
vn -0.9878 -0.0000 0.1557
usemtl m_0
s 1
f 38/33/7 40/34/7 39/35/7 37/36/7
f 48/37/8 42/38/8 41/39/8 47/40/8
f 46/41/7 48/42/7 47/43/7 45/44/7
f 32/45/8 26/46/8 25/47/8 31/48/8
f 44/49/9 46/41/9 45/44/9 43/50/9
f 23/51/10 17/52/10 19/53/10 21/54/10
f 28/55/9 30/56/9 29/57/9 27/58/9
f 24/59/8 18/60/8 17/61/8 23/62/8
f 22/63/11 20/64/11 18/65/11 24/66/11
f 26/46/12 28/55/12 27/58/12 25/47/12
f 34/67/12 36/68/12 35/69/12 33/70/12
f 22/71/7 24/59/7 23/62/7 21/54/7
f 30/56/7 32/72/7 31/73/7 29/57/7
f 31/74/10 25/75/10 27/58/10 29/57/10
f 38/76/11 36/77/11 34/78/11 40/79/11
f 40/80/8 34/67/8 33/70/8 39/81/8
f 18/82/12 20/83/12 19/53/12 17/84/12
f 39/85/10 33/86/10 35/69/10 37/36/10
f 47/87/10 41/88/10 43/50/10 45/44/10
f 42/38/12 44/49/12 43/50/12 41/39/12
f 36/68/9 38/33/9 37/36/9 35/69/9
f 20/83/9 22/71/9 21/54/9 19/53/9
f 30/89/11 28/90/11 26/91/11 32/92/11
f 46/93/11 44/94/11 42/95/11 48/96/11
o RightArm
v -0.393776 1.505890 -0.220670
v -0.630006 1.465587 0.620873
v -0.396888 1.755625 -0.209584
v -0.633118 1.715322 0.631960
v -0.216365 1.755625 -0.158909
v -0.452596 1.715322 0.682634
v -0.213253 1.505890 -0.169996
v -0.449483 1.465588 0.671548
v -0.402280 1.493979 -0.236625
v -0.645260 1.452525 0.628963
v -0.405704 1.768687 -0.224430
v -0.648683 1.727233 0.641158
v -0.201111 1.768687 -0.166999
v -0.444091 1.727233 0.698589
v -0.197688 1.493979 -0.179194
v -0.440668 1.452525 0.686394
v -0.390664 1.256156 -0.231757
v -0.626894 1.215853 0.609787
v -0.393776 1.505890 -0.220670
v -0.630006 1.465587 0.620873
v -0.213253 1.505890 -0.169996
v -0.449483 1.465588 0.671548
v -0.210141 1.256156 -0.181082
v -0.446371 1.215853 0.660461
v -0.472580 1.303702 0.522341
v -0.725663 1.654564 1.423920
v -0.377755 2.240130 0.184537
v -0.630838 2.590991 1.086116
v -0.335158 1.630758 -0.198236
v -0.571388 1.590455 0.643308
v -0.336714 1.755625 -0.192692
v -0.572944 1.715322 0.648851
v -0.216365 1.755625 -0.158909
v -0.452596 1.715322 0.682634
v -0.214809 1.630758 -0.164453
v -0.451039 1.590455 0.677091
vt 0.406250 0.593750
vt 0.390625 0.593750
vt 0.390625 0.703125
vt 0.406250 0.703125
vt 0.625000 1.000000
vt 0.648438 1.000000
vt 0.648438 0.968750
vt 0.625000 0.968750
vt 0.375000 0.859375
vt 0.406250 0.859375
vt 0.406250 0.968750
vt 0.375000 0.968750
vt 0.648438 0.859375
vt 0.625000 0.859375
vt 0.703125 0.859375
vt 0.679688 0.859375
vt 0.679688 0.968750
vt 0.703125 0.968750
vt 0.515625 0.859375
vt 0.484375 0.859375
vt 0.484375 0.968750
vt 0.515625 0.968750
vt 0.593750 0.859375
vt 0.593750 0.968750
vt 0.539062 0.859375
vt 0.539062 0.968750
vt 0.429688 1.000000
vt 0.406250 1.000000
vt 0.429688 0.968750
vt 0.570312 0.859375
vt 0.570312 0.968750
vt 0.421875 0.593750
vt 0.421875 0.703125
vt 0.375000 0.593750
vt 0.375000 0.703125
vt 0.718750 0.218750
vt 0.593750 0.218750
vt 0.593750 0.343750
vt 0.718750 0.343750
vt 0.429688 0.859375
vt 0.406250 0.703125
vt 0.421875 0.703125
vt 0.421875 0.718750
vt 0.406250 0.718750
vt 0.593750 0.859375
vt 0.593750 0.968750
vt 0.515625 1.000000
vt 0.539062 1.000000
vt 0.460938 0.859375
vt 0.484375 0.859375
vt 0.484375 0.968750
vt 0.460938 0.968750
vt 0.437500 0.593750
vt 0.437500 0.703125
vt 0.453125 0.968750
vt 0.429688 0.968750
vt 0.429688 1.000000
vt 0.453125 1.000000
vt 0.648438 0.968750
vt 0.671875 0.968750
vt 0.671875 1.000000
vt 0.648438 1.000000
vt 0.539062 0.968750
vt 0.562500 0.968750
vt 0.562500 1.000000
vt 0.539062 1.000000
vt 0.390625 0.718750
vt 0.406250 0.718750
vn -0.0124 0.9989 0.0443
vn 0.2700 0.0461 -0.9618
vn -0.9628 -0.0000 -0.2703
vn 0.0124 -0.9989 -0.0443
vn 0.9628 -0.0000 0.2703
vn -0.2700 -0.0461 0.9618
usemtl m_0
s 1
f 80/97/13 82/98/13 81/99/13 79/100/13
f 71/101/14 65/102/14 67/103/14 69/104/14
f 50/105/15 52/106/15 51/107/15 49/108/15
f 68/109/13 70/110/13 69/104/13 67/103/13
f 72/111/16 66/112/16 65/113/16 71/114/16
f 62/115/17 64/116/17 63/117/17 61/118/17
f 70/110/17 72/119/17 71/120/17 69/104/17
f 60/121/13 62/115/13 61/118/13 59/122/13
f 55/123/14 49/124/14 51/107/14 53/125/14
f 58/126/15 60/121/15 59/122/15 57/127/15
f 78/128/15 80/97/15 79/100/15 77/129/15
f 82/98/17 84/130/17 83/131/17 81/99/17
f 74/132/15 76/133/15 75/134/15 73/135/15
f 66/112/15 68/109/15 67/103/15 65/113/15
f 52/106/13 54/136/13 53/125/13 51/107/13
f 82/137/18 80/138/18 78/139/18 84/140/18
f 64/141/16 58/126/16 57/127/16 63/142/16
f 63/143/14 57/144/14 59/122/14 61/118/14
f 56/145/16 50/146/16 49/147/16 55/148/16
f 84/149/16 78/128/16 77/129/16 83/150/16
f 54/151/18 52/152/18 50/153/18 56/154/18
f 70/155/18 68/156/18 66/157/18 72/158/18
f 62/159/18 60/160/18 58/161/18 64/162/18
f 83/163/14 77/164/14 79/100/14 81/99/14
f 54/136/17 56/145/17 55/148/17 53/125/17
o RightLeg
v -0.246231 0.875000 0.063876
v -0.239981 0.870114 -0.186028
v -0.239981 -0.004217 -0.151828
v -0.239981 0.879886 0.063781
v -0.239981 0.005554 0.097981
v 0.010019 0.879886 0.063781
v 0.010019 0.005554 0.097981
v 0.010019 0.870114 -0.186028
v 0.010019 -0.004217 -0.151828
v -0.252481 0.882116 -0.199007
v -0.252481 -0.017196 -0.163830
v -0.252481 0.892865 0.075783
v -0.252481 -0.006448 0.110960
v 0.022519 0.892865 0.075783
v 0.022519 -0.006448 0.110960
v 0.022519 0.882116 -0.199007
v 0.022519 -0.017196 -0.163830
v -0.208731 0.870118 -0.123433
v -0.208731 -0.002208 -0.055085
v -0.208731 0.879882 0.001186
v -0.208731 0.007555 0.069533
v -0.083731 0.879882 0.001185
v -0.083731 0.007555 0.069533
v -0.083731 0.870118 -0.123433
v -0.083731 -0.002208 -0.055085
vt 0.468750 0.703125
vt 0.484375 0.703125
vt 0.484375 0.718750
vt 0.468750 0.718750
vt 0.218750 0.718750
vt 0.187500 0.718750
vt 0.187500 0.828125
vt 0.218750 0.828125
vt 0.500000 0.593750
vt 0.484375 0.593750
vt 0.484375 0.703125
vt 0.500000 0.703125
vt 0.468750 0.593750
vt 0.468750 0.703125
vt 0.250000 0.718750
vt 0.250000 0.828125
vt 0.156250 0.718750
vt 0.125000 0.718750
vt 0.125000 0.828125
vt 0.156250 0.828125
vt 0.031250 0.859375
vt 0.062500 0.859375
vt 0.062500 0.828125
vt 0.031250 0.828125
vt 0.062500 0.828125
vt 0.093750 0.828125
vt 0.093750 0.859375
vt 0.062500 0.859375
vt 0.453125 0.718750
vt 0.468750 0.718750
vt 0.453125 0.703125
vt 0.453125 0.593750
vt 0.031250 0.718750
vt 0.000000 0.718750
vt 0.000000 0.828125
vt 0.187500 0.828125
vt 0.218750 0.828125
vt 0.218750 0.859375
vt 0.187500 0.859375
vt 0.437500 0.593750
vt 0.437500 0.703125
vt 0.125000 0.718750
vt 0.093750 0.718750
vt 0.093750 0.828125
vt 0.125000 0.828125
vt 0.062500 0.718750
vt 0.156250 0.859375
vt 0.187500 0.859375
vn 0.0000 -0.9969 0.0781
vn -1.0000 0.0000 0.0000
vn -0.0000 -0.0781 -0.9969
vn -0.0000 -0.0391 -0.9992
vn 1.0000 0.0000 -0.0000
vn -0.0000 0.9992 -0.0391
vn 0.0000 -0.9992 0.0391
vn -0.0000 0.9969 -0.0781
vn 0.0000 0.0781 0.9969
vn 0.0000 0.0391 0.9992
usemtl m_0
s 1
f 107/165/19 105/166/19 103/167/19 109/168/19
f 95/169/20 97/170/20 96/171/20 94/172/20
f 109/173/21 103/174/21 102/175/21 108/176/21
f 103/174/20 105/177/20 104/178/20 102/175/20
f 101/179/22 95/169/22 94/172/22 100/180/22
f 99/181/23 101/182/23 100/183/23 98/184/23
f 92/185/24 86/186/24 88/187/24 90/188/24
f 91/189/25 89/190/25 87/191/25 93/192/25
f 108/193/26 102/194/26 104/178/26 106/195/26
f 105/177/27 107/196/27 106/195/27 104/178/27
f 91/197/23 93/198/23 92/199/23 90/188/23
f 99/200/25 97/201/25 95/202/25 101/203/25
f 107/196/23 109/204/23 108/205/23 106/195/23
f 93/206/22 87/207/22 86/208/22 92/209/22
f 89/210/28 91/197/28 90/188/28 88/187/28
f 87/207/20 89/210/20 88/187/20 86/208/20
f 100/211/24 94/212/24 96/171/24 98/184/24
f 97/170/28 99/181/28 98/184/28 96/171/28
o LeftLeg
v -0.002481 0.879886 -0.186028
v -0.002481 0.005554 -0.220228
v -0.002481 0.870114 0.063781
v -0.002481 -0.004217 0.029581
v 0.247519 0.870114 0.063781
v 0.247519 -0.004217 0.029581
v 0.247519 0.879886 -0.186028
v 0.247519 0.005554 -0.220228
v -0.014981 0.892865 -0.198030
v -0.014981 -0.006448 -0.233207
v -0.014981 0.882116 0.076760
v -0.014981 -0.017196 0.041583
v 0.260019 0.882116 0.076760
v 0.260019 -0.017196 0.041583
v 0.260019 0.892865 -0.198030
v 0.260019 -0.006448 -0.233207
v 0.091269 0.879882 -0.123433
v 0.091269 0.007555 -0.191780
v 0.091269 0.870118 0.001185
v 0.091269 -0.002209 -0.067162
v 0.216269 0.870118 0.001185
v 0.216269 -0.002209 -0.067162
v 0.216269 0.879882 -0.123433
v 0.216269 0.007555 -0.191780
vt 0.031250 0.578125
vt 0.000000 0.578125
vt 0.000000 0.687500
vt 0.031250 0.687500
vt 0.406250 0.593750
vt 0.421875 0.593750
vt 0.421875 0.703125
vt 0.406250 0.703125
vt 0.406250 0.718750
vt 0.390625 0.718750
vt 0.390625 0.703125
vt 0.031250 0.718750
vt 0.062500 0.718750
vt 0.062500 0.687500
vt 0.390625 0.593750
vt 0.125000 0.578125
vt 0.093750 0.578125
vt 0.093750 0.687500
vt 0.125000 0.687500
vt 0.062500 0.578125
vt 0.421875 0.703125
vt 0.406250 0.703125
vt 0.406250 0.718750
vt 0.421875 0.718750
vt 0.187500 0.578125
vt 0.156250 0.578125
vt 0.156250 0.687500
vt 0.187500 0.687500
vt 0.156250 0.718750
vt 0.187500 0.718750
vt 0.125000 0.578125
vt 0.125000 0.687500
vt 0.250000 0.578125
vt 0.218750 0.578125
vt 0.218750 0.687500
vt 0.250000 0.687500
vt 0.437500 0.593750
vt 0.437500 0.703125
vt 0.187500 0.687500
vt 0.218750 0.687500
vt 0.218750 0.718750
vt 0.187500 0.718750
vt 0.375000 0.593750
vt 0.375000 0.703125
vt 0.062500 0.687500
vt 0.093750 0.687500
vt 0.093750 0.718750
vt 0.062500 0.718750
vn 1.0000 0.0000 -0.0000
vn 0.0000 0.9969 0.0781
vn 0.0000 0.9992 0.0391
vn 0.0000 -0.0781 0.9969
vn 0.0000 0.0391 -0.9992
vn 0.0000 -0.0391 0.9992
vn -0.0000 -0.9969 -0.0781
vn -0.0000 0.0781 -0.9969
vn -0.0000 -0.9992 -0.0391
vn -1.0000 0.0000 0.0000
usemtl m_0
s 1
f 115/213/29 117/214/29 116/215/29 114/216/29
f 131/217/29 133/218/29 132/219/29 130/220/29
f 132/221/30 126/222/30 128/223/30 130/220/30
f 116/224/31 110/225/31 112/226/31 114/216/31
f 129/227/32 131/217/32 130/220/32 128/223/32
f 117/228/33 111/229/33 110/230/33 116/231/33
f 113/232/34 115/213/34 114/216/34 112/226/34
f 131/233/35 129/234/35 127/235/35 133/236/35
f 121/237/34 123/238/34 122/239/34 120/240/34
f 124/241/31 118/242/31 120/240/31 122/239/31
f 123/238/29 125/243/29 124/244/29 122/239/29
f 125/245/33 119/246/33 118/247/33 124/248/33
f 133/218/36 127/249/36 126/250/36 132/219/36
f 123/251/37 121/252/37 119/253/37 125/254/37
f 111/229/38 113/232/38 112/226/38 110/230/38
f 127/255/38 129/227/38 128/223/38 126/256/38
f 115/257/37 113/258/37 111/259/37 117/260/37
f 119/246/38 121/237/38 120/240/38 118/247/38
o Head
v -0.280640 2.265097 -0.230790
v -0.265799 1.768733 -0.289120
v -0.239596 2.208149 0.264258
v -0.224754 1.711785 0.205928
v 0.258496 2.227632 0.225202
v 0.273337 1.731268 0.166872
v 0.217451 2.284579 -0.269846
v 0.232293 1.788216 -0.328175
v -0.294304 2.272238 -0.241461
v -0.278720 1.751055 -0.302707
v -0.251208 2.212442 0.278340
v -0.235624 1.691260 0.217093
v 0.271789 2.232900 0.237331
v 0.287372 1.711717 0.176085
v 0.228692 2.292695 -0.282469
v 0.244276 1.771513 -0.343715
v -0.076336 1.959851 0.222159
v -0.071989 1.775951 0.185851
v -0.050037 1.900135 0.527771
v -0.045690 1.716235 0.491463
v 0.136747 1.907441 0.513125
v 0.141094 1.723541 0.476817
v 0.110448 1.967157 0.207513
v 0.114795 1.783257 0.171205
v -0.090130 1.974012 0.213331
v -0.085204 1.765592 0.172183
v -0.061727 1.909519 0.543392
v -0.056801 1.701099 0.502244
v 0.149962 1.917799 0.526794
v 0.154888 1.709379 0.485645
v 0.121559 1.982292 0.196733
v 0.126485 1.773873 0.155584
v -0.614899 2.578490 -0.024353
v -0.401459 2.058173 -0.013421
v -0.613444 2.580399 0.038101
v -0.400004 2.060082 0.049032
v -0.324406 2.698748 0.027751
v -0.110967 2.178430 0.038683
v -0.325861 2.696839 -0.034703
v -0.112422 2.176521 -0.023771
v 0.258981 2.719715 -0.080561
v 0.090890 2.184474 -0.039713
v 0.267119 2.721885 -0.018631
v 0.099029 2.186644 0.022217
v 0.562551 2.626399 -0.054110
v 0.394460 2.091157 -0.013262
v 0.554412 2.624228 -0.116040
v 0.386321 2.088987 -0.075192
vt 0.687500 0.515625
vt 0.664062 0.515625
vt 0.664062 0.539062
vt 0.687500 0.539062
vt 0.312500 0.453125
vt 0.250000 0.453125
vt 0.250000 0.515625
vt 0.312500 0.515625
vt 0.507812 0.515625
vt 0.546875 0.515625
vt 0.546875 0.507812
vt 0.507812 0.507812
vt 0.507812 0.437500
vt 0.546875 0.437500
vt 0.546875 0.507812
vt 0.507812 0.507812
vt 0.625000 0.515625
vt 0.601562 0.515625
vt 0.601562 0.539062
vt 0.625000 0.539062
vt 0.375000 0.515625
vt 0.437500 0.515625
vt 0.437500 0.578125
vt 0.375000 0.578125
vt 0.625000 0.539062
vt 0.648438 0.539062
vt 0.648438 0.578125
vt 0.625000 0.578125
vt 0.500000 0.453125
vt 0.437500 0.453125
vt 0.437500 0.515625
vt 0.500000 0.515625
vt 0.250000 0.453125
vt 0.187500 0.453125
vt 0.187500 0.515625
vt 0.250000 0.515625
vt 0.062500 0.453125
vt 0.000000 0.453125
vt 0.000000 0.515625
vt 0.062500 0.515625
vt 0.593750 0.437500
vt 0.554688 0.437500
vt 0.554688 0.507812
vt 0.593750 0.507812
vt 0.062500 0.578125
vt 0.125000 0.578125
vt 0.125000 0.515625
vt 0.312500 0.578125
vt 0.375000 0.578125
vt 0.375000 0.515625
vt 0.500000 0.437500
vt 0.500000 0.507812
vt 0.562500 0.515625
vt 0.539062 0.515625
vt 0.539062 0.539062
vt 0.562500 0.539062
vt 0.476562 0.578125
vt 0.500000 0.578125
vt 0.500000 0.539062
vt 0.476562 0.539062
vt 0.585938 0.507812
vt 0.546875 0.507812
vt 0.546875 0.515625
vt 0.585938 0.515625
vt 0.601562 0.578125
vt 0.625000 0.578125
vt 0.125000 0.515625
vt 0.187500 0.515625
vt 0.187500 0.578125
vt 0.125000 0.578125
vt 0.500000 0.515625
vt 0.476562 0.515625
vt 0.437500 0.515625
vt 0.437500 0.539062
vt 0.546875 0.437500
vt 0.507812 0.437500
vt 0.546875 0.507812
vt 0.585938 0.507812
vt 0.585938 0.515625
vt 0.546875 0.515625
vt 0.554688 0.437500
vt 0.554688 0.507812
vt 0.375000 0.453125
vt 0.500000 0.437500
vt 0.500000 0.507812
vt 0.125000 0.453125
vt 0.546875 0.515625
vt 0.507812 0.515625
vt 0.593750 0.437500
vt 0.593750 0.507812
vt 0.500000 0.539062
vt 0.523438 0.539062
vt 0.523438 0.578125
vt 0.500000 0.578125
vt 0.562500 0.515625
vt 0.562500 0.539062
vn -0.0842 0.1911 -0.9780
vn 0.9962 0.0390 -0.0781
vn -0.3794 0.9250 -0.0194
vn 0.1302 0.0347 0.9909
vn 0.0842 -0.1911 0.9780
vn 0.0297 -0.9927 -0.1167
vn 0.0232 -0.9808 -0.1936
vn -0.0821 0.1139 -0.9901
vn -0.0233 -0.0305 -0.9993
vn -0.9962 -0.0390 0.0781
vn -0.0297 0.9927 0.1167
vn -0.9454 0.3056 0.1135
vn -0.0232 0.9808 0.1936
vn -0.2988 -0.9515 0.0726
vn 0.0233 0.0305 0.9993
vn 0.3794 -0.9250 0.0194
vn 0.9454 -0.3056 -0.1135
vn 0.0821 -0.1139 0.9901
vn 0.9249 0.3787 -0.0331
vn -0.9249 -0.3787 0.0331
vn 0.2988 0.9515 -0.0726
vn -0.1302 -0.0347 -0.9909
usemtl m_0
s 1
f 165/261/39 159/262/39 158/263/39 164/264/39
f 147/265/40 149/266/40 148/267/40 146/268/40
f 172/269/41 166/270/41 168/271/41 170/272/41
f 177/273/42 179/274/42 178/275/42 176/276/42
f 161/277/43 163/278/43 162/279/43 160/280/43
f 147/281/44 145/282/44 143/283/44 149/284/44
f 163/285/45 161/286/45 159/287/45 165/288/45
f 149/289/46 143/290/46 142/291/46 148/292/46
f 141/293/46 135/294/46 134/295/46 140/296/46
f 139/297/40 141/298/40 140/299/40 138/300/40
f 173/301/47 167/302/47 166/303/47 172/304/47
f 159/262/48 161/277/48 160/280/48 158/263/48
f 140/305/49 134/306/49 136/307/49 138/300/49
f 148/308/49 142/309/49 144/310/49 146/268/49
f 175/311/50 177/273/50 176/276/50 174/312/50
f 157/313/39 151/314/39 150/315/39 156/316/39
f 156/317/51 150/318/51 152/319/51 154/320/51
f 179/321/52 177/322/52 175/323/52 181/324/52
f 164/325/51 158/326/51 160/280/51 162/279/51
f 139/327/44 137/328/44 135/329/44 141/330/44
f 153/331/43 155/332/43 154/320/43 152/319/43
f 155/332/40 157/333/40 156/334/40 154/320/40
f 169/335/53 171/336/53 170/272/53 168/271/53
f 151/314/48 153/331/48 152/319/48 150/315/48
f 171/337/54 169/338/54 167/339/54 173/340/54
f 179/274/55 181/341/55 180/342/55 178/275/55
f 145/343/56 147/265/56 146/268/56 144/310/56
f 171/336/57 173/344/57 172/345/57 170/272/57
f 135/294/48 137/346/48 136/307/48 134/295/48
f 143/290/48 145/343/48 144/310/48 142/291/48
f 167/302/58 169/335/58 168/271/58 166/303/58
f 180/347/59 174/348/59 176/276/59 178/275/59
f 181/341/60 175/349/60 174/350/60 180/342/60
f 155/351/45 153/352/45 151/353/45 157/354/45
f 137/346/56 139/297/56 138/300/56 136/307/56
f 163/278/40 165/355/40 164/356/40 162/279/40
