# Blender v3.0.0 OBJ File: 'ika.blend'
# www.blender.org
mtllib ika.mtl
o Body
v -0.498661 0.063632 0.578868
v 0.501339 0.063632 0.578868
v 0.501339 0.813058 0.608181
v -0.498661 0.813058 0.608182
v -0.498661 0.102717 -0.420368
v -0.498661 0.852144 -0.391054
v 0.501339 0.102717 -0.420368
v 0.501339 0.852144 -0.391054
v -0.436161 0.171851 -0.264634
v 0.438839 0.171851 -0.264634
v 0.438839 0.796006 -0.297126
v -0.436161 0.796006 -0.297126
v -0.436161 0.132861 -1.013620
v -0.436161 0.757015 -1.046112
v 0.438839 0.132861 -1.013620
v 0.438839 0.757015 -1.046112
v -0.373661 0.012776 0.982465
v 0.376339 0.012776 0.982465
v 0.376339 0.631949 1.067611
v -0.373661 0.631949 1.067611
v -0.373661 0.080893 0.487126
v -0.373661 0.700066 0.572273
v 0.376339 0.080893 0.487126
v 0.376339 0.700066 0.572273
vt 0.125000 0.781250
vt 0.062500 0.781250
vt 0.062500 0.875000
vt 0.125000 0.875000
vt 0.187500 0.781250
vt 0.187500 0.875000
vt 0.250000 0.781250
vt 0.250000 0.875000
vt 0.000000 0.781250
vt 0.000000 0.875000
vt 0.062500 1.000000
vt 0.125000 1.000000
vt 0.125000 0.875000
vt 0.187500 0.875000
vt 0.187500 1.000000
vt 0.125000 1.000000
vt 0.351562 0.828125
vt 0.296875 0.828125
vt 0.296875 0.906250
vt 0.351562 0.906250
vt 0.398438 0.828125
vt 0.398438 0.906250
vt 0.453125 0.828125
vt 0.453125 0.906250
vt 0.250000 0.828125
vt 0.250000 0.906250
vt 0.296875 1.000000
vt 0.351562 1.000000
vt 0.351562 0.906250
vt 0.406250 0.906250
vt 0.406250 1.000000
vt 0.351562 1.000000
vt 0.078125 0.640625
vt 0.031250 0.640625
vt 0.031250 0.718750
vt 0.078125 0.718750
vt 0.109375 0.640625
vt 0.109375 0.718750
vt 0.156250 0.640625
vt 0.156250 0.718750
vt 0.000000 0.640625
vt 0.000000 0.718750
vt 0.031250 0.781250
vt 0.078125 0.781250
vt 0.078125 0.718750
vt 0.125000 0.718750
vt 0.125000 0.781250
vt 0.078125 0.781250
vn 0.0000 -0.0391 0.9992
vn -1.0000 0.0000 0.0000
vn -0.0000 0.0391 -0.9992
vn 1.0000 0.0000 -0.0000
vn 0.0000 0.9992 0.0391
vn -0.0000 -0.9992 -0.0391
vn 0.0000 0.0520 0.9986
vn -0.0000 -0.0520 -0.9986
vn -0.0000 0.9986 -0.0520
vn 0.0000 -0.9986 0.0520
vn 0.0000 -0.1362 0.9907
vn -0.0000 0.1362 -0.9907
vn 0.0000 0.9907 0.1362
vn -0.0000 -0.9907 -0.1362
usemtl Default_OBJ
s 1
f 1/1/1 2/2/1 3/3/1 4/4/1
f 5/5/2 1/1/2 4/4/2 6/6/2
f 7/7/3 5/5/3 6/6/3 8/8/3
f 2/2/4 7/9/4 8/10/4 3/3/4
f 8/11/5 6/12/5 4/4/5 3/3/5
f 2/13/6 1/14/6 5/15/6 7/16/6
f 9/17/7 10/18/7 11/19/7 12/20/7
f 13/21/2 9/17/2 12/20/2 14/22/2
f 15/23/8 13/21/8 14/22/8 16/24/8
f 10/18/4 15/25/4 16/26/4 11/19/4
f 16/27/9 14/28/9 12/20/9 11/19/9
f 10/29/10 9/30/10 13/31/10 15/32/10
f 17/33/11 18/34/11 19/35/11 20/36/11
f 21/37/2 17/33/2 20/36/2 22/38/2
f 23/39/12 21/37/12 22/38/12 24/40/12
f 18/34/4 23/41/4 24/42/4 19/35/4
f 24/43/13 22/44/13 20/36/13 19/35/13
f 18/45/14 17/46/14 21/47/14 23/48/14
o Head
v -0.311161 0.036678 1.403649
v 0.313839 0.036678 1.403649
v 0.313839 0.536505 1.416825
v -0.311161 0.536505 1.416825
v -0.311161 0.049854 0.903823
v -0.311161 0.549680 0.916999
v 0.313839 0.049854 0.903823
v 0.313839 0.549680 0.916999
v -0.248660 0.170339 1.776741
v 0.251339 0.170339 1.776741
v 0.251339 0.541807 1.725393
v -0.248661 0.541807 1.725393
v -0.248661 0.118992 1.405273
v -0.248661 0.490460 1.353926
v 0.251339 0.118992 1.405273
v 0.251339 0.490460 1.353925
v -0.186160 0.220421 1.955526
v 0.188840 0.220421 1.955526
v 0.188840 0.578708 1.844823
v -0.186160 0.578708 1.844823
v -0.186161 0.035916 1.358380
v -0.186161 0.394203 1.247677
v 0.188839 0.035916 1.358380
v 0.188839 0.394203 1.247677
v -0.215218 0.172094 1.871047
v -0.152473 0.132675 1.971716
v -0.334045 0.383588 2.183138
v -0.396790 0.423007 2.082469
v -0.125636 0.256212 1.848150
v -0.307209 0.507125 2.059573
v -0.062891 0.216793 1.948819
v -0.244463 0.467706 2.160241
v 0.130152 0.132675 1.971716
v 0.192897 0.172094 1.871047
v 0.374469 0.423007 2.082469
v 0.311724 0.383588 2.183138
v 0.040570 0.216793 1.948819
v 0.222142 0.467706 2.160241
v 0.103315 0.256212 1.848150
v 0.284888 0.507125 2.059573
v -0.239822 0.403624 1.689240
v -0.212506 0.362930 1.804231
v -0.484521 0.733916 2.000132
v -0.511837 0.774610 1.885141
v -0.138558 0.476885 1.691111
v -0.410573 0.847871 1.887012
v -0.111242 0.436191 1.806102
v -0.383257 0.807177 2.002003
v 0.215185 0.362930 1.804231
v 0.242501 0.403624 1.689240
v 0.514516 0.774610 1.885141
v 0.487200 0.733916 2.000132
v 0.113921 0.436191 1.806102
v 0.385936 0.807177 2.002003
v 0.141237 0.476885 1.691111
v 0.413252 0.847871 1.887012
v -0.300309 0.100411 1.402494
v -0.554990 0.158755 1.970260
v -0.286161 0.224443 1.396094
v -0.540842 0.282787 1.963861
v 0.302988 0.100411 1.402494
v 0.557669 0.158755 1.970260
v 0.288839 0.224443 1.396094
v 0.543521 0.282787 1.963861
vt 0.226562 0.656250
vt 0.187500 0.656250
vt 0.187500 0.718750
vt 0.226562 0.718750
vt 0.257812 0.656250
vt 0.257812 0.718750
vt 0.296875 0.656250
vt 0.296875 0.718750
vt 0.156250 0.656250
vt 0.156250 0.718750
vt 0.187500 0.781250
vt 0.226562 0.781250
vt 0.226562 0.718750
vt 0.265625 0.718750
vt 0.265625 0.781250
vt 0.226562 0.781250
vt 0.320312 0.734375
vt 0.289062 0.734375
vt 0.289062 0.781250
vt 0.320312 0.781250
vt 0.343750 0.734375
vt 0.343750 0.781250
vt 0.375000 0.734375
vt 0.375000 0.781250
vt 0.265625 0.734375
vt 0.265625 0.781250
vt 0.289062 0.828125
vt 0.320312 0.828125
vt 0.320312 0.781250
vt 0.351562 0.781250
vt 0.351562 0.828125
vt 0.320312 0.828125
vt 0.398438 0.687500
vt 0.375000 0.687500
vt 0.375000 0.734375
vt 0.398438 0.734375
vt 0.437500 0.687500
vt 0.437500 0.734375
vt 0.460938 0.687500
vt 0.460938 0.734375
vt 0.335938 0.687500
vt 0.335938 0.734375
vt 0.375000 0.812500
vt 0.398438 0.812500
vt 0.398438 0.734375
vt 0.421875 0.734375
vt 0.421875 0.812500
vt 0.398438 0.812500
vt 0.031250 0.937500
vt 0.023438 0.937500
vt 0.023438 0.984375
vt 0.031250 0.984375
vt 0.039062 0.937500
vt 0.039062 0.984375
vt 0.046875 0.937500
vt 0.046875 0.984375
vt 0.015625 0.937500
vt 0.015625 0.984375
vt 0.023438 1.000000
vt 0.031250 1.000000
vt 0.031250 0.984375
vt 0.039062 0.984375
vt 0.039062 1.000000
vt 0.031250 1.000000
vt 0.023438 0.937500
vt 0.031250 0.937500
vt 0.031250 0.984375
vt 0.023438 0.984375
vt 0.015625 0.937500
vt 0.015625 0.984375
vt 0.039062 0.937500
vt 0.046875 0.937500
vt 0.046875 0.984375
vt 0.039062 0.984375
vt 0.031250 1.000000
vt 0.023438 1.000000
vt 0.039062 0.984375
vt 0.031250 0.984375
vt 0.031250 1.000000
vt 0.039062 1.000000
vt 0.031250 0.921875
vt 0.023438 0.921875
vt 0.023438 0.984375
vt 0.031250 0.984375
vt 0.039062 0.921875
vt 0.039062 0.984375
vt 0.046875 0.921875
vt 0.046875 0.984375
vt 0.015625 0.921875
vt 0.015625 0.984375
vt 0.023438 1.000000
vt 0.031250 1.000000
vt 0.031250 0.984375
vt 0.039062 0.984375
vt 0.039062 1.000000
vt 0.031250 1.000000
vt 0.023438 0.921875
vt 0.031250 0.921875
vt 0.031250 0.984375
vt 0.023438 0.984375
vt 0.015625 0.921875
vt 0.015625 0.984375
vt 0.039062 0.921875
vt 0.046875 0.921875
vt 0.046875 0.984375
vt 0.039062 0.984375
vt 0.031250 1.000000
vt 0.023438 1.000000
vt 0.039062 0.984375
vt 0.031250 0.984375
vt 0.031250 1.000000
vt 0.039062 1.000000
vt 0.015625 0.921875
vt 0.007812 0.921875
vt 0.007812 1.000000
vt 0.015625 1.000000
vt 0.007812 0.921875
vt 0.015625 0.921875
vt 0.015625 1.000000
vt 0.007812 1.000000
vn 0.0000 -0.0264 0.9997
vn -1.0000 0.0000 0.0000
vn -0.0000 0.0264 -0.9997
vn 1.0000 0.0000 -0.0000
vn 0.0000 0.9997 0.0264
vn -0.0000 -0.9997 -0.0264
vn 0.0000 0.1369 0.9906
vn -0.0000 -0.1369 -0.9906
vn -0.0000 0.9906 -0.1369
vn 0.0000 -0.9906 0.1369
vn 0.0000 0.2952 0.9554
vn 0.0000 -0.2952 -0.9554
vn -0.0000 0.9554 -0.2952
vn 0.0000 -0.9554 0.2952
vn -0.7167 -0.6729 0.1832
vn -0.5020 0.3154 -0.8053
vn 0.7167 0.6729 -0.1832
vn 0.5020 -0.3154 0.8053
vn -0.4842 0.6691 0.5638
vn 0.4842 -0.6691 -0.5638
vn 0.7167 -0.6729 0.1832
vn -0.5020 -0.3154 0.8053
vn -0.7167 0.6729 -0.1832
vn 0.5020 0.3154 -0.8053
vn 0.4842 0.6691 0.5638
vn -0.4842 -0.6691 -0.5638
vn -0.8101 -0.5861 -0.0150
vn -0.2185 0.3255 -0.9199
vn 0.8101 0.5861 0.0150
vn 0.2185 -0.3255 0.9199
vn -0.5440 0.7420 0.3918
vn 0.5440 -0.7420 -0.3918
vn 0.8101 -0.5861 -0.0150
vn -0.2185 -0.3255 0.9199
vn -0.8101 0.5861 0.0150
vn 0.2185 0.3255 -0.9199
vn 0.5440 0.7420 0.3918
vn -0.5440 -0.7420 -0.3918
vn -0.9062 0.0820 -0.4149
vn 0.9062 0.0820 -0.4149
usemtl Default_OBJ
s 1
f 25/49/15 26/50/15 27/51/15 28/52/15
f 29/53/16 25/49/16 28/52/16 30/54/16
f 31/55/17 29/53/17 30/54/17 32/56/17
f 26/50/18 31/57/18 32/58/18 27/51/18
f 32/59/19 30/60/19 28/52/19 27/51/19
f 26/61/20 25/62/20 29/63/20 31/64/20
f 33/65/21 34/66/21 35/67/21 36/68/21
f 37/69/16 33/65/16 36/68/16 38/70/16
f 39/71/22 37/69/22 38/70/22 40/72/22
f 34/66/18 39/73/18 40/74/18 35/67/18
f 40/75/23 38/76/23 36/68/23 35/67/23
f 34/77/24 33/78/24 37/79/24 39/80/24
f 41/81/25 42/82/25 43/83/25 44/84/25
f 45/85/16 41/81/16 44/84/16 46/86/16
f 47/87/26 45/85/26 46/86/26 48/88/26
f 42/82/18 47/89/18 48/90/18 43/83/18
f 48/91/27 46/92/27 44/84/27 43/83/27
f 42/93/28 41/94/28 45/95/28 47/96/28
f 49/97/29 50/98/29 51/99/29 52/100/29
f 53/101/30 49/97/30 52/100/30 54/102/30
f 55/103/31 53/101/31 54/102/31 56/104/31
f 50/98/32 55/105/32 56/106/32 51/99/32
f 56/107/33 54/108/33 52/100/33 51/99/33
f 50/109/34 49/110/34 53/111/34 55/112/34
f 57/113/35 58/114/35 59/115/35 60/116/35
f 61/117/36 57/113/36 60/116/36 62/118/36
f 63/119/37 61/120/37 62/121/37 64/122/37
f 58/114/38 63/119/38 64/122/38 59/115/38
f 64/123/39 62/124/39 60/116/39 59/115/39
f 58/125/40 57/126/40 61/127/40 63/128/40
f 65/129/41 66/130/41 67/131/41 68/132/41
f 69/133/42 65/129/42 68/132/42 70/134/42
f 71/135/43 69/133/43 70/134/43 72/136/43
f 66/130/44 71/137/44 72/138/44 67/131/44
f 72/139/45 70/140/45 68/132/45 67/131/45
f 66/141/46 65/142/46 69/143/46 71/144/46
f 73/145/47 74/146/47 75/147/47 76/148/47
f 77/149/48 73/145/48 76/148/48 78/150/48
f 79/151/49 77/152/49 78/153/49 80/154/49
f 74/146/50 79/151/50 80/154/50 75/147/50
f 80/155/51 78/156/51 76/148/51 75/147/51
f 74/157/52 73/158/52 77/159/52 79/160/52
f 83/161/53 81/162/53 82/163/53 84/164/53
f 85/165/54 87/166/54 88/167/54 86/168/54
o LegLeft
v 0.200032 0.051311 0.993194
v 0.805772 -0.059756 1.099811
v 0.833966 0.174187 1.183334
v 0.228226 0.285253 1.076717
v 0.282157 0.165520 0.645578
v 0.310351 0.399462 0.729101
v 0.887898 0.054453 0.752196
v 0.916092 0.288396 0.835718
v 0.820009 0.012384 1.080796
v 1.674178 -0.024058 0.894534
v 1.690323 0.088446 0.946564
v 0.836155 0.124888 1.132826
v 0.754663 0.175070 0.749302
v 0.770809 0.287574 0.801332
v 1.608832 0.138627 0.563039
v 1.624977 0.251131 0.615070
v 2.729664 0.047856 0.561655
v 0.356927 0.024348 1.348780
v -0.002185 0.568999 0.282528
v 2.370552 0.592507 -0.504598
vt 0.023438 0.562500
vt 0.062500 0.562500
vt 0.062500 0.593750
vt 0.023438 0.593750
vt 0.000000 0.562500
vt 0.000000 0.593750
vt 0.085938 0.562500
vt 0.125000 0.562500
vt 0.125000 0.593750
vt 0.085938 0.593750
vt 0.062500 0.640625
vt 0.023438 0.640625
vt 0.101562 0.593750
vt 0.062500 0.593750
vt 0.062500 0.640625
vt 0.101562 0.640625
vt 0.023438 0.500000
vt 0.078125 0.500000
vt 0.078125 0.515625
vt 0.023438 0.515625
vt 0.000000 0.500000
vt 0.000000 0.515625
vt 0.101562 0.500000
vt 0.156250 0.500000
vt 0.156250 0.515625
vt 0.101562 0.515625
vt 0.078125 0.562500
vt 0.023438 0.562500
vt 0.132812 0.515625
vt 0.078125 0.515625
vt 0.078125 0.562500
vt 0.132812 0.562500
vt 0.312500 0.656250
vt 0.156250 0.656250
vt 0.156250 0.500000
vt 0.312500 0.500000
vn -0.2190 -0.3046 0.9270
vn -0.9692 0.1777 -0.1706
vn 0.2190 0.3046 -0.9270
vn 0.9692 -0.1777 0.1706
vn 0.1128 0.9358 0.3341
vn -0.1128 -0.9358 -0.3341
vn 0.1743 -0.4338 0.8840
vn -0.9762 0.0416 0.2129
vn -0.1743 0.4338 -0.8840
vn 0.9762 -0.0416 -0.2129
vn 0.1292 0.9000 0.4162
vn -0.1292 -0.9000 -0.4162
usemtl Default_OBJ
s 1
f 89/169/55 90/170/55 91/171/55 92/172/55
f 93/173/56 89/169/56 92/172/56 94/174/56
f 95/175/57 93/176/57 94/177/57 96/178/57
f 90/170/58 95/175/58 96/178/58 91/171/58
f 96/179/59 94/180/59 92/172/59 91/171/59
f 90/181/60 89/182/60 93/183/60 95/184/60
f 97/185/61 98/186/61 99/187/61 100/188/61
f 101/189/62 97/185/62 100/188/62 102/190/62
f 103/191/63 101/192/63 102/193/63 104/194/63
f 98/186/64 103/191/64 104/194/64 99/187/64
f 104/195/65 102/196/65 100/188/65 99/187/65
f 98/197/66 97/198/66 101/199/66 103/200/66
f 108/201/65 107/202/65 106/203/65 105/204/65
o LegRight
v -0.803093 -0.059756 1.099812
v -0.197353 0.051311 0.993194
v -0.225547 0.285253 1.076717
v -0.831288 0.174187 1.183334
v -0.885219 0.054453 0.752196
v -0.913413 0.288396 0.835718
v -0.279478 0.165520 0.645578
v -0.307672 0.399462 0.729101
v -1.671498 -0.024058 0.894534
v -0.817330 0.012384 1.080796
v -0.833476 0.124888 1.132826
v -1.687644 0.088446 0.946564
v -1.606153 0.138627 0.563040
v -1.622298 0.251131 0.615070
v -0.751985 0.175070 0.749302
v -0.768130 0.287574 0.801332
v -0.354248 0.024348 1.348780
v -2.726985 0.047856 0.561655
v -2.367874 0.592507 -0.504597
v 0.004863 0.568999 0.282528
vt 0.062500 0.562500
vt 0.023438 0.562500
vt 0.023438 0.593750
vt 0.062500 0.593750
vt 0.085938 0.562500
vt 0.085938 0.593750
vt 0.125000 0.562500
vt 0.125000 0.593750
vt 0.000000 0.562500
vt 0.000000 0.593750
vt 0.023438 0.640625
vt 0.062500 0.640625
vt 0.062500 0.593750
vt 0.101562 0.593750
vt 0.101562 0.640625
vt 0.062500 0.640625
vt 0.078125 0.500000
vt 0.023438 0.500000
vt 0.023438 0.515625
vt 0.078125 0.515625
vt 0.101562 0.500000
vt 0.101562 0.515625
vt 0.156250 0.500000
vt 0.156250 0.515625
vt 0.000000 0.500000
vt 0.000000 0.515625
vt 0.023438 0.562500
vt 0.078125 0.562500
vt 0.078125 0.515625
vt 0.132812 0.515625
vt 0.132812 0.562500
vt 0.078125 0.562500
vt 0.156250 0.656250
vt 0.312500 0.656250
vt 0.312500 0.500000
vt 0.156250 0.500000
vn 0.2190 -0.3046 0.9270
vn -0.9692 -0.1777 0.1706
vn -0.2190 0.3046 -0.9270
vn 0.9692 0.1777 -0.1706
vn -0.1128 0.9358 0.3341
vn 0.1128 -0.9358 -0.3341
vn -0.1743 -0.4338 0.8840
vn -0.9762 -0.0416 -0.2129
vn 0.1743 0.4338 -0.8840
vn 0.9762 0.0416 0.2129
vn -0.1292 0.9000 0.4162
vn 0.1292 -0.9000 -0.4162
usemtl Default_OBJ
s 1
f 109/205/67 110/206/67 111/207/67 112/208/67
f 113/209/68 109/205/68 112/208/68 114/210/68
f 115/211/69 113/209/69 114/210/69 116/212/69
f 110/206/70 115/213/70 116/214/70 111/207/70
f 116/215/71 114/216/71 112/208/71 111/207/71
f 110/217/72 109/218/72 113/219/72 115/220/72
f 117/221/73 118/222/73 119/223/73 120/224/73
f 121/225/74 117/221/74 120/224/74 122/226/74
f 123/227/75 121/225/75 122/226/75 124/228/75
f 118/222/76 123/229/76 124/230/76 119/223/76
f 124/231/77 122/232/77 120/224/77 119/223/77
f 118/233/78 117/234/78 121/235/78 123/236/78
f 128/237/77 127/238/77 126/239/77 125/240/77
o Shell
v -0.186161 0.037728 -2.517270
v 0.188839 0.037728 -2.517270
v 0.188839 0.405587 -2.444432
v -0.186161 0.405587 -2.444432
v -0.186161 0.134846 -3.007747
v -0.186161 0.502704 -2.934910
v 0.188839 0.134846 -3.007747
v 0.188839 0.502704 -2.934910
v -0.248661 0.037729 -1.892270
v 0.251339 0.037729 -1.892270
v 0.251339 0.537729 -1.892270
v -0.248661 0.537729 -1.892270
v -0.248661 0.037728 -2.517270
v -0.248661 0.537728 -2.517270
v 0.251339 0.037728 -2.517270
v 0.251339 0.537728 -2.517270
v -0.373661 0.125492 -1.147423
v 0.376339 0.125492 -1.147423
v 0.376339 0.746198 -1.220559
v -0.373661 0.746198 -1.220559
v -0.373661 0.037729 -1.892270
v -0.373661 0.658435 -1.965406
v 0.376339 0.037729 -1.892270
v 0.376339 0.658435 -1.965406
v -0.498661 0.146104 -0.571608
v 0.501339 0.146104 -0.571608
v 0.501339 0.895531 -0.600922
v -0.498661 0.895531 -0.600922
v -0.498661 0.121675 -1.196130
v -0.498661 0.871102 -1.225444
v 0.501339 0.121675 -1.196130
v 0.501339 0.871102 -1.225444
v -0.686161 0.403699 1.072564
v 0.688839 0.403699 1.072564
v 0.688839 0.903317 1.092106
v -0.686161 0.903317 1.092107
v -0.686161 0.496526 -1.300621
v -0.686161 0.996144 -1.281078
v 0.688839 0.496526 -1.300621
v 0.688839 0.996144 -1.281079
v -0.561161 0.020531 0.649078
v 0.563839 0.020531 0.649078
v 0.563839 0.895531 0.649078
v -0.561161 0.895531 0.649078
v -0.561161 0.020531 -0.600922
v -0.561161 0.895531 -0.600922
v 0.563839 0.020531 -0.600922
v 0.563839 0.895531 -0.600922
vt 0.843750 0.750000
vt 0.820312 0.750000
vt 0.820312 0.796875
vt 0.843750 0.796875
vt 0.875000 0.750000
vt 0.875000 0.796875
vt 0.898438 0.750000
vt 0.898438 0.796875
vt 0.789062 0.750000
vt 0.789062 0.796875
vt 0.820312 0.859375
vt 0.843750 0.859375
vt 0.843750 0.796875
vt 0.867188 0.796875
vt 0.867188 0.859375
vt 0.843750 0.859375
vt 0.843750 0.750000
vt 0.820312 0.750000
vt 0.820312 0.796875
vt 0.843750 0.796875
vt 0.875000 0.750000
vt 0.875000 0.796875
vt 0.898438 0.750000
vt 0.898438 0.796875
vt 0.789062 0.750000
vt 0.789062 0.796875
vt 0.820312 0.859375
vt 0.843750 0.859375
vt 0.843750 0.796875
vt 0.867188 0.796875
vt 0.867188 0.859375
vt 0.843750 0.859375
vt 0.867188 0.859375
vt 0.828125 0.859375
vt 0.828125 0.921875
vt 0.867188 0.921875
vt 0.906250 0.859375
vt 0.906250 0.921875
vt 0.945312 0.859375
vt 0.945312 0.921875
vt 0.789062 0.859375
vt 0.789062 0.921875
vt 0.828125 1.000000
vt 0.867188 1.000000
vt 0.867188 0.921875
vt 0.906250 0.921875
vt 0.906250 1.000000
vt 0.867188 1.000000
vt 0.789062 0.468750
vt 0.726562 0.468750
vt 0.726562 0.562500
vt 0.789062 0.562500
vt 0.828125 0.468750
vt 0.828125 0.562500
vt 0.890625 0.468750
vt 0.890625 0.562500
vt 0.687500 0.468750
vt 0.687500 0.562500
vt 0.726562 0.640625
vt 0.789062 0.640625
vt 0.789062 0.562500
vt 0.851562 0.562500
vt 0.851562 0.640625
vt 0.789062 0.640625
vt 0.703125 0.640625
vt 0.617188 0.640625
vt 0.617188 0.703125
vt 0.703125 0.703125
vt 0.851562 0.640625
vt 0.851562 0.703125
vt 0.937500 0.640625
vt 0.937500 0.703125
vt 0.468750 0.640625
vt 0.468750 0.703125
vt 0.617188 1.000000
vt 0.703125 1.000000
vt 0.703125 0.703125
vt 0.789062 0.703125
vt 0.789062 1.000000
vt 0.703125 1.000000
vt 0.539062 0.375000
vt 0.468750 0.375000
vt 0.468750 0.484375
vt 0.539062 0.484375
vt 0.617188 0.375000
vt 0.617188 0.484375
vt 0.687500 0.375000
vt 0.687500 0.484375
vt 0.390625 0.375000
vt 0.390625 0.484375
vt 0.468750 0.640625
vt 0.539062 0.640625
vt 0.539062 0.484375
vt 0.609375 0.484375
vt 0.609375 0.640625
vt 0.539062 0.640625
vn 0.0000 -0.1942 0.9810
vn -1.0000 0.0000 0.0000
vn 0.0000 0.1942 -0.9810
vn 1.0000 -0.0000 -0.0000
vn 0.0000 0.9810 0.1942
vn 0.0000 -0.9810 -0.1942
vn 0.0000 -0.0000 1.0000
vn 0.0000 0.0000 -1.0000
vn 0.0000 1.0000 -0.0000
vn 0.0000 -1.0000 0.0000
vn 0.0000 0.1170 0.9931
vn 0.0000 -0.1170 -0.9931
vn 0.0000 0.9931 -0.1170
vn 0.0000 -0.9931 0.1170
vn 0.0000 0.0391 0.9992
vn 0.0000 -0.0391 -0.9992
vn -0.0000 0.9992 -0.0391
vn 0.0000 -0.9992 0.0391
vn 0.0000 -0.0391 0.9992
vn -0.0000 0.0391 -0.9992
vn 0.0000 0.9992 0.0391
vn -0.0000 -0.9992 -0.0391
usemtl Default_OBJ
s 1
f 129/241/79 130/242/79 131/243/79 132/244/79
f 133/245/80 129/241/80 132/244/80 134/246/80
f 135/247/81 133/245/81 134/246/81 136/248/81
f 130/242/82 135/249/82 136/250/82 131/243/82
f 136/251/83 134/252/83 132/244/83 131/243/83
f 130/253/84 129/254/84 133/255/84 135/256/84
f 137/257/85 138/258/85 139/259/85 140/260/85
f 141/261/80 137/257/80 140/260/80 142/262/80
f 143/263/86 141/261/86 142/262/86 144/264/86
f 138/258/82 143/265/82 144/266/82 139/259/82
f 144/267/87 142/268/87 140/260/87 139/259/87
f 138/269/88 137/270/88 141/271/88 143/272/88
f 145/273/89 146/274/89 147/275/89 148/276/89
f 149/277/80 145/273/80 148/276/80 150/278/80
f 151/279/90 149/277/90 150/278/90 152/280/90
f 146/274/82 151/281/82 152/282/82 147/275/82
f 152/283/91 150/284/91 148/276/91 147/275/91
f 146/285/92 145/286/92 149/287/92 151/288/92
f 153/289/93 154/290/93 155/291/93 156/292/93
f 157/293/80 153/289/80 156/292/80 158/294/80
f 159/295/94 157/293/94 158/294/94 160/296/94
f 154/290/82 159/297/82 160/298/82 155/291/82
f 160/299/95 158/300/95 156/292/95 155/291/95
f 154/301/96 153/302/96 157/303/96 159/304/96
f 161/305/97 162/306/97 163/307/97 164/308/97
f 165/309/80 161/305/80 164/308/80 166/310/80
f 167/311/98 165/309/98 166/310/98 168/312/98
f 162/306/82 167/313/82 168/314/82 163/307/82
f 168/315/99 166/316/99 164/308/99 163/307/99
f 162/317/100 161/318/100 165/319/100 167/320/100
f 169/321/85 170/322/85 171/323/85 172/324/85
f 173/325/80 169/321/80 172/324/80 174/326/80
f 175/327/86 173/325/86 174/326/86 176/328/86
f 170/322/82 175/329/82 176/330/82 171/323/82
f 176/331/87 174/332/87 172/324/87 171/323/87
f 170/333/88 169/334/88 173/335/88 175/336/88
o Tail
v -0.311161 0.222819 -0.860196
v 0.313839 0.222819 -0.860196
v 0.313839 0.713946 -0.953972
v -0.311161 0.713946 -0.953972
v -0.311161 0.105598 -1.474105
v -0.311161 0.596725 -1.567881
v 0.313839 0.105598 -1.474105
v 0.313839 0.596725 -1.567881
v -0.186161 0.206643 -1.348090
v 0.188839 0.206643 -1.348090
v 0.188839 0.566349 -1.454093
v -0.186161 0.566349 -1.454093
v -0.186161 0.065305 -1.827697
v -0.186161 0.425011 -1.933701
v 0.188839 0.065305 -1.827697
v 0.188839 0.425011 -1.933701
v -0.105268 0.228009 -0.345154
v -0.442840 1.431486 -0.358881
v -0.131676 0.192089 -2.844756
v -0.469249 1.395566 -2.858483
v 0.107946 0.228009 -0.345154
v 0.445518 1.431486 -0.358882
v 0.134354 0.192089 -2.844756
v 0.471926 1.395566 -2.858484
vt 0.531250 0.859375
vt 0.492188 0.859375
vt 0.492188 0.921875
vt 0.531250 0.921875
vt 0.570312 0.859375
vt 0.570312 0.921875
vt 0.609375 0.859375
vt 0.609375 0.921875
vt 0.453125 0.859375
vt 0.453125 0.921875
vt 0.492188 1.000000
vt 0.531250 1.000000
vt 0.531250 0.921875
vt 0.570312 0.921875
vt 0.570312 1.000000
vt 0.531250 1.000000
vt 0.476562 0.750000
vt 0.453125 0.750000
vt 0.453125 0.796875
vt 0.476562 0.796875
vt 0.507812 0.750000
vt 0.507812 0.796875
vt 0.531250 0.750000
vt 0.531250 0.796875
vt 0.421875 0.750000
vt 0.421875 0.796875
vt 0.453125 0.859375
vt 0.476562 0.859375
vt 0.476562 0.796875
vt 0.500000 0.796875
vt 0.500000 0.859375
vt 0.476562 0.859375
vt 0.312500 0.343750
vt 0.156250 0.343750
vt 0.156250 0.500000
vt 0.312500 0.500000
vt 0.312500 0.343750
vt 0.156250 0.343750
vt 0.156250 0.500000
vt 0.312500 0.500000
vn 0.0000 0.1876 0.9823
vn -1.0000 0.0000 0.0000
vn 0.0000 -0.1876 -0.9823
vn 1.0000 -0.0000 -0.0000
vn 0.0000 0.9823 -0.1876
vn 0.0000 -0.9823 0.1876
vn 0.0000 0.2827 0.9592
vn 0.0000 -0.2827 -0.9592
vn -0.0000 0.9592 -0.2827
vn 0.0000 -0.9592 0.2827
vn -0.9628 -0.2699 0.0141
vn -0.9628 0.2699 -0.0141
usemtl Default_OBJ
s 1
f 177/337/101 178/338/101 179/339/101 180/340/101
f 181/341/102 177/337/102 180/340/102 182/342/102
f 183/343/103 181/341/103 182/342/103 184/344/103
f 178/338/104 183/345/104 184/346/104 179/339/104
f 184/347/105 182/348/105 180/340/105 179/339/105
f 178/349/106 177/350/106 181/351/106 183/352/106
f 185/353/107 186/354/107 187/355/107 188/356/107
f 189/357/102 185/353/102 188/356/102 190/358/102
f 191/359/108 189/357/108 190/358/108 192/360/108
f 186/354/104 191/361/104 192/362/104 187/355/104
f 192/363/109 190/364/109 188/356/109 187/355/109
f 186/365/110 185/366/110 189/367/110 191/368/110
f 195/369/111 193/370/111 194/371/111 196/372/111
f 199/373/112 197/374/112 198/375/112 200/376/112
