# Blender v2.83.0 OBJ File: ''
# www.blender.org
mtllib cinderblade.mtl
o Base
v -0.063373 0.015000 1.210646
v -0.016498 0.015000 1.129456
v 0.017817 0.015000 1.257521
v 0.064692 0.015000 1.176331
v 0.017817 0.030625 1.257521
v 0.064692 0.030625 1.176331
v -0.063373 0.030625 1.210646
v -0.016498 0.030625 1.129456
v -0.062500 -0.031250 1.160761
v -0.062500 -0.031250 -0.089239
v 0.062500 -0.031250 1.160761
v 0.062500 -0.031250 -0.089239
v 0.062500 0.031250 1.160761
v 0.062500 0.031250 -0.089239
v -0.062500 0.031250 1.160761
v -0.062500 0.031250 -0.089239
v -0.061250 -0.030000 1.284511
v -0.061250 -0.030000 1.162011
v -0.001250 -0.030000 1.284511
v -0.001250 -0.030000 1.162011
v -0.001250 0.030000 1.284511
v -0.001250 0.030000 1.162011
v -0.061250 0.030000 1.284511
v -0.061250 0.030000 1.162011
v -0.060625 -0.029375 1.177636
v -0.060625 -0.029375 1.118886
v 0.060625 -0.029375 1.177636
v 0.060625 -0.029375 1.118886
v 0.060625 0.029375 1.177636
v 0.060625 0.029375 1.118886
v -0.060625 0.029375 1.177636
v -0.060625 0.029375 1.118886
v -0.093436 -0.000000 1.392011
v -0.093436 -0.000000 -0.089239
v -0.062500 -0.030936 1.392011
v -0.062500 -0.030936 -0.089239
v -0.031565 -0.000000 1.392011
v -0.031564 -0.000000 -0.089239
v -0.062500 0.030936 1.392011
v -0.062500 0.030936 -0.089239
v 0.062500 -0.030936 1.198261
v 0.062500 -0.030936 -0.095489
v 0.093436 0.000000 1.198261
v 0.093436 0.000000 -0.095489
v 0.062500 0.030936 1.198261
v 0.062500 0.030936 -0.095489
v 0.031564 0.000000 1.198261
v 0.031564 0.000000 -0.095489
v -0.110307 -0.000000 1.416543
v 0.039693 0.000000 1.156735
v -0.079688 -0.035355 1.434220
v 0.070312 -0.035355 1.174413
v -0.049069 -0.000000 1.451898
v 0.100931 0.000000 1.192090
v -0.079688 0.035355 1.434220
v 0.070312 0.035355 1.174413
v -0.023745 0.000625 1.268888
v -0.008745 0.000625 1.242907
v 0.002236 0.000625 1.283888
v 0.017236 0.000625 1.257907
v 0.002236 0.030625 1.283888
v 0.017236 0.030625 1.257907
v -0.023745 0.030625 1.268888
v -0.008745 0.030625 1.242907
v -0.063373 -0.028750 1.210646
v -0.016498 -0.028750 1.129456
v 0.017817 -0.028750 1.257521
v 0.064692 -0.028750 1.176331
v 0.017817 -0.013125 1.257521
v 0.064692 -0.013125 1.176331
v -0.063373 -0.013125 1.210646
v -0.016498 -0.013125 1.129456
v -0.023745 -0.028750 1.268888
v -0.008745 -0.028750 1.242907
v 0.002236 -0.028750 1.283888
v 0.017236 -0.028750 1.257907
v 0.002236 0.001250 1.283888
v 0.017236 0.001250 1.257907
v -0.023745 0.001250 1.268888
v -0.008745 0.001250 1.242907
vt 0.312988 0.780762
vt 0.312988 0.719238
vt 0.374512 0.780762
vt 0.374512 0.719238
vt 0.375488 0.780762
vt 0.375488 0.719238
vt 0.437012 0.780762
vt 0.437012 0.719238
vt 0.375488 0.781738
vt 0.375488 0.843262
vt 0.374512 0.781738
vt 0.374512 0.843262
vt 0.375488 0.843262
vt 0.375488 0.781738
vt 0.374512 0.843262
vt 0.374512 0.781738
vt 0.437988 0.780762
vt 0.437988 0.719238
vt 0.437012 0.780762
vt 0.437012 0.719238
vt 0.375488 0.780762
vt 0.375488 0.719238
vt 0.374512 0.780762
vt 0.374512 0.719238
vt 0.125488 0.812012
vt 0.125488 0.187988
vt 0.187012 0.812012
vt 0.187012 0.187988
vt 0.219238 0.812012
vt 0.219238 0.187988
vt 0.280762 0.812012
vt 0.280762 0.187988
vt 0.218262 0.812988
vt 0.218262 0.874512
vt 0.187988 0.812988
vt 0.187988 0.874512
vt 0.249512 0.874512
vt 0.249512 0.812988
vt 0.219238 0.874512
vt 0.219238 0.812988
vt 0.281738 0.812012
vt 0.281738 0.187988
vt 0.312012 0.812012
vt 0.312012 0.187988
vt 0.187988 0.812012
vt 0.187988 0.187988
vt 0.218262 0.812012
vt 0.218262 0.187988
vt 0.375488 0.968262
vt 0.375488 0.906738
vt 0.405762 0.968262
vt 0.405762 0.906738
vt 0.437988 0.968262
vt 0.437988 0.906738
vt 0.468262 0.968262
vt 0.468262 0.906738
vt 0.437012 0.969238
vt 0.437012 0.999512
vt 0.406738 0.969238
vt 0.406738 0.999512
vt 0.468262 0.999512
vt 0.468262 0.969238
vt 0.437988 0.999512
vt 0.437988 0.969238
vt 0.469238 0.968262
vt 0.469238 0.906738
vt 0.499512 0.968262
vt 0.499512 0.906738
vt 0.406738 0.968262
vt 0.406738 0.906738
vt 0.437012 0.968262
vt 0.437012 0.906738
vt 0.312988 0.812012
vt 0.312988 0.781738
vt 0.374512 0.812012
vt 0.374512 0.781738
vt 0.406738 0.812012
vt 0.406738 0.781738
vt 0.468262 0.812012
vt 0.468262 0.781738
vt 0.405762 0.812988
vt 0.405762 0.874512
vt 0.375488 0.812988
vt 0.375488 0.874512
vt 0.437012 0.874512
vt 0.437012 0.812988
vt 0.406738 0.874512
vt 0.406738 0.812988
vt 0.469238 0.812012
vt 0.469238 0.781738
vt 0.499512 0.812012
vt 0.499512 0.781738
vt 0.375488 0.812012
vt 0.375488 0.781738
vt 0.405762 0.812012
vt 0.405762 0.781738
vt 0.000488 0.968262
vt 0.000488 0.219238
vt 0.030762 0.968262
vt 0.030762 0.219238
vt 0.062988 0.968262
vt 0.062988 0.219238
vt 0.093262 0.968262
vt 0.093262 0.219238
vt 0.062012 0.969238
vt 0.062012 0.999512
vt 0.031738 0.969238
vt 0.031738 0.999512
vt 0.093262 0.999512
vt 0.093262 0.969238
vt 0.062988 0.999512
vt 0.062988 0.969238
vt 0.094238 0.968262
vt 0.094238 0.219238
vt 0.124512 0.968262
vt 0.124512 0.219238
vt 0.031738 0.968262
vt 0.031738 0.219238
vt 0.062012 0.968262
vt 0.062012 0.219238
vt 0.312988 0.655762
vt 0.312988 0.000488
vt 0.343262 0.655762
vt 0.343262 0.000488
vt 0.375488 0.655762
vt 0.375488 0.000488
vt 0.405762 0.655762
vt 0.405762 0.000488
vt 0.374512 0.656738
vt 0.374512 0.687012
vt 0.344238 0.656738
vt 0.344238 0.687012
vt 0.405762 0.687012
vt 0.405762 0.656738
vt 0.375488 0.687012
vt 0.375488 0.656738
vt 0.406738 0.655762
vt 0.406738 0.000488
vt 0.437012 0.655762
vt 0.437012 0.000488
vt 0.344238 0.655762
vt 0.344238 0.000488
vt 0.374512 0.655762
vt 0.374512 0.000488
vt 0.250488 0.968262
vt 0.250488 0.812988
vt 0.280762 0.968262
vt 0.280762 0.812988
vt 0.312988 0.968262
vt 0.312988 0.812988
vt 0.343262 0.968262
vt 0.343262 0.812988
vt 0.312012 0.969238
vt 0.312012 0.999512
vt 0.281738 0.969238
vt 0.281738 0.999512
vt 0.343262 0.999512
vt 0.343262 0.969238
vt 0.312988 0.999512
vt 0.312988 0.969238
vt 0.344238 0.968262
vt 0.344238 0.812988
vt 0.374512 0.968262
vt 0.374512 0.812988
vt 0.281738 0.968262
vt 0.281738 0.812988
vt 0.312012 0.968262
vt 0.312012 0.812988
vt 0.406738 0.718262
vt 0.406738 0.687988
vt 0.437012 0.718262
vt 0.437012 0.687988
vt 0.469238 0.718262
vt 0.469238 0.687988
vt 0.499512 0.718262
vt 0.499512 0.687988
vt 0.468262 0.719238
vt 0.468262 0.749512
vt 0.437988 0.719238
vt 0.437988 0.749512
vt 0.499512 0.749512
vt 0.499512 0.719238
vt 0.469238 0.749512
vt 0.469238 0.719238
vt 0.500488 0.718262
vt 0.500488 0.687988
vt 0.530762 0.718262
vt 0.530762 0.687988
vt 0.437988 0.718262
vt 0.437988 0.687988
vt 0.468262 0.718262
vt 0.468262 0.687988
vt 0.125488 0.937012
vt 0.125488 0.875488
vt 0.187012 0.937012
vt 0.187012 0.875488
vt 0.187988 0.937012
vt 0.187988 0.875488
vt 0.249512 0.937012
vt 0.249512 0.875488
vt 0.187988 0.937988
vt 0.187988 0.999512
vt 0.187012 0.937988
vt 0.187012 0.999512
vt 0.187988 0.999512
vt 0.187988 0.937988
vt 0.187012 0.999512
vt 0.187012 0.937988
vt 0.250488 0.937012
vt 0.250488 0.875488
vt 0.249512 0.937012
vt 0.249512 0.875488
vt 0.187988 0.937012
vt 0.187988 0.875488
vt 0.187012 0.937012
vt 0.187012 0.875488
vt 0.125488 0.968262
vt 0.125488 0.937988
vt 0.155762 0.968262
vt 0.155762 0.937988
vt 0.187988 0.968262
vt 0.187988 0.937988
vt 0.218262 0.968262
vt 0.218262 0.937988
vt 0.187012 0.969238
vt 0.187012 0.999512
vt 0.156738 0.969238
vt 0.156738 0.999512
vt 0.218262 0.999512
vt 0.218262 0.969238
vt 0.187988 0.999512
vt 0.187988 0.969238
vt 0.219238 0.968262
vt 0.219238 0.937988
vt 0.249512 0.968262
vt 0.249512 0.937988
vt 0.156738 0.968262
vt 0.156738 0.937988
vt 0.187012 0.968262
vt 0.187012 0.937988
vn 0.0000 -1.0000 0.0000
vn -0.0000 1.0000 0.0000
vn -0.5000 -0.0000 0.8660
vn 0.5000 0.0000 -0.8660
vn -0.8660 0.0000 -0.5000
vn 0.8660 0.0000 0.5000
vn -0.0000 0.0000 1.0000
vn 0.0000 0.0000 -1.0000
vn -1.0000 -0.0000 -0.0000
vn 1.0000 0.0000 0.0000
vn -0.7071 -0.7071 -0.0000
vn 0.7071 0.7071 0.0000
vn -0.7071 0.7071 -0.0000
vn 0.7071 -0.7071 0.0000
vn -0.6124 -0.7071 -0.3536
vn 0.6124 0.7071 0.3536
vn -0.6124 0.7071 -0.3536
vn 0.6124 -0.7071 0.3536
usemtl 0.003
s 1
f 1/1/1 2/2/1 3/3/1
f 2/2/1 4/4/1 3/3/1
f 5/5/2 6/6/2 7/7/2
f 6/6/2 8/8/2 7/7/2
f 5/9/3 7/10/3 3/11/3
f 7/10/3 1/12/3 3/11/3
f 8/13/4 6/14/4 2/15/4
f 6/14/4 4/16/4 2/15/4
f 7/17/5 8/18/5 1/19/5
f 8/18/5 2/20/5 1/19/5
f 3/21/6 4/22/6 5/23/6
f 4/22/6 6/24/6 5/23/6
f 9/25/1 10/26/1 11/27/1
f 10/26/1 12/28/1 11/27/1
f 13/29/2 14/30/2 15/31/2
f 14/30/2 16/32/2 15/31/2
f 13/33/7 15/34/7 11/35/7
f 15/34/7 9/36/7 11/35/7
f 16/37/8 14/38/8 10/39/8
f 14/38/8 12/40/8 10/39/8
f 15/41/9 16/42/9 9/43/9
f 16/42/9 10/44/9 9/43/9
f 11/45/10 12/46/10 13/47/10
f 12/46/10 14/48/10 13/47/10
f 17/49/1 18/50/1 19/51/1
f 18/50/1 20/52/1 19/51/1
f 21/53/2 22/54/2 23/55/2
f 22/54/2 24/56/2 23/55/2
f 21/57/7 23/58/7 19/59/7
f 23/58/7 17/60/7 19/59/7
f 24/61/8 22/62/8 18/63/8
f 22/62/8 20/64/8 18/63/8
f 23/65/9 24/66/9 17/67/9
f 24/66/9 18/68/9 17/67/9
f 19/69/10 20/70/10 21/71/10
f 20/70/10 22/72/10 21/71/10
f 25/73/1 26/74/1 27/75/1
f 26/74/1 28/76/1 27/75/1
f 29/77/2 30/78/2 31/79/2
f 30/78/2 32/80/2 31/79/2
f 29/81/7 31/82/7 27/83/7
f 31/82/7 25/84/7 27/83/7
f 32/85/8 30/86/8 26/87/8
f 30/86/8 28/88/8 26/87/8
f 31/89/9 32/90/9 25/91/9
f 32/90/9 26/92/9 25/91/9
f 27/93/10 28/94/10 29/95/10
f 28/94/10 30/96/10 29/95/10
f 33/97/11 34/98/11 35/99/11
f 34/98/11 36/100/11 35/99/11
f 37/101/12 38/102/12 39/103/12
f 38/102/12 40/104/12 39/103/12
f 37/105/7 39/106/7 35/107/7
f 39/106/7 33/108/7 35/107/7
f 40/109/8 38/110/8 34/111/8
f 38/110/8 36/112/8 34/111/8
f 39/113/13 40/114/13 33/115/13
f 40/114/13 34/116/13 33/115/13
f 35/117/14 36/118/14 37/119/14
f 36/118/14 38/120/14 37/119/14
f 41/121/14 42/122/14 43/123/14
f 42/122/14 44/124/14 43/123/14
f 45/125/13 46/126/13 47/127/13
f 46/126/13 48/128/13 47/127/13
f 45/129/7 47/130/7 43/131/7
f 47/130/7 41/132/7 43/131/7
f 48/133/8 46/134/8 42/135/8
f 46/134/8 44/136/8 42/135/8
f 47/137/11 48/138/11 41/139/11
f 48/138/11 42/140/11 41/139/11
f 43/141/12 44/142/12 45/143/12
f 44/142/12 46/144/12 45/143/12
f 49/145/15 50/146/15 51/147/15
f 50/146/15 52/148/15 51/147/15
f 53/149/16 54/150/16 55/151/16
f 54/150/16 56/152/16 55/151/16
f 53/153/3 55/154/3 51/155/3
f 55/154/3 49/156/3 51/155/3
f 56/157/4 54/158/4 50/159/4
f 54/158/4 52/160/4 50/159/4
f 55/161/17 56/162/17 49/163/17
f 56/162/17 50/164/17 49/163/17
f 51/165/18 52/166/18 53/167/18
f 52/166/18 54/168/18 53/167/18
f 57/169/1 58/170/1 59/171/1
f 58/170/1 60/172/1 59/171/1
f 61/173/2 62/174/2 63/175/2
f 62/174/2 64/176/2 63/175/2
f 61/177/3 63/178/3 59/179/3
f 63/178/3 57/180/3 59/179/3
f 64/181/4 62/182/4 58/183/4
f 62/182/4 60/184/4 58/183/4
f 63/185/5 64/186/5 57/187/5
f 64/186/5 58/188/5 57/187/5
f 59/189/6 60/190/6 61/191/6
f 60/190/6 62/192/6 61/191/6
f 65/193/1 66/194/1 67/195/1
f 66/194/1 68/196/1 67/195/1
f 69/197/2 70/198/2 71/199/2
f 70/198/2 72/200/2 71/199/2
f 69/201/3 71/202/3 67/203/3
f 71/202/3 65/204/3 67/203/3
f 72/205/4 70/206/4 66/207/4
f 70/206/4 68/208/4 66/207/4
f 71/209/5 72/210/5 65/211/5
f 72/210/5 66/212/5 65/211/5
f 67/213/6 68/214/6 69/215/6
f 68/214/6 70/216/6 69/215/6
f 73/217/1 74/218/1 75/219/1
f 74/218/1 76/220/1 75/219/1
f 77/221/2 78/222/2 79/223/2
f 78/222/2 80/224/2 79/223/2
f 77/225/3 79/226/3 75/227/3
f 79/226/3 73/228/3 75/227/3
f 80/229/4 78/230/4 74/231/4
f 78/230/4 76/232/4 74/231/4
f 79/233/5 80/234/5 73/235/5
f 80/234/5 74/236/5 73/235/5
f 75/237/6 76/238/6 77/239/6
f 76/238/6 78/240/6 77/239/6
