# Blender v2.83.0 OBJ File: ''
# www.blender.org
mtllib ironaxehead.mtl
o Base
v 0.093750 0.125000 0.214466
v 0.093750 -0.125000 0.214466
v 0.093750 0.125000 -0.160534
v 0.093750 -0.125000 -0.160534
v -0.093750 0.125000 -0.160534
v -0.093750 -0.125000 -0.160534
v -0.093750 0.125000 0.214466
v -0.093750 -0.125000 0.214466
v -0.000000 0.156250 0.247937
v -0.000000 -0.156250 0.247937
v 0.176777 0.156250 0.071160
v 0.176777 -0.156250 0.071160
v 0.000000 0.156250 -0.105616
v 0.000000 -0.156250 -0.105616
v -0.176777 0.156250 0.071160
v -0.176777 -0.156250 0.071160
vt 0.000488 0.812012
vt 0.000488 0.687988
vt 0.187012 0.812012
vt 0.187012 0.687988
vt 0.281738 0.812012
vt 0.281738 0.687988
vt 0.468262 0.812012
vt 0.468262 0.687988
vt 0.280762 0.812988
vt 0.280762 0.999512
vt 0.187988 0.812988
vt 0.187988 0.999512
vt 0.374512 0.999512
vt 0.374512 0.812988
vt 0.281738 0.999512
vt 0.281738 0.812988
vt 0.469238 0.812012
vt 0.469238 0.687988
vt 0.562012 0.812012
vt 0.562012 0.687988
vt 0.187988 0.812012
vt 0.187988 0.687988
vt 0.280762 0.812012
vt 0.280762 0.687988
vt 0.000488 0.562012
vt 0.000488 0.406738
vt 0.124512 0.562012
vt 0.124512 0.406738
vt 0.250488 0.562012
vt 0.250488 0.406738
vt 0.374512 0.562012
vt 0.374512 0.406738
vt 0.249512 0.562988
vt 0.249512 0.687012
vt 0.125488 0.562988
vt 0.125488 0.687012
vt 0.374512 0.687012
vt 0.374512 0.562988
vt 0.250488 0.687012
vt 0.250488 0.562988
vt 0.375488 0.562012
vt 0.375488 0.406738
vt 0.499512 0.562012
vt 0.499512 0.406738
vt 0.125488 0.562012
vt 0.125488 0.406738
vt 0.249512 0.562012
vt 0.249512 0.406738
vn 1.0000 0.0000 0.0000
vn -1.0000 0.0000 0.0000
vn 0.0000 1.0000 0.0000
vn 0.0000 -1.0000 -0.0000
vn 0.0000 -0.0000 1.0000
vn 0.0000 0.0000 -1.0000
vn 0.7071 -0.0000 0.7071
vn -0.7071 0.0000 -0.7071
vn -0.7071 -0.0000 0.7071
vn 0.7071 0.0000 -0.7071
usemtl m_0.002
s 1
f 1/1/1 2/2/1 3/3/1
f 2/2/1 4/4/1 3/3/1
f 5/5/2 6/6/2 7/7/2
f 6/6/2 8/8/2 7/7/2
f 5/9/3 7/10/3 3/11/3
f 7/10/3 1/12/3 3/11/3
f 8/13/4 6/14/4 2/15/4
f 6/14/4 4/16/4 2/15/4
f 7/17/5 8/18/5 1/19/5
f 8/18/5 2/20/5 1/19/5
f 3/21/6 4/22/6 5/23/6
f 4/22/6 6/24/6 5/23/6
f 9/25/7 10/26/7 11/27/7
f 10/26/7 12/28/7 11/27/7
f 13/29/8 14/30/8 15/31/8
f 14/30/8 16/32/8 15/31/8
f 13/33/3 15/34/3 11/35/3
f 15/34/3 9/36/3 11/35/3
f 16/37/4 14/38/4 10/39/4
f 14/38/4 12/40/4 10/39/4
f 15/41/9 16/42/9 9/43/9
f 16/42/9 10/44/9 9/43/9
f 11/45/10 12/46/10 13/47/10
f 12/46/10 14/48/10 13/47/10
