# Blender v2.83.0 OBJ File: ''
# www.blender.org
mtllib lacedonhead.mtl
o lacedonhead
v -0.119021 0.087500 -0.291210
v -0.119021 -0.087500 -0.291210
v -0.119021 0.087500 -0.178710
v -0.119021 -0.087500 -0.178710
v 0.118479 0.087500 -0.178710
v 0.118479 -0.087500 -0.178710
v 0.118479 0.087500 -0.291210
v 0.118479 -0.087500 -0.291210
v -0.202152 0.093750 -0.477455
v -0.202152 -0.093750 -0.477455
v -0.158740 0.093750 -0.231253
v -0.158740 -0.093750 -0.231253
v 0.149013 0.093750 -0.285518
v 0.149013 -0.093750 -0.285518
v 0.105600 0.093750 -0.531720
v 0.105600 -0.093750 -0.531720
v 0.169670 0.087500 -0.525726
v 0.169670 -0.087500 -0.525726
v 0.108200 0.087500 -0.296318
v 0.108200 -0.087500 -0.296318
v 0.156497 0.087500 -0.283377
v 0.156497 -0.087500 -0.283377
v 0.217966 0.087500 -0.512785
v 0.217966 -0.087500 -0.512785
v -0.217498 0.000062 0.029346
v -0.217498 -0.000000 0.029346
v 0.017425 0.000062 -0.056159
v 0.017425 -0.000000 -0.056159
v -0.132209 0.000062 -0.467274
v -0.132209 -0.000000 -0.467274
v -0.367132 0.000062 -0.381769
v -0.367132 -0.000000 -0.381769
vt 0.000488 0.687012
vt 0.000488 0.594238
vt 0.062012 0.687012
vt 0.062012 0.594238
vt 0.187988 0.687012
vt 0.187988 0.594238
vt 0.249512 0.687012
vt 0.249512 0.594238
vt 0.187012 0.687988
vt 0.187012 0.749512
vt 0.062988 0.687988
vt 0.062988 0.749512
vt 0.312012 0.749512
vt 0.312012 0.687988
vt 0.187988 0.749512
vt 0.187988 0.687988
vt 0.250488 0.687012
vt 0.250488 0.594238
vt 0.374512 0.687012
vt 0.374512 0.594238
vt 0.062988 0.687012
vt 0.062988 0.594238
vt 0.187012 0.687012
vt 0.187012 0.594238
vt 0.000488 0.874512
vt 0.000488 0.781738
vt 0.124512 0.874512
vt 0.124512 0.781738
vt 0.281738 0.874512
vt 0.281738 0.781738
vt 0.405762 0.874512
vt 0.405762 0.781738
vt 0.280762 0.875488
vt 0.280762 0.999512
vt 0.125488 0.875488
vt 0.125488 0.999512
vt 0.437012 0.999512
vt 0.437012 0.875488
vt 0.281738 0.999512
vt 0.281738 0.875488
vt 0.406738 0.874512
vt 0.406738 0.781738
vt 0.562012 0.874512
vt 0.562012 0.781738
vt 0.125488 0.874512
vt 0.125488 0.781738
vt 0.280762 0.874512
vt 0.280762 0.781738
vt 0.594238 0.874512
vt 0.594238 0.781738
vt 0.718262 0.874512
vt 0.718262 0.781738
vt 0.750488 0.874512
vt 0.750488 0.781738
vt 0.874512 0.874512
vt 0.874512 0.781738
vt 0.749512 0.875488
vt 0.749512 0.999512
vt 0.719238 0.875488
vt 0.719238 0.999512
vt 0.780762 0.999512
vt 0.780762 0.875488
vt 0.750488 0.999512
vt 0.750488 0.875488
vt 0.875488 0.874512
vt 0.875488 0.781738
vt 0.905762 0.874512
vt 0.905762 0.781738
vt 0.719238 0.874512
vt 0.719238 0.781738
vt 0.749512 0.874512
vt 0.749512 0.781738
vt 0.312988 0.593262
vt 0.312988 0.594238
vt 0.437012 0.593262
vt 0.437012 0.594238
vt 0.656738 0.593262
vt 0.656738 0.594238
vt 0.780762 0.593262
vt 0.780762 0.594238
vt 0.655762 0.594238
vt 0.655762 0.718262
vt 0.437988 0.594238
vt 0.437988 0.718262
vt 0.874512 0.718262
vt 0.874512 0.594238
vt 0.656738 0.718262
vt 0.656738 0.594238
vt 0.781738 0.593262
vt 0.781738 0.594238
vt 0.999512 0.593262
vt 0.999512 0.594238
vt 0.437988 0.593262
vt 0.437988 0.594238
vt 0.655762 0.593262
vt 0.655762 0.594238
vn -1.0000 0.0000 -0.0000
vn 1.0000 -0.0000 0.0000
vn 0.0000 1.0000 -0.0000
vn -0.0000 -1.0000 0.0000
vn 0.0000 -0.0000 -1.0000
vn -0.0000 0.0000 1.0000
vn -0.9848 0.0000 0.1736
vn 0.9848 0.0000 -0.1736
vn -0.1736 -0.0000 -0.9848
vn 0.1736 0.0000 0.9848
vn -0.9659 -0.0000 -0.2588
vn 0.9659 0.0000 0.2588
vn 0.2588 -0.0000 -0.9659
vn -0.2588 0.0000 0.9659
vn 0.3420 0.0000 0.9397
vn -0.3420 0.0000 -0.9397
vn -0.9397 0.0000 0.3420
vn 0.9397 0.0000 -0.3420
usemtl m_3
s 1
f 1/1/1 2/2/1 3/3/1
f 2/2/1 4/4/1 3/3/1
f 5/5/2 6/6/2 7/7/2
f 6/6/2 8/8/2 7/7/2
f 5/9/3 7/10/3 3/11/3
f 7/10/3 1/12/3 3/11/3
f 8/13/4 6/14/4 2/15/4
f 6/14/4 4/16/4 2/15/4
f 7/17/5 8/18/5 1/19/5
f 8/18/5 2/20/5 1/19/5
f 3/21/6 4/22/6 5/23/6
f 4/22/6 6/24/6 5/23/6
f 9/25/7 10/26/7 11/27/7
f 10/26/7 12/28/7 11/27/7
f 13/29/8 14/30/8 15/31/8
f 14/30/8 16/32/8 15/31/8
f 13/33/3 15/34/3 11/35/3
f 15/34/3 9/36/3 11/35/3
f 16/37/4 14/38/4 10/39/4
f 14/38/4 12/40/4 10/39/4
f 15/41/9 16/42/9 9/43/9
f 16/42/9 10/44/9 9/43/9
f 11/45/10 12/46/10 13/47/10
f 12/46/10 14/48/10 13/47/10
f 17/49/11 18/50/11 19/51/11
f 18/50/11 20/52/11 19/51/11
f 21/53/12 22/54/12 23/55/12
f 22/54/12 24/56/12 23/55/12
f 21/57/3 23/58/3 19/59/3
f 23/58/3 17/60/3 19/59/3
f 24/61/4 22/62/4 18/63/4
f 22/62/4 20/64/4 18/63/4
f 23/65/13 24/66/13 17/67/13
f 24/66/13 18/68/13 17/67/13
f 19/69/14 20/70/14 21/71/14
f 20/70/14 22/72/14 21/71/14
f 25/73/15 26/74/15 27/75/15
f 26/74/15 28/76/15 27/75/15
f 29/77/16 30/78/16 31/79/16
f 30/78/16 32/80/16 31/79/16
f 29/81/3 31/82/3 27/83/3
f 31/82/3 25/84/3 27/83/3
f 32/85/4 30/86/4 26/87/4
f 30/86/4 28/88/4 26/87/4
f 31/89/17 32/90/17 25/91/17
f 32/90/17 26/92/17 25/91/17
f 27/93/18 28/94/18 29/95/18
f 28/94/18 30/96/18 29/95/18
