# Blender v2.83.0 OBJ File: ''
# www.blender.org
mtllib zephyrblade.mtl
o Base
v -0.312500 0.000062 -0.271902
v -0.312500 -0.000000 -0.271902
v -0.312500 0.000063 1.353098
v -0.312500 0.000000 1.353098
v 0.312500 0.000063 1.353098
v 0.312500 0.000000 1.353098
v 0.312500 0.000062 -0.271902
v 0.312500 -0.000000 -0.271902
v -0.046424 0.088388 0.242721
v -0.114134 0.000000 0.299536
v 0.315144 0.088388 0.673621
v 0.247435 0.000000 0.730436
v 0.382853 0.000000 0.616806
v 0.315144 -0.088388 0.673621
v 0.021285 0.000000 0.185906
v -0.046424 -0.088388 0.242721
v 0.320588 0.044194 0.609694
v 0.279758 0.000000 0.592781
v 0.009658 0.044194 1.360346
v -0.031173 0.000000 1.343433
v 0.050488 0.000000 1.377258
v 0.009658 -0.044194 1.360346
v 0.361418 0.000000 0.626606
v 0.320588 -0.044194 0.609694
v 0.000000 0.088388 -0.021902
v -0.088388 0.000000 -0.021902
v 0.000000 0.088388 0.290598
v -0.088388 0.000000 0.290598
v 0.088388 0.000000 0.290598
v 0.000000 -0.088388 0.290598
v 0.088388 0.000000 -0.021902
v 0.000000 -0.088388 -0.021902
vt 0.000122 0.796753
vt 0.000122 0.796997
vt 0.203003 0.796753
vt 0.203003 0.796997
vt 0.281372 0.796753
vt 0.281372 0.796997
vt 0.484253 0.796753
vt 0.484253 0.796997
vt 0.281128 0.796997
vt 0.281128 0.999878
vt 0.203247 0.796997
vt 0.203247 0.999878
vt 0.359253 0.999878
vt 0.359253 0.796997
vt 0.281372 0.999878
vt 0.281372 0.796997
vt 0.484497 0.796753
vt 0.484497 0.796997
vt 0.562378 0.796753
vt 0.562378 0.796997
vt 0.203247 0.796753
vt 0.203247 0.796997
vt 0.281128 0.796753
vt 0.281128 0.796997
vt 0.000122 0.929565
vt 0.000122 0.914185
vt 0.070190 0.929565
vt 0.070190 0.914185
vt 0.086060 0.929565
vt 0.086060 0.914185
vt 0.156128 0.929565
vt 0.156128 0.914185
vt 0.085815 0.929810
vt 0.085815 0.999878
vt 0.070435 0.929810
vt 0.070435 0.999878
vt 0.101440 0.999878
vt 0.101440 0.929810
vt 0.086060 0.999878
vt 0.086060 0.929810
vt 0.156372 0.929565
vt 0.156372 0.914185
vt 0.171753 0.929565
vt 0.171753 0.914185
vt 0.070435 0.929565
vt 0.070435 0.914185
vt 0.085815 0.929565
vt 0.085815 0.914185
vt 0.000122 0.796753
vt 0.000122 0.789185
vt 0.101440 0.796753
vt 0.101440 0.789185
vt 0.109497 0.796753
vt 0.109497 0.789185
vt 0.210815 0.796753
vt 0.210815 0.789185
vt 0.109253 0.796997
vt 0.109253 0.898315
vt 0.101685 0.796997
vt 0.101685 0.898315
vt 0.117065 0.898315
vt 0.117065 0.796997
vt 0.109497 0.898315
vt 0.109497 0.796997
vt 0.211060 0.796753
vt 0.211060 0.789185
vt 0.218628 0.796753
vt 0.218628 0.789185
vt 0.101685 0.796753
vt 0.101685 0.789185
vt 0.109253 0.796753
vt 0.109253 0.789185
vt 0.179810 0.726440
vt 0.179810 0.711060
vt 0.218628 0.726440
vt 0.218628 0.711060
vt 0.234497 0.726440
vt 0.234497 0.711060
vt 0.273315 0.726440
vt 0.273315 0.711060
vt 0.234253 0.726685
vt 0.234253 0.765503
vt 0.218872 0.726685
vt 0.218872 0.765503
vt 0.249878 0.765503
vt 0.249878 0.726685
vt 0.234497 0.765503
vt 0.234497 0.726685
vt 0.273560 0.726440
vt 0.273560 0.711060
vt 0.288940 0.726440
vt 0.288940 0.711060
vt 0.218872 0.726440
vt 0.218872 0.711060
vt 0.234253 0.726440
vt 0.234253 0.711060
vn -1.0000 0.0000 0.0000
vn 1.0000 0.0000 -0.0000
vn 0.0000 1.0000 -0.0000
vn 0.0000 -1.0000 0.0000
vn -0.0000 0.0000 -1.0000
vn 0.0000 0.0000 1.0000
vn -0.5417 0.7071 0.4545
vn 0.5417 -0.7071 -0.4545
vn 0.5417 0.7071 -0.4545
vn -0.5417 -0.7071 0.4545
vn -0.6428 -0.0000 -0.7660
vn 0.6428 0.0000 0.7660
vn -0.6533 0.7071 -0.2706
vn 0.6533 -0.7071 0.2706
vn 0.6533 0.7071 0.2706
vn -0.6533 -0.7071 -0.2706
vn 0.3827 0.0000 -0.9239
vn -0.3827 -0.0000 0.9239
vn -0.7071 0.7071 -0.0000
vn 0.7071 -0.7071 0.0000
vn 0.7071 0.7071 -0.0000
vn -0.7071 -0.7071 0.0000
usemtl m_1.001
s 1
f 1/1/1 2/2/1 3/3/1
f 2/2/1 4/4/1 3/3/1
f 5/5/2 6/6/2 7/7/2
f 6/6/2 8/8/2 7/7/2
f 5/9/3 7/10/3 3/11/3
f 7/10/3 1/12/3 3/11/3
f 8/13/4 6/14/4 2/15/4
f 6/14/4 4/16/4 2/15/4
f 7/17/5 8/18/5 1/19/5
f 8/18/5 2/20/5 1/19/5
f 3/21/6 4/22/6 5/23/6
f 4/22/6 6/24/6 5/23/6
f 9/25/7 10/26/7 11/27/7
f 10/26/7 12/28/7 11/27/7
f 13/29/8 14/30/8 15/31/8
f 14/30/8 16/32/8 15/31/8
f 13/33/9 15/34/9 11/35/9
f 15/34/9 9/36/9 11/35/9
f 16/37/10 14/38/10 10/39/10
f 14/38/10 12/40/10 10/39/10
f 15/41/11 16/42/11 9/43/11
f 16/42/11 10/44/11 9/43/11
f 11/45/12 12/46/12 13/47/12
f 12/46/12 14/48/12 13/47/12
f 17/49/13 18/50/13 19/51/13
f 18/50/13 20/52/13 19/51/13
f 21/53/14 22/54/14 23/55/14
f 22/54/14 24/56/14 23/55/14
f 21/57/15 23/58/15 19/59/15
f 23/58/15 17/60/15 19/59/15
f 24/61/16 22/62/16 18/63/16
f 22/62/16 20/64/16 18/63/16
f 23/65/17 24/66/17 17/67/17
f 24/66/17 18/68/17 17/67/17
f 19/69/18 20/70/18 21/71/18
f 20/70/18 22/72/18 21/71/18
f 25/73/19 26/74/19 27/75/19
f 26/74/19 28/76/19 27/75/19
f 29/77/20 30/78/20 31/79/20
f 30/78/20 32/80/20 31/79/20
f 29/81/21 31/82/21 27/83/21
f 31/82/21 25/84/21 27/83/21
f 32/85/22 30/86/22 26/87/22
f 30/86/22 28/88/22 26/87/22
f 31/89/5 32/90/5 25/91/5
f 32/90/5 26/92/5 25/91/5
f 27/93/6 28/94/6 29/95/6
f 28/94/6 30/96/6 29/95/6
