# Blender v2.83.0 OBJ File: ''
# www.blender.org
mtllib woodenpaxel.mtl
o Base
v -0.120775 -0.087457 0.860688
v -0.120773 -0.087521 0.860665
v -0.189131 -0.049069 0.748263
v -0.189130 -0.049133 0.748240
v -0.368901 -0.086765 0.842724
v -0.368899 -0.086829 0.842701
v -0.300544 -0.125153 0.955149
v -0.300543 -0.125217 0.955126
v 0.150201 0.034188 0.854900
v 0.150201 -0.034188 0.854900
v 0.394158 0.034188 0.613153
v 0.394158 -0.034188 0.613153
v 0.150201 0.034188 0.371406
v 0.150201 -0.034188 0.371406
v -0.093756 0.034188 0.613153
v -0.093756 -0.034188 0.613153
v -0.015988 0.061539 0.683974
v -0.015988 -0.061539 0.683974
v -0.073338 0.061539 0.574802
v -0.073338 -0.061539 0.574802
v -0.244712 0.061539 0.663206
v -0.244712 -0.061539 0.663206
v -0.187362 0.061539 0.772377
v -0.187362 -0.061539 0.772377
v -0.191339 0.054701 0.772706
v -0.191339 -0.054701 0.772706
v -0.113273 0.054701 0.695347
v -0.113273 -0.054701 0.695347
v -0.288922 0.054701 0.521289
v -0.288922 -0.054701 0.521289
v -0.366988 0.054701 0.598648
v -0.366988 -0.054701 0.598648
v 0.051751 0.051282 0.444286
v 0.051751 -0.051282 0.444286
v 0.051751 0.051282 -0.000162
v 0.051751 -0.051282 -0.000162
v -0.051751 0.051282 -0.000162
v -0.051751 -0.051282 -0.000162
v -0.051751 0.051282 0.444286
v -0.051751 -0.051282 0.444286
v 0.069001 0.068376 0.786168
v 0.069001 -0.068377 0.786168
v 0.069001 0.068377 0.444286
v 0.069001 -0.068376 0.444286
v -0.069001 0.068377 0.444286
v -0.069001 -0.068376 0.444286
v -0.069001 0.068376 0.786168
v -0.069001 -0.068377 0.786168
v 0.006906 0.040583 0.335762
v 0.006947 0.040549 0.335795
v 0.037277 0.142836 0.400929
v 0.037319 0.142803 0.400962
v 0.169119 0.184406 0.274256
v 0.169160 0.184373 0.274288
v 0.138747 0.082152 0.209089
v 0.138789 0.082119 0.209122
vt 0.000488 0.062012
vt 0.000488 0.062988
vt 0.062012 0.062012
vt 0.062012 0.062988
vt 0.156738 0.062012
vt 0.156738 0.062988
vt 0.218262 0.062012
vt 0.218262 0.062988
vt 0.155762 0.062988
vt 0.155762 0.124512
vt 0.062988 0.062988
vt 0.062988 0.124512
vt 0.249512 0.124512
vt 0.249512 0.062988
vt 0.156738 0.124512
vt 0.156738 0.062988
vt 0.219238 0.062012
vt 0.219238 0.062988
vt 0.312012 0.062012
vt 0.312012 0.062988
vt 0.062988 0.062012
vt 0.062988 0.062988
vt 0.155762 0.062012
vt 0.155762 0.062988
vt 0.000488 0.562012
vt 0.000488 0.531738
vt 0.155762 0.562012
vt 0.155762 0.531738
vt 0.312988 0.562012
vt 0.312988 0.531738
vt 0.468262 0.562012
vt 0.468262 0.531738
vt 0.312012 0.562988
vt 0.312012 0.718262
vt 0.156738 0.562988
vt 0.156738 0.718262
vt 0.468262 0.718262
vt 0.468262 0.562988
vt 0.312988 0.718262
vt 0.312988 0.562988
vt 0.469238 0.562012
vt 0.469238 0.531738
vt 0.624512 0.562012
vt 0.624512 0.531738
vt 0.156738 0.562012
vt 0.156738 0.531738
vt 0.312012 0.562012
vt 0.312012 0.531738
vt 0.469238 0.655762
vt 0.469238 0.594238
vt 0.530762 0.655762
vt 0.530762 0.594238
vt 0.625488 0.655762
vt 0.625488 0.594238
vt 0.687012 0.655762
vt 0.687012 0.594238
vt 0.624512 0.656738
vt 0.624512 0.718262
vt 0.531738 0.656738
vt 0.531738 0.718262
vt 0.718262 0.718262
vt 0.718262 0.656738
vt 0.625488 0.718262
vt 0.625488 0.656738
vt 0.687988 0.655762
vt 0.687988 0.594238
vt 0.780762 0.655762
vt 0.780762 0.594238
vt 0.531738 0.655762
vt 0.531738 0.594238
vt 0.624512 0.655762
vt 0.624512 0.594238
vt 0.000488 0.468262
vt 0.000488 0.406738
vt 0.062012 0.468262
vt 0.062012 0.406738
vt 0.187988 0.468262
vt 0.187988 0.406738
vt 0.249512 0.468262
vt 0.249512 0.406738
vt 0.187012 0.469238
vt 0.187012 0.530762
vt 0.062988 0.469238
vt 0.062988 0.530762
vt 0.312012 0.530762
vt 0.312012 0.469238
vt 0.187988 0.530762
vt 0.187988 0.469238
vt 0.250488 0.468262
vt 0.250488 0.406738
vt 0.374512 0.468262
vt 0.374512 0.406738
vt 0.062988 0.468262
vt 0.062988 0.406738
vt 0.187012 0.468262
vt 0.187012 0.406738
vt 0.000488 0.780762
vt 0.000488 0.719238
vt 0.218262 0.780762
vt 0.218262 0.719238
vt 0.281738 0.780762
vt 0.281738 0.719238
vt 0.499512 0.780762
vt 0.499512 0.719238
vt 0.280762 0.781738
vt 0.280762 0.999512
vt 0.219238 0.781738
vt 0.219238 0.999512
vt 0.343262 0.999512
vt 0.343262 0.781738
vt 0.281738 0.999512
vt 0.281738 0.781738
vt 0.500488 0.780762
vt 0.500488 0.719238
vt 0.562012 0.780762
vt 0.562012 0.719238
vt 0.219238 0.780762
vt 0.219238 0.719238
vt 0.280762 0.780762
vt 0.280762 0.719238
vt 0.344238 0.843262
vt 0.344238 0.781738
vt 0.499512 0.843262
vt 0.499512 0.781738
vt 0.562988 0.843262
vt 0.562988 0.781738
vt 0.718262 0.843262
vt 0.718262 0.781738
vt 0.562012 0.844238
vt 0.562012 0.999512
vt 0.500488 0.844238
vt 0.500488 0.999512
vt 0.624512 0.999512
vt 0.624512 0.844238
vt 0.562988 0.999512
vt 0.562988 0.844238
vt 0.719238 0.843262
vt 0.719238 0.781738
vt 0.780762 0.843262
vt 0.780762 0.781738
vt 0.500488 0.843262
vt 0.500488 0.781738
vt 0.562012 0.843262
vt 0.562012 0.781738
vt 0.000488 -0.000488
vt 0.000488 0.000488
vt 0.062012 -0.000488
vt 0.062012 0.000488
vt 0.156738 -0.000488
vt 0.156738 0.000488
vt 0.218262 -0.000488
vt 0.218262 0.000488
vt 0.155762 0.000488
vt 0.155762 0.062012
vt 0.062988 0.000488
vt 0.062988 0.062012
vt 0.249512 0.062012
vt 0.249512 0.000488
vt 0.156738 0.062012
vt 0.156738 0.000488
vt 0.219238 -0.000488
vt 0.219238 0.000488
vt 0.312012 -0.000488
vt 0.312012 0.000488
vt 0.062988 -0.000488
vt 0.062988 0.000488
vt 0.155762 -0.000488
vt 0.155762 0.000488
vn 0.8664 0.1852 -0.4638
vn 0.8664 0.1849 -0.4638
vn 0.8667 0.1849 -0.4632
vn 0.8667 0.1849 -0.4633
vn -0.8662 -0.1856 0.4639
vn -0.8663 -0.1860 0.4636
vn -0.8666 -0.1853 0.4634
vn -0.8666 -0.1852 0.4634
vn -0.0216 0.9420 0.3348
vn 0.0216 -0.9420 -0.3348
vn 0.4921 -0.2814 0.8238
vn 0.4914 -0.2812 0.8243
vn -0.4920 0.2814 -0.8239
vn -0.4918 0.2811 -0.8241
vn 0.7039 0.0000 0.7103
vn -0.7039 0.0000 -0.7103
vn 0.0000 1.0000 0.0000
vn -0.0000 -1.0000 -0.0000
vn -0.7039 0.0000 0.7103
vn 0.7039 0.0000 -0.7103
vn 0.8853 0.0000 -0.4651
vn -0.8853 0.0000 0.4651
vn 0.4584 -0.0000 0.8887
vn -0.4584 0.0000 -0.8887
vn 1.0000 0.0000 0.0000
vn -1.0000 0.0000 0.0000
vn 0.0000 -0.0000 1.0000
vn 0.0000 0.0000 -1.0000
vn -0.7040 -0.2214 0.6748
vn -0.7022 -0.2221 0.6765
vn -0.7025 -0.2219 0.6762
vn 0.7029 0.2215 -0.6759
vn 0.7026 0.2219 -0.6761
vn 0.7028 0.2218 -0.6760
vn -0.6682 0.5307 -0.5213
vn 0.6682 -0.5307 0.5213
vn -0.2433 -0.8181 -0.5211
vn -0.2428 -0.8182 -0.5212
vn 0.2429 0.8176 0.5220
vn 0.2430 0.8182 0.5211
usemtl m_1.002
s 1
f 1/1/1 2/2/2 3/3/3
f 2/2/2 4/4/4 3/3/3
f 5/5/5 6/6/6 7/7/7
f 6/6/6 8/8/8 7/7/7
f 5/9/9 7/10/9 3/11/9
f 7/10/9 1/12/9 3/11/9
f 8/13/10 6/14/10 2/15/10
f 6/14/10 4/16/10 2/15/10
f 7/17/11 8/18/11 1/19/12
f 8/18/11 2/20/12 1/19/12
f 3/21/13 4/22/13 5/23/14
f 4/22/13 6/24/14 5/23/14
f 9/25/15 10/26/15 11/27/15
f 10/26/15 12/28/15 11/27/15
f 13/29/16 14/30/16 15/31/16
f 14/30/16 16/32/16 15/31/16
f 13/33/17 15/34/17 11/35/17
f 15/34/17 9/36/17 11/35/17
f 16/37/18 14/38/18 10/39/18
f 14/38/18 12/40/18 10/39/18
f 15/41/19 16/42/19 9/43/19
f 16/42/19 10/44/19 9/43/19
f 11/45/20 12/46/20 13/47/20
f 12/46/20 14/48/20 13/47/20
f 17/49/21 18/50/21 19/51/21
f 18/50/21 20/52/21 19/51/21
f 21/53/22 22/54/22 23/55/22
f 22/54/22 24/56/22 23/55/22
f 21/57/17 23/58/17 19/59/17
f 23/58/17 17/60/17 19/59/17
f 24/61/18 22/62/18 18/63/18
f 22/62/18 20/64/18 18/63/18
f 23/65/23 24/66/23 17/67/23
f 24/66/23 18/68/23 17/67/23
f 19/69/24 20/70/24 21/71/24
f 20/70/24 22/72/24 21/71/24
f 25/73/15 26/74/15 27/75/15
f 26/74/15 28/76/15 27/75/15
f 29/77/16 30/78/16 31/79/16
f 30/78/16 32/80/16 31/79/16
f 29/81/17 31/82/17 27/83/17
f 31/82/17 25/84/17 27/83/17
f 32/85/18 30/86/18 26/87/18
f 30/86/18 28/88/18 26/87/18
f 31/89/19 32/90/19 25/91/19
f 32/90/19 26/92/19 25/91/19
f 27/93/20 28/94/20 29/95/20
f 28/94/20 30/96/20 29/95/20
f 33/97/25 34/98/25 35/99/25
f 34/98/25 36/100/25 35/99/25
f 37/101/26 38/102/26 39/103/26
f 38/102/26 40/104/26 39/103/26
f 37/105/17 39/106/17 35/107/17
f 39/106/17 33/108/17 35/107/17
f 40/109/18 38/110/18 34/111/18
f 38/110/18 36/112/18 34/111/18
f 39/113/27 40/114/27 33/115/27
f 40/114/27 34/116/27 33/115/27
f 35/117/28 36/118/28 37/119/28
f 36/118/28 38/120/28 37/119/28
f 41/121/25 42/122/25 43/123/25
f 42/122/25 44/124/25 43/123/25
f 45/125/26 46/126/26 47/127/26
f 46/126/26 48/128/26 47/127/26
f 45/129/17 47/130/17 43/131/17
f 47/130/17 41/132/17 43/131/17
f 48/133/18 46/134/18 42/135/18
f 46/134/18 44/136/18 42/135/18
f 47/137/27 48/138/27 41/139/27
f 48/138/27 42/140/27 41/139/27
f 43/141/28 44/142/28 45/143/28
f 44/142/28 46/144/28 45/143/28
f 49/145/29 50/146/29 51/147/30
f 50/146/29 52/148/31 51/147/30
f 53/149/32 54/150/32 55/151/33
f 54/150/32 56/152/34 55/151/33
f 53/153/35 55/154/35 51/155/35
f 55/154/35 49/156/35 51/155/35
f 56/157/36 54/158/36 50/159/36
f 54/158/36 52/160/36 50/159/36
f 55/161/37 56/162/37 49/163/38
f 56/162/37 50/164/38 49/163/38
f 51/165/39 52/166/39 53/167/40
f 52/166/39 54/168/40 53/167/40
