# Blender v2.83.0 OBJ File: ''
# www.blender.org
mtllib geonachspear.mtl
o Base
v 0.073231 -0.068267 0.392426
v 0.073231 -0.070316 -0.040652
v 0.073231 0.076092 0.391742
v 0.073231 0.074043 -0.041335
v -0.071130 0.076092 0.391742
v -0.071130 0.074043 -0.041335
v -0.071130 -0.068267 0.392426
v -0.071130 -0.070316 -0.040652
v 0.025111 -0.066445 0.777384
v 0.025111 -0.068267 0.392426
v 0.025111 0.029794 0.776928
v 0.025111 0.027973 0.391970
v -0.023010 0.029794 0.776928
v -0.023010 0.027973 0.391970
v -0.023010 -0.066445 0.777384
v -0.023010 -0.068267 0.392426
vt 0.000488 0.905762
vt 0.000488 0.625488
vt 0.093262 0.905762
vt 0.093262 0.625488
vt 0.187988 0.905762
vt 0.187988 0.625488
vt 0.280762 0.905762
vt 0.280762 0.625488
vt 0.187012 0.906738
vt 0.187012 0.999512
vt 0.094238 0.906738
vt 0.094238 0.999512
vt 0.280762 0.999512
vt 0.280762 0.906738
vt 0.187988 0.999512
vt 0.187988 0.906738
vt 0.281738 0.905762
vt 0.281738 0.625488
vt 0.374512 0.905762
vt 0.374512 0.625488
vt 0.094238 0.905762
vt 0.094238 0.625488
vt 0.187012 0.905762
vt 0.187012 0.625488
vt 0.312988 0.624512
vt 0.312988 0.375488
vt 0.374512 0.624512
vt 0.374512 0.375488
vt 0.406738 0.624512
vt 0.406738 0.375488
vt 0.468262 0.624512
vt 0.468262 0.375488
vt 0.405762 0.625488
vt 0.405762 0.687012
vt 0.375488 0.625488
vt 0.375488 0.687012
vt 0.437012 0.687012
vt 0.437012 0.625488
vt 0.406738 0.687012
vt 0.406738 0.625488
vt 0.469238 0.624512
vt 0.469238 0.375488
vt 0.499512 0.624512
vt 0.499512 0.375488
vt 0.375488 0.624512
vt 0.375488 0.375488
vt 0.405762 0.624512
vt 0.405762 0.375488
vn 1.0000 0.0000 0.0000
vn -1.0000 0.0000 0.0000
vn 0.0000 0.0047 1.0000
vn 0.0000 -0.0047 -1.0000
vn 0.0000 -1.0000 0.0047
vn 0.0000 1.0000 -0.0047
usemtl 0.001
s 1
f 1/1/1 2/2/1 3/3/1
f 2/2/1 4/4/1 3/3/1
f 5/5/2 6/6/2 7/7/2
f 6/6/2 8/8/2 7/7/2
f 5/9/3 7/10/3 3/11/3
f 7/10/3 1/12/3 3/11/3
f 8/13/4 6/14/4 2/15/4
f 6/14/4 4/16/4 2/15/4
f 7/17/5 8/18/5 1/19/5
f 8/18/5 2/20/5 1/19/5
f 3/21/6 4/22/6 5/23/6
f 4/22/6 6/24/6 5/23/6
f 9/25/1 10/26/1 11/27/1
f 10/26/1 12/28/1 11/27/1
f 13/29/2 14/30/2 15/31/2
f 14/30/2 16/32/2 15/31/2
f 13/33/3 15/34/3 11/35/3
f 15/34/3 9/36/3 11/35/3
f 16/37/4 14/38/4 10/39/4
f 14/38/4 12/40/4 10/39/4
f 15/41/5 16/42/5 9/43/5
f 16/42/5 10/44/5 9/43/5
f 11/45/6 12/46/6 13/47/6
f 12/46/6 14/48/6 13/47/6
