# Blender v2.83.0 OBJ File: ''
# www.blender.org
mtllib ironpaxel.mtl
o Base
v 0.051563 0.051563 0.445272
v 0.051563 -0.051562 0.445272
v 0.051563 0.051563 -0.001603
v 0.051563 -0.051562 -0.001603
v -0.051563 0.051563 -0.001603
v -0.051563 -0.051562 -0.001603
v -0.051563 0.051563 0.445272
v -0.051563 -0.051562 0.445272
v 0.149653 0.034375 0.858130
v 0.149653 -0.034375 0.858130
v 0.392721 0.034375 0.615062
v 0.392721 -0.034375 0.615062
v 0.149653 0.034375 0.371994
v 0.149653 -0.034375 0.371994
v -0.093415 0.034375 0.615062
v -0.093415 -0.034375 0.615062
v -0.105568 0.034375 0.797363
v -0.105568 -0.034375 0.797363
v -0.008341 0.034375 0.700136
v -0.008341 -0.034375 0.700136
v -0.154182 0.034375 0.554295
v -0.154182 -0.034375 0.554295
v -0.251409 0.034375 0.651522
v -0.251409 -0.034375 0.651522
v -0.251409 0.034375 0.748749
v -0.251409 -0.034375 0.748749
v -0.154182 0.034375 0.651522
v -0.154182 -0.034375 0.651522
v -0.348636 0.034375 0.457068
v -0.348636 -0.034375 0.457068
v -0.445863 0.034375 0.554295
v -0.445863 -0.034375 0.554295
v 0.068750 0.068750 0.789022
v 0.068750 -0.068750 0.789022
v 0.068750 0.068750 0.445272
v 0.068750 -0.068750 0.445272
v -0.068750 0.068750 0.445272
v -0.068750 -0.068750 0.445272
v -0.068750 0.068750 0.789022
v -0.068750 -0.068750 0.789022
vt 0.000488 0.780762
vt 0.000488 0.719238
vt 0.218262 0.780762
vt 0.218262 0.719238
vt 0.281738 0.780762
vt 0.281738 0.719238
vt 0.499512 0.780762
vt 0.499512 0.719238
vt 0.280762 0.781738
vt 0.280762 0.999512
vt 0.219238 0.781738
vt 0.219238 0.999512
vt 0.343262 0.999512
vt 0.343262 0.781738
vt 0.281738 0.999512
vt 0.281738 0.781738
vt 0.500488 0.780762
vt 0.500488 0.719238
vt 0.562012 0.780762
vt 0.562012 0.719238
vt 0.219238 0.780762
vt 0.219238 0.719238
vt 0.280762 0.780762
vt 0.280762 0.719238
vt 0.000488 0.562012
vt 0.000488 0.531738
vt 0.155762 0.562012
vt 0.155762 0.531738
vt 0.312988 0.562012
vt 0.312988 0.531738
vt 0.468262 0.562012
vt 0.468262 0.531738
vt 0.312012 0.562988
vt 0.312012 0.718262
vt 0.156738 0.562988
vt 0.156738 0.718262
vt 0.468262 0.718262
vt 0.468262 0.562988
vt 0.312988 0.718262
vt 0.312988 0.562988
vt 0.469238 0.562012
vt 0.469238 0.531738
vt 0.624512 0.562012
vt 0.624512 0.531738
vt 0.156738 0.562012
vt 0.156738 0.531738
vt 0.312012 0.562012
vt 0.312012 0.531738
vt 0.469238 0.655762
vt 0.469238 0.625488
vt 0.530762 0.655762
vt 0.530762 0.625488
vt 0.625488 0.655762
vt 0.625488 0.625488
vt 0.687012 0.655762
vt 0.687012 0.625488
vt 0.624512 0.656738
vt 0.624512 0.718262
vt 0.531738 0.656738
vt 0.531738 0.718262
vt 0.718262 0.718262
vt 0.718262 0.656738
vt 0.625488 0.718262
vt 0.625488 0.656738
vt 0.687988 0.655762
vt 0.687988 0.625488
vt 0.780762 0.655762
vt 0.780762 0.625488
vt 0.531738 0.655762
vt 0.531738 0.625488
vt 0.624512 0.655762
vt 0.624512 0.625488
vt 0.000488 0.468262
vt 0.000488 0.437988
vt 0.062012 0.468262
vt 0.062012 0.437988
vt 0.187988 0.468262
vt 0.187988 0.437988
vt 0.249512 0.468262
vt 0.249512 0.437988
vt 0.187012 0.469238
vt 0.187012 0.530762
vt 0.062988 0.469238
vt 0.062988 0.530762
vt 0.312012 0.530762
vt 0.312012 0.469238
vt 0.187988 0.530762
vt 0.187988 0.469238
vt 0.250488 0.468262
vt 0.250488 0.437988
vt 0.374512 0.468262
vt 0.374512 0.437988
vt 0.062988 0.468262
vt 0.062988 0.437988
vt 0.187012 0.468262
vt 0.187012 0.437988
vt 0.344238 0.843262
vt 0.344238 0.781738
vt 0.499512 0.843262
vt 0.499512 0.781738
vt 0.562988 0.843262
vt 0.562988 0.781738
vt 0.718262 0.843262
vt 0.718262 0.781738
vt 0.562012 0.844238
vt 0.562012 0.999512
vt 0.500488 0.844238
vt 0.500488 0.999512
vt 0.624512 0.999512
vt 0.624512 0.844238
vt 0.562988 0.999512
vt 0.562988 0.844238
vt 0.719238 0.843262
vt 0.719238 0.781738
vt 0.780762 0.843262
vt 0.780762 0.781738
vt 0.500488 0.843262
vt 0.500488 0.781738
vt 0.562012 0.843262
vt 0.562012 0.781738
vn 1.0000 0.0000 0.0000
vn -1.0000 0.0000 0.0000
vn 0.0000 1.0000 0.0000
vn 0.0000 -1.0000 -0.0000
vn 0.0000 0.0000 1.0000
vn 0.0000 0.0000 -1.0000
vn 0.7071 0.0000 0.7071
vn -0.7071 0.0000 -0.7071
vn -0.7071 -0.0000 0.7071
vn 0.7071 0.0000 -0.7071
usemtl m_1
s 1
f 1/1/1 2/2/1 3/3/1
f 2/2/1 4/4/1 3/3/1
f 5/5/2 6/6/2 7/7/2
f 6/6/2 8/8/2 7/7/2
f 5/9/3 7/10/3 3/11/3
f 7/10/3 1/12/3 3/11/3
f 8/13/4 6/14/4 2/15/4
f 6/14/4 4/16/4 2/15/4
f 7/17/5 8/18/5 1/19/5
f 8/18/5 2/20/5 1/19/5
f 3/21/6 4/22/6 5/23/6
f 4/22/6 6/24/6 5/23/6
f 9/25/7 10/26/7 11/27/7
f 10/26/7 12/28/7 11/27/7
f 13/29/8 14/30/8 15/31/8
f 14/30/8 16/32/8 15/31/8
f 13/33/3 15/34/3 11/35/3
f 15/34/3 9/36/3 11/35/3
f 16/37/4 14/38/4 10/39/4
f 14/38/4 12/40/4 10/39/4
f 15/41/9 16/42/9 9/43/9
f 16/42/9 10/44/9 9/43/9
f 11/45/10 12/46/10 13/47/10
f 12/46/10 14/48/10 13/47/10
f 17/49/7 18/50/7 19/51/7
f 18/50/7 20/52/7 19/51/7
f 21/53/8 22/54/8 23/55/8
f 22/54/8 24/56/8 23/55/8
f 21/57/3 23/58/3 19/59/3
f 23/58/3 17/60/3 19/59/3
f 24/61/4 22/62/4 18/63/4
f 22/62/4 20/64/4 18/63/4
f 23/65/9 24/66/9 17/67/9
f 24/66/9 18/68/9 17/67/9
f 19/69/10 20/70/10 21/71/10
f 20/70/10 22/72/10 21/71/10
f 25/73/7 26/74/7 27/75/7
f 26/74/7 28/76/7 27/75/7
f 29/77/8 30/78/8 31/79/8
f 30/78/8 32/80/8 31/79/8
f 29/81/3 31/82/3 27/83/3
f 31/82/3 25/84/3 27/83/3
f 32/85/4 30/86/4 26/87/4
f 30/86/4 28/88/4 26/87/4
f 31/89/9 32/90/9 25/91/9
f 32/90/9 26/92/9 25/91/9
f 27/93/10 28/94/10 29/95/10
f 28/94/10 30/96/10 29/95/10
f 33/97/1 34/98/1 35/99/1
f 34/98/1 36/100/1 35/99/1
f 37/101/2 38/102/2 39/103/2
f 38/102/2 40/104/2 39/103/2
f 37/105/3 39/106/3 35/107/3
f 39/106/3 33/108/3 35/107/3
f 40/109/4 38/110/4 34/111/4
f 38/110/4 36/112/4 34/111/4
f 39/113/5 40/114/5 33/115/5
f 40/114/5 34/116/5 33/115/5
f 35/117/6 36/118/6 37/119/6
f 36/118/6 38/120/6 37/119/6
