# Blender v2.83.0 OBJ File: ''
# www.blender.org
mtllib wraithskull.mtl
o Base
v -0.105323 0.311795 0.990406
v -0.105322 0.311795 1.177906
v 0.082178 0.311795 0.990406
v 0.082178 0.311795 1.177906
v 0.082177 0.061795 0.990406
v 0.082177 0.061795 1.177906
v -0.105323 0.061795 0.990406
v -0.105323 0.061795 1.177906
v -0.093750 -0.093750 0.245230
v -0.093750 0.093750 0.245230
v -0.093750 -0.093750 -0.192270
v -0.093750 0.093750 -0.192270
v 0.093750 -0.093750 -0.192270
v 0.093750 0.093750 -0.192270
v 0.093750 -0.093750 0.245230
v 0.093750 0.093750 0.245230
v -0.062500 -0.062500 0.807730
v -0.062500 0.062500 0.807730
v -0.062500 -0.062500 0.245230
v -0.062500 0.062500 0.245230
v 0.062500 -0.062500 0.245230
v 0.062500 0.062500 0.245230
v 0.062500 -0.062500 0.807730
v 0.062500 0.062500 0.807730
v -0.093750 -0.093750 1.057730
v -0.093750 0.093750 1.057730
v -0.093750 -0.093750 0.807730
v -0.093750 0.093750 0.807730
v 0.093750 -0.093750 0.807730
v 0.093750 0.093750 0.807730
v 0.093750 -0.093750 1.057730
v 0.093750 0.093750 1.057730
v -0.074072 0.515893 1.150985
v -0.074072 0.444195 1.253379
v 0.050928 0.515893 1.150985
v 0.050928 0.444195 1.253379
v 0.050928 0.311105 1.007591
v 0.050928 0.239407 1.109985
v -0.074072 0.311105 1.007591
v -0.074072 0.239407 1.109985
v -0.042822 0.579953 1.343528
v -0.042822 0.523309 1.369942
v 0.019678 0.579953 1.343528
v 0.019678 0.523309 1.369942
v 0.019678 0.500712 1.173596
v 0.019678 0.444068 1.200009
v -0.042822 0.500712 1.173596
v -0.042822 0.444068 1.200009
v 0.082177 -0.313205 0.990406
v 0.082177 -0.313205 1.177906
v -0.105323 -0.313205 0.990406
v -0.105323 -0.313205 1.177906
v -0.105323 -0.063205 0.990406
v -0.105323 -0.063205 1.177906
v 0.082177 -0.063205 0.990406
v 0.082177 -0.063205 1.177906
v 0.050927 -0.517303 1.150985
v 0.050927 -0.445606 1.253379
v -0.074073 -0.517303 1.150985
v -0.074073 -0.445606 1.253379
v -0.074073 -0.312515 1.007591
v -0.074073 -0.240818 1.109985
v 0.050927 -0.312515 1.007591
v 0.050927 -0.240818 1.109985
v 0.019677 -0.581363 1.343528
v 0.019677 -0.524719 1.369942
v -0.042823 -0.581363 1.343528
v -0.042823 -0.524719 1.369942
v -0.042823 -0.502123 1.173596
v -0.042823 -0.445478 1.200009
v 0.019677 -0.502123 1.173596
v 0.019677 -0.445478 1.200009
v -0.097093 0.155545 0.900997
v -0.304606 0.155545 1.134653
v 0.136561 0.155545 1.108509
v -0.070951 0.155545 1.342165
v 0.136561 -0.156955 1.108509
v -0.070951 -0.156955 1.342165
v -0.097093 -0.156955 0.900997
v -0.304607 -0.156955 1.134652
v -0.036558 0.124295 1.069808
v 0.004082 0.124295 1.316483
v 0.148449 0.124295 1.039328
v 0.189088 0.124295 1.286003
v 0.148449 -0.125705 1.039328
v 0.189088 -0.125705 1.286003
v -0.036558 -0.125705 1.069808
v 0.004082 -0.125705 1.316483
v 0.250000 0.000063 0.682730
v 0.250000 -0.000000 0.682730
v 0.250000 0.000062 -0.004770
v 0.250000 0.000000 -0.004770
v 0.062500 0.000062 -0.004770
v 0.062500 0.000000 -0.004770
v 0.062500 0.000063 0.682730
v 0.062500 -0.000000 0.682730
v -0.250000 -0.000062 0.682730
v -0.250000 -0.000000 0.682730
v -0.250000 -0.000062 -0.004770
v -0.250000 0.000000 -0.004770
v -0.062500 -0.000063 -0.004770
v -0.062500 0.000000 -0.004770
v -0.062500 -0.000062 0.682730
v -0.062500 -0.000000 0.682730
vt 0.468994 0.046631
vt 0.468994 0.000244
vt 0.515381 0.046631
vt 0.515381 0.000244
vt 0.578369 0.046631
vt 0.578369 0.000244
vt 0.624756 0.046631
vt 0.624756 0.000244
vt 0.577881 0.047119
vt 0.577881 0.093506
vt 0.515869 0.047119
vt 0.515869 0.093506
vt 0.640381 0.093506
vt 0.640381 0.047119
vt 0.578369 0.093506
vt 0.578369 0.047119
vt 0.625244 0.046631
vt 0.625244 0.000244
vt 0.687256 0.046631
vt 0.687256 0.000244
vt 0.515869 0.046631
vt 0.515869 0.000244
vt 0.577881 0.046631
vt 0.577881 0.000244
vt 0.000244 0.718506
vt 0.000244 0.672119
vt 0.109131 0.718506
vt 0.109131 0.672119
vt 0.156494 0.718506
vt 0.156494 0.672119
vt 0.265381 0.718506
vt 0.265381 0.672119
vt 0.156006 0.718994
vt 0.156006 0.827881
vt 0.109619 0.718994
vt 0.109619 0.827881
vt 0.202881 0.827881
vt 0.202881 0.718994
vt 0.156494 0.827881
vt 0.156494 0.718994
vt 0.265869 0.718506
vt 0.265869 0.672119
vt 0.312256 0.718506
vt 0.312256 0.672119
vt 0.109619 0.718506
vt 0.109619 0.672119
vt 0.156006 0.718506
vt 0.156006 0.672119
vt 0.000244 0.859131
vt 0.000244 0.828369
vt 0.140381 0.859131
vt 0.140381 0.828369
vt 0.172119 0.859131
vt 0.172119 0.828369
vt 0.312256 0.859131
vt 0.312256 0.828369
vt 0.171631 0.859619
vt 0.171631 0.999756
vt 0.140869 0.859619
vt 0.140869 0.999756
vt 0.202881 0.999756
vt 0.202881 0.859619
vt 0.172119 0.999756
vt 0.172119 0.859619
vt 0.312744 0.859131
vt 0.312744 0.828369
vt 0.343506 0.859131
vt 0.343506 0.828369
vt 0.140869 0.859131
vt 0.140869 0.828369
vt 0.171631 0.859131
vt 0.171631 0.828369
vt 0.203369 0.937256
vt 0.203369 0.890869
vt 0.265381 0.937256
vt 0.265381 0.890869
vt 0.312744 0.937256
vt 0.312744 0.890869
vt 0.374756 0.937256
vt 0.374756 0.890869
vt 0.312256 0.937744
vt 0.312256 0.999756
vt 0.265869 0.937744
vt 0.265869 0.999756
vt 0.359131 0.999756
vt 0.359131 0.937744
vt 0.312744 0.999756
vt 0.312744 0.937744
vt 0.375244 0.937256
vt 0.375244 0.890869
vt 0.421631 0.937256
vt 0.421631 0.890869
vt 0.265869 0.937256
vt 0.265869 0.890869
vt 0.312256 0.937256
vt 0.312256 0.890869
vt 0.000244 0.031006
vt 0.000244 0.000244
vt 0.031006 0.031006
vt 0.031006 0.000244
vt 0.093994 0.031006
vt 0.093994 0.000244
vt 0.124756 0.031006
vt 0.124756 0.000244
vt 0.093506 0.031494
vt 0.093506 0.062256
vt 0.031494 0.031494
vt 0.031494 0.062256
vt 0.156006 0.062256
vt 0.156006 0.031494
vt 0.093994 0.062256
vt 0.093994 0.031494
vt 0.125244 0.031006
vt 0.125244 0.000244
vt 0.187256 0.031006
vt 0.187256 0.000244
vt 0.031494 0.031006
vt 0.031494 0.000244
vt 0.093506 0.031006
vt 0.093506 0.000244
vt 0.000244 0.077881
vt 0.000244 0.062744
vt 0.015381 0.077881
vt 0.015381 0.062744
vt 0.062744 0.077881
vt 0.062744 0.062744
vt 0.077881 0.077881
vt 0.077881 0.062744
vt 0.062256 0.078369
vt 0.062256 0.093506
vt 0.015869 0.078369
vt 0.015869 0.093506
vt 0.109131 0.093506
vt 0.109131 0.078369
vt 0.062744 0.093506
vt 0.062744 0.078369
vt 0.078369 0.077881
vt 0.078369 0.062744
vt 0.124756 0.077881
vt 0.124756 0.062744
vt 0.015869 0.077881
vt 0.015869 0.062744
vt 0.062256 0.077881
vt 0.062256 0.062744
vt 0.468994 0.046631
vt 0.468994 0.000244
vt 0.515381 0.046631
vt 0.515381 0.000244
vt 0.578369 0.046631
vt 0.578369 0.000244
vt 0.624756 0.046631
vt 0.624756 0.000244
vt 0.577881 0.047119
vt 0.577881 0.093506
vt 0.515869 0.047119
vt 0.515869 0.093506
vt 0.640381 0.093506
vt 0.640381 0.047119
vt 0.578369 0.093506
vt 0.578369 0.047119
vt 0.625244 0.046631
vt 0.625244 0.000244
vt 0.687256 0.046631
vt 0.687256 0.000244
vt 0.515869 0.046631
vt 0.515869 0.000244
vt 0.577881 0.046631
vt 0.577881 0.000244
vt 0.000244 0.031006
vt 0.000244 0.000244
vt 0.031006 0.031006
vt 0.031006 0.000244
vt 0.093994 0.031006
vt 0.093994 0.000244
vt 0.124756 0.031006
vt 0.124756 0.000244
vt 0.093506 0.031494
vt 0.093506 0.062256
vt 0.031494 0.031494
vt 0.031494 0.062256
vt 0.156006 0.062256
vt 0.156006 0.031494
vt 0.093994 0.062256
vt 0.093994 0.031494
vt 0.125244 0.031006
vt 0.125244 0.000244
vt 0.187256 0.031006
vt 0.187256 0.000244
vt 0.031494 0.031006
vt 0.031494 0.000244
vt 0.093506 0.031006
vt 0.093506 0.000244
vt 0.000244 0.077881
vt 0.000244 0.062744
vt 0.015381 0.077881
vt 0.015381 0.062744
vt 0.062744 0.077881
vt 0.062744 0.062744
vt 0.077881 0.077881
vt 0.077881 0.062744
vt 0.062256 0.078369
vt 0.062256 0.093506
vt 0.015869 0.078369
vt 0.015869 0.093506
vt 0.109131 0.093506
vt 0.109131 0.078369
vt 0.062744 0.093506
vt 0.062744 0.078369
vt 0.078369 0.077881
vt 0.078369 0.062744
vt 0.124756 0.077881
vt 0.124756 0.062744
vt 0.015869 0.077881
vt 0.015869 0.062744
vt 0.062256 0.077881
vt 0.062256 0.062744
vt 0.687744 0.077881
vt 0.687744 0.000244
vt 0.765381 0.077881
vt 0.765381 0.000244
vt 0.843994 0.077881
vt 0.843994 0.000244
vt 0.921631 0.077881
vt 0.921631 0.000244
vt 0.843506 0.078369
vt 0.843506 0.156006
vt 0.765869 0.078369
vt 0.765869 0.156006
vt 0.921631 0.156006
vt 0.921631 0.078369
vt 0.843994 0.156006
vt 0.843994 0.078369
vt 0.922119 0.077881
vt 0.922119 0.000244
vt 0.999756 0.077881
vt 0.999756 0.000244
vt 0.765869 0.077881
vt 0.765869 0.000244
vt 0.843506 0.077881
vt 0.843506 0.000244
vt 0.781494 0.218506
vt 0.781494 0.156494
vt 0.827881 0.218506
vt 0.827881 0.156494
vt 0.890869 0.218506
vt 0.890869 0.156494
vt 0.937256 0.218506
vt 0.937256 0.156494
vt 0.890381 0.218994
vt 0.890381 0.265381
vt 0.828369 0.218994
vt 0.828369 0.265381
vt 0.952881 0.265381
vt 0.952881 0.218994
vt 0.890869 0.265381
vt 0.890869 0.218994
vt 0.937744 0.218506
vt 0.937744 0.156494
vt 0.999756 0.218506
vt 0.999756 0.156494
vt 0.828369 0.218506
vt 0.828369 0.156494
vt 0.890381 0.218506
vt 0.890381 0.156494
vt 0.531494 0.827881
vt 0.531494 0.828369
vt 0.702881 0.827881
vt 0.702881 0.828369
vt 0.750244 0.827881
vt 0.750244 0.828369
vt 0.921631 0.827881
vt 0.921631 0.828369
vt 0.749756 0.828369
vt 0.749756 0.999756
vt 0.703369 0.828369
vt 0.703369 0.999756
vt 0.796631 0.999756
vt 0.796631 0.828369
vt 0.750244 0.999756
vt 0.750244 0.828369
vt 0.922119 0.827881
vt 0.922119 0.828369
vt 0.968506 0.827881
vt 0.968506 0.828369
vt 0.703369 0.827881
vt 0.703369 0.828369
vt 0.749756 0.827881
vt 0.749756 0.828369
vt 0.531494 0.827881
vt 0.531494 0.828369
vt 0.702881 0.827881
vt 0.702881 0.828369
vt 0.750244 0.827881
vt 0.750244 0.828369
vt 0.921631 0.827881
vt 0.921631 0.828369
vt 0.749756 0.828369
vt 0.749756 0.999756
vt 0.703369 0.828369
vt 0.703369 0.999756
vt 0.796631 0.999756
vt 0.796631 0.828369
vt 0.750244 0.999756
vt 0.750244 0.828369
vt 0.922119 0.827881
vt 0.922119 0.828369
vt 0.968506 0.827881
vt 0.968506 0.828369
vt 0.703369 0.827881
vt 0.703369 0.828369
vt 0.749756 0.827881
vt 0.749756 0.828369
vn 0.0000 1.0000 0.0000
vn 0.0000 -1.0000 -0.0000
vn 0.0000 0.0000 -1.0000
vn 0.0000 0.0000 1.0000
vn -1.0000 0.0000 0.0000
vn 1.0000 -0.0000 -0.0000
vn 0.0000 0.8191 0.5736
vn 0.0000 -0.8191 -0.5736
vn 0.0000 0.5736 -0.8192
vn 0.0000 -0.5736 0.8192
vn 0.0000 0.4226 0.9063
vn 0.0000 -0.4226 -0.9063
vn 0.0000 0.9063 -0.4226
vn 0.0000 -0.9063 0.4226
vn 0.0000 -0.8192 0.5736
vn 0.0000 0.8192 -0.5736
vn 0.0000 -0.5736 -0.8192
vn 0.0000 0.5736 0.8192
vn 0.0000 -0.4226 0.9063
vn 0.0000 0.4226 -0.9063
vn 0.0000 -0.9063 -0.4226
vn 0.0000 0.9063 0.4226
vn 0.6640 0.0000 -0.7477
vn -0.6640 0.0000 0.7477
vn -0.7477 0.0000 -0.6640
vn 0.7477 0.0000 0.6640
vn -0.1626 -0.0000 -0.9867
vn 0.1626 0.0000 0.9867
vn -0.9867 0.0000 0.1626
vn 0.9867 0.0000 -0.1626
usemtl m_0
s 1
f 1/1/1 2/2/1 3/3/1
f 2/2/1 4/4/1 3/3/1
f 5/5/2 6/6/2 7/7/2
f 6/6/2 8/8/2 7/7/2
f 5/9/3 7/10/3 3/11/3
f 7/10/3 1/12/3 3/11/3
f 8/13/4 6/14/4 2/15/4
f 6/14/4 4/16/4 2/15/4
f 7/17/5 8/18/5 1/19/5
f 8/18/5 2/20/5 1/19/5
f 3/21/6 4/22/6 5/23/6
f 4/22/6 6/24/6 5/23/6
f 9/25/5 10/26/5 11/27/5
f 10/26/5 12/28/5 11/27/5
f 13/29/6 14/30/6 15/31/6
f 14/30/6 16/32/6 15/31/6
f 13/33/2 15/34/2 11/35/2
f 15/34/2 9/36/2 11/35/2
f 16/37/1 14/38/1 10/39/1
f 14/38/1 12/40/1 10/39/1
f 15/41/4 16/42/4 9/43/4
f 16/42/4 10/44/4 9/43/4
f 11/45/3 12/46/3 13/47/3
f 12/46/3 14/48/3 13/47/3
f 17/49/5 18/50/5 19/51/5
f 18/50/5 20/52/5 19/51/5
f 21/53/6 22/54/6 23/55/6
f 22/54/6 24/56/6 23/55/6
f 21/57/2 23/58/2 19/59/2
f 23/58/2 17/60/2 19/59/2
f 24/61/1 22/62/1 18/63/1
f 22/62/1 20/64/1 18/63/1
f 23/65/4 24/66/4 17/67/4
f 24/66/4 18/68/4 17/67/4
f 19/69/3 20/70/3 21/71/3
f 20/70/3 22/72/3 21/71/3
f 25/73/5 26/74/5 27/75/5
f 26/74/5 28/76/5 27/75/5
f 29/77/6 30/78/6 31/79/6
f 30/78/6 32/80/6 31/79/6
f 29/81/2 31/82/2 27/83/2
f 31/82/2 25/84/2 27/83/2
f 32/85/1 30/86/1 26/87/1
f 30/86/1 28/88/1 26/87/1
f 31/89/4 32/90/4 25/91/4
f 32/90/4 26/92/4 25/91/4
f 27/93/3 28/94/3 29/95/3
f 28/94/3 30/96/3 29/95/3
f 33/97/7 34/98/7 35/99/7
f 34/98/7 36/100/7 35/99/7
f 37/101/8 38/102/8 39/103/8
f 38/102/8 40/104/8 39/103/8
f 37/105/9 39/106/9 35/107/9
f 39/106/9 33/108/9 35/107/9
f 40/109/10 38/110/10 34/111/10
f 38/110/10 36/112/10 34/111/10
f 39/113/5 40/114/5 33/115/5
f 40/114/5 34/116/5 33/115/5
f 35/117/6 36/118/6 37/119/6
f 36/118/6 38/120/6 37/119/6
f 41/121/11 42/122/11 43/123/11
f 42/122/11 44/124/11 43/123/11
f 45/125/12 46/126/12 47/127/12
f 46/126/12 48/128/12 47/127/12
f 45/129/13 47/130/13 43/131/13
f 47/130/13 41/132/13 43/131/13
f 48/133/14 46/134/14 42/135/14
f 46/134/14 44/136/14 42/135/14
f 47/137/5 48/138/5 41/139/5
f 48/138/5 42/140/5 41/139/5
f 43/141/6 44/142/6 45/143/6
f 44/142/6 46/144/6 45/143/6
f 49/145/2 50/146/2 51/147/2
f 50/146/2 52/148/2 51/147/2
f 53/149/1 54/150/1 55/151/1
f 54/150/1 56/152/1 55/151/1
f 53/153/3 55/154/3 51/155/3
f 55/154/3 49/156/3 51/155/3
f 56/157/4 54/158/4 50/159/4
f 54/158/4 52/160/4 50/159/4
f 55/161/6 56/162/6 49/163/6
f 56/162/6 50/164/6 49/163/6
f 51/165/5 52/166/5 53/167/5
f 52/166/5 54/168/5 53/167/5
f 57/169/15 58/170/15 59/171/15
f 58/170/15 60/172/15 59/171/15
f 61/173/16 62/174/16 63/175/16
f 62/174/16 64/176/16 63/175/16
f 61/177/17 63/178/17 59/179/17
f 63/178/17 57/180/17 59/179/17
f 64/181/18 62/182/18 58/183/18
f 62/182/18 60/184/18 58/183/18
f 63/185/6 64/186/6 57/187/6
f 64/186/6 58/188/6 57/187/6
f 59/189/5 60/190/5 61/191/5
f 60/190/5 62/192/5 61/191/5
f 65/193/19 66/194/19 67/195/19
f 66/194/19 68/196/19 67/195/19
f 69/197/20 70/198/20 71/199/20
f 70/198/20 72/200/20 71/199/20
f 69/201/21 71/202/21 67/203/21
f 71/202/21 65/204/21 67/203/21
f 72/205/22 70/206/22 66/207/22
f 70/206/22 68/208/22 66/207/22
f 71/209/6 72/210/6 65/211/6
f 72/210/6 66/212/6 65/211/6
f 67/213/5 68/214/5 69/215/5
f 68/214/5 70/216/5 69/215/5
f 73/217/1 74/218/1 75/219/1
f 74/218/1 76/220/1 75/219/1
f 77/221/2 78/222/2 79/223/2
f 78/222/2 80/224/2 79/223/2
f 77/225/23 79/226/23 75/227/23
f 79/226/23 73/228/23 75/227/23
f 80/229/24 78/230/24 74/231/24
f 78/230/24 76/232/24 74/231/24
f 79/233/25 80/234/25 73/235/25
f 80/234/25 74/236/25 73/235/25
f 75/237/26 76/238/26 77/239/26
f 76/238/26 78/240/26 77/239/26
f 81/241/1 82/242/1 83/243/1
f 82/242/1 84/244/1 83/243/1
f 85/245/2 86/246/2 87/247/2
f 86/246/2 88/248/2 87/247/2
f 85/249/27 87/250/27 83/251/27
f 87/250/27 81/252/27 83/251/27
f 88/253/28 86/254/28 82/255/28
f 86/254/28 84/256/28 82/255/28
f 87/257/29 88/258/29 81/259/29
f 88/258/29 82/260/29 81/259/29
f 83/261/30 84/262/30 85/263/30
f 84/262/30 86/264/30 85/263/30
f 89/265/6 90/266/6 91/267/6
f 90/266/6 92/268/6 91/267/6
f 93/269/5 94/270/5 95/271/5
f 94/270/5 96/272/5 95/271/5
f 93/273/1 95/274/1 91/275/1
f 95/274/1 89/276/1 91/275/1
f 96/277/2 94/278/2 90/279/2
f 94/278/2 92/280/2 90/279/2
f 95/281/4 96/282/4 89/283/4
f 96/282/4 90/284/4 89/283/4
f 91/285/3 92/286/3 93/287/3
f 92/286/3 94/288/3 93/287/3
f 97/289/5 98/290/5 99/291/5
f 98/290/5 100/292/5 99/291/5
f 101/293/6 102/294/6 103/295/6
f 102/294/6 104/296/6 103/295/6
f 101/297/2 103/298/2 99/299/2
f 103/298/2 97/300/2 99/299/2
f 104/301/1 102/302/1 98/303/1
f 102/302/1 100/304/1 98/303/1
f 103/305/4 104/306/4 97/307/4
f 104/306/4 98/308/4 97/307/4
f 99/309/3 100/310/3 101/311/3
f 100/310/3 102/312/3 101/311/3
